STARTFONT 2.1
COMMENT
COMMENT Converted from OpenType font "Q:\font stuff\winfont\GosmickSans.ttf" by "otf2bdf 3.0".
COMMENT
FONT -FreeType-GosmickSans-Medium-R-Normal--92-920-72-72-P-398-ISO10646-1
SIZE 92 72 72
FONTBOUNDINGBOX 112 114 -12 -25
STARTPROPERTIES 19
FOUNDRY "FreeType"
FAMILY_NAME "GosmickSans"
WEIGHT_NAME "Medium"
SLANT "R"
SETWIDTH_NAME "Normal"
ADD_STYLE_NAME ""
PIXEL_SIZE 70
POINT_SIZE 920
RESOLUTION_X 72
RESOLUTION_Y 72
SPACING "P"
AVERAGE_WIDTH 398
CHARSET_REGISTRY "ISO10646"
CHARSET_ENCODING "1"
FONT_ASCENT 88
FONT_DESCENT 22
COPYRIGHT "Copyright (c) Graham Meade, 2003. All rights reserved."
_OTF_FONTFILE "Q:\font stuff\winfont\GosmickSans.ttf"
_OTF_PSNAME "GosmickSans"
ENDPROPERTIES
CHARS 220
STARTCHAR 0008
ENCODING 8
SWIDTH 315 0
DWIDTH 29 0
BBX 23 21 3 47
BITMAP
00FF00
03FFC0
0FFFF0
1FFFF8
1FFFFC
3F83FC
7F00FE
7E00FE
7C007E
FC007E
FC007E
FC007E
FC007E
7E00FE
7F01FC
7F83F8
3FFFF0
1FFFE0
0FFFC0
07FF00
00F800
ENDCHAR
STARTCHAR 001A
ENCODING 26
SWIDTH 467 0
DWIDTH 43 0
BBX 0 0 0 0
BITMAP
ENDCHAR
STARTCHAR 001B
ENCODING 27
SWIDTH 467 0
DWIDTH 43 0
BBX 0 0 0 0
BITMAP
ENDCHAR
STARTCHAR 0020
ENCODING 32
SWIDTH 282 0
DWIDTH 26 0
BBX 0 0 0 0
BITMAP
ENDCHAR
STARTCHAR 0021
ENCODING 33
SWIDTH 184 0
DWIDTH 17 0
BBX 12 68 3 -2
BITMAP
0780
1FC0
3FE0
7FE0
7FE0
7FE0
7FE0
7FE0
7FE0
7FE0
3FE0
3FE0
3FE0
3FE0
3FE0
3FC0
3FC0
3FC0
3FC0
3FC0
3FC0
3FC0
7FC0
7FC0
7FC0
7FC0
7FC0
7FC0
7FC0
7FC0
7FC0
7FC0
7FC0
7FC0
7FC0
7FC0
7FC0
7FC0
7FC0
7FC0
7FC0
7FC0
7FC0
7FC0
7FC0
7F80
7F80
3E00
1C00
0000
0000
0000
0000
0000
0000
0000
1F00
3F80
7FC0
FFE0
FFE0
FFF0
FFF0
7FF0
7FE0
3FE0
1FC0
0F80
ENDCHAR
STARTCHAR 0022
ENCODING 34
SWIDTH 380 0
DWIDTH 35 0
BBX 30 23 3 46
BITMAP
1F0003F0
3F8007F8
7FC00FF8
7FC00FFC
FFC00FFC
FFC00FFC
FFC00FFC
FFC00FFC
FFC00FF8
FFC00FF8
FFC00FF8
7FC00FF8
7F800FF8
7F800FF0
7F800FF0
7F8007F0
7F0007F0
3F0007E0
3F0007E0
3E0003E0
1E0003C0
1E0003C0
0C000180
ENDCHAR
STARTCHAR 0023
ENCODING 35
SWIDTH 554 0
DWIDTH 51 0
BBX 45 53 3 3
BITMAP
0000F800C000
0000FC01F000
0000FC01F000
0001FC03F800
0001FC03F800
0001FC03F800
0001FC03F800
0001FC03F800
0003FC03F800
0003FC07F800
0003FC07F800
0003F807F000
0003F807F000
0003F807F000
0003F80FF000
01FFFFFFF000
07FFFFFFFFF8
0FFFFFFFFFF8
1FFFFFFFFFF8
3FFFFFFFFFF8
1FFFFFFFFFF0
1FFFFFFFFFF0
000FE03FFFC0
000FE01FC000
000FE01FC000
000FE01FC000
001FE03FC000
001FC03F8000
001FC03F8000
001FC03F8000
1FFFFFFFFFC0
3FFFFFFFFFE0
7FFFFFFFFFC0
7FFFFFFFFFC0
FFFFFFFFFF80
FFFFFFFFFF00
7FFFFFFFFE00
007F80FF0000
007F00FE0000
007F00FE0000
007F00FE0000
007F00FE0000
007F01FE0000
00FF01FE0000
00FF01FE0000
00FE01FC0000
00FE01FC0000
00FE01FC0000
00FE01FC0000
00FE01F80000
007C00F80000
007800700000
001000000000
ENDCHAR
STARTCHAR 0024
ENCODING 36
SWIDTH 532 0
DWIDTH 49 0
BBX 43 69 3 0
BITMAP
00000E000000
00001F000000
00003F000000
00003F800000
00003F800000
00003F800000
00003FF00000
0001FFFF0000
000FFFFFC000
003FFFFFE000
00FFFFFFF000
01FFFFFFF800
03FFFFFFF800
07FFFF1FF800
0FFFFF07F800
1FFE3F01F800
3FF83F01F800
3FF03F01F000
7FE03F00E000
7FC03F000000
7F803F000000
7F803F000000
7F803F000000
7F803F000000
7F803F000000
7FC03F000000
7FC03F000000
3FE07F000000
3FF07F000000
1FFC7F000000
1FFF7F800000
0FFFFFF80000
03FFFFFF8000
01FFFFFFE000
007FFFFFF800
000FFFFFFC00
0001FFFFFF00
00007FFFFF80
00007FFFFF80
00007FFFFFC0
00007F7FFFE0
00007F0FFFE0
00007F01FFE0
00007F00FFE0
00007F007FE0
00007F003FE0
00007F001FE0
00007F001FE0
00007F000FE0
00007F000FE0
38007F000FE0
7C007F001FC0
7E007F001FC0
FE007F001FC0
FF007F003F80
FF807F007F80
FFE07F00FF00
7FF87F03FE00
7FFFFF0FFC00
3FFFFF7FF800
1FFFFFFFF000
0FFFFFFFE000
03FFFFFF8000
00FFFFFE0000
001FFFE00000
00007F000000
00003F000000
00003F000000
00001E000000
ENDCHAR
STARTCHAR 0025
ENCODING 37
SWIDTH 760 0
DWIDTH 70 0
BBX 65 63 3 0
BITMAP
001FE0000001E00000
007FFC000003F00000
01FFFE00000FF00000
07FFFF80001FF00000
0FFFFFC0003FE00000
0FFFFFC0003FC00000
1FF07FE0007F800000
3FC01FF0007F800000
3F800FF000FF000000
7F8007F000FF000000
7F0007F801FE000000
7F0007F801FE000000
FE0003F803FC000000
FE0003F803FC000000
FE0003F807F8000000
FE0003F807F0000000
FE0003F80FF0000000
FE0003F80FE0000000
FF0003F81FE0000000
FF0007F01FC0000000
7F0007F03FC0000000
7F800FE03F80000000
7FC01FE07F80000000
3FF07FC07F00000000
1FFFFF80FF00000000
1FFFFF80FE00000000
0FFFFF01FC00000000
03FFFC01FC00000000
01FFF003F800000000
003FC003F800000000
00000007F000000000
00000007F000000000
0000000FE001FE0000
0000000FE00FFF8000
0000001FC03FFFE000
0000001FC07FFFF000
0000003F80FFFFF800
0000003F81FFFFFC00
0000007F03FE07FE00
0000007F07FC01FE00
000000FE07F800FF00
000000FE0FF000FF00
000001FC0FE0007F80
000001FC0FE0007F80
000003F81FC0003F80
000003F81FC0003F80
000007F01FC0003F80
000007F01FC0003F80
00000FE01FC0003F80
00000FE01FC0003F80
00001FE01FC0003F80
00001FC01FE0007F00
00003FC00FE0007F00
00003F800FF000FF00
00007F800FF000FE00
00007F0007F803FE00
0000FF0007FE07FC00
0000FE0003FFFFF800
0001FE0001FFFFF000
0003FC0000FFFFE000
0003F800007FFFC000
0003F000001FFF0000
0001E0000007F80000
ENDCHAR
STARTCHAR 0026
ENCODING 38
SWIDTH 673 0
DWIDTH 62 0
BBX 62 63 3 0
BITMAP
00000FF800000000
00007FFE00000000
0001FFFF80000000
0007FFFFC0000000
000FFFFFE0000000
003FFFFFE0000000
003FF07FF0000000
007FC01FF0000000
00FF800FF0000000
00FF000FF0000000
00FF000FF0000000
00FF000FF0000000
00FF000FF0000000
00FF000FF0000000
007F801FF0000000
007F803FE0000000
007FC03FE0000000
003FE0FFC0000000
003FF1FF80000000
001FFFFF00000000
000FFFFE00000000
000FFFFC00000000
0007FFF000000000
0003FFE000000000
0007FF8000000000
000FFF0000000000
001FFC0000000000
003FF80000000000
007FE00000000000
00FFC00000000000
03FF000000000000
07FE000000000000
07FC000000000000
0FF8000000000000
1FF0000000070000
3FE00000000FC000
3FC00000001FC000
3FC00000003FC000
7F800000007FC000
7F800000007FC000
7F80000000FFC000
FF00000000FFC000
FF00000001FFC000
FF00000003FF8000
FF00000003FF0000
FF00000007FF0000
FF80000007FF0000
FF8000000FFF8000
7F8000001FFFC000
7FC000001FFFE000
7FE000003FFFF000
3FF00000FFFFF800
3FF80001FFDFFE00
1FFC0007FFCFFF00
1FFF003FFF87FF80
0FFFFFFFFF03FFC0
07FFFFFFFE01FFF0
03FFFFFFFC00FFF8
01FFFFFFF0007FFC
00FFFFFFE0003FFC
003FFFFF00001FFC
000FFFFC000007F0
0000FF80000003C0
ENDCHAR
STARTCHAR 0027
ENCODING 39
SWIDTH 173 0
DWIDTH 16 0
BBX 10 23 3 45
BITMAP
1F00
3F80
7FC0
7FC0
FFC0
FFC0
FFC0
FFC0
FFC0
FFC0
FFC0
7FC0
7F80
7F80
7F80
7F80
7F00
3F00
3F00
3E00
1E00
1E00
0C00
ENDCHAR
STARTCHAR 0028
ENCODING 40
SWIDTH 315 0
DWIDTH 29 0
BBX 23 82 3 -12
BITMAP
0000F0
0003F8
0007F8
000FF8
001FF0
003FE0
003FE0
007FC0
00FFC0
00FF80
01FF00
01FF00
03FE00
03FE00
03FC00
07FC00
07F800
0FF800
0FF000
0FF000
1FF000
1FE000
1FE000
1FE000
3FC000
3FC000
3FC000
3FC000
7F8000
7F8000
7F8000
7F8000
7F8000
7F8000
7F8000
FF8000
FF8000
FF0000
FF0000
FF0000
FF0000
FF8000
FF8000
FF8000
FF8000
FF8000
FF8000
7F8000
7F8000
7F8000
7FC000
7FC000
7FC000
7FC000
3FC000
3FE000
3FE000
3FE000
1FF000
1FF000
1FF000
1FF800
0FF800
0FFC00
0FFC00
07FE00
07FE00
03FF00
03FF80
01FF80
01FFC0
00FFE0
00FFE0
007FF0
007FF8
003FF8
001FFC
000FFE
0007FE
0003FE
0001FC
000078
ENDCHAR
STARTCHAR 0029
ENCODING 41
SWIDTH 315 0
DWIDTH 29 0
BBX 23 82 3 -12
BITMAP
0F0000
1F8000
3FE000
1FF000
1FF000
0FF800
07FC00
07FE00
03FE00
03FF00
01FF00
00FF80
00FF80
007FC0
007FC0
003FC0
003FE0
001FE0
001FE0
000FF0
000FF0
000FF0
0007F8
0007F8
0007F8
0003F8
0003FC
0003FC
0003FC
0003FC
0001FE
0001FE
0001FE
0001FE
0001FE
0001FE
0001FE
0001FE
0001FE
0001FE
0001FE
0001FE
0001FE
0001FE
0001FE
0001FE
0001FE
0003FE
0003FE
0003FE
0003FE
0003FE
0003FC
0007FC
0007FC
0007FC
0007FC
000FF8
000FF8
000FF8
001FF8
001FF0
003FF0
003FF0
007FE0
007FE0
00FFC0
00FFC0
01FFC0
03FF80
03FF80
07FF00
0FFE00
0FFE00
1FFC00
3FF800
3FF800
7FF000
FFE000
FFC000
7F8000
3E0000
ENDCHAR
STARTCHAR 002A
ENCODING 42
SWIDTH 380 0
DWIDTH 35 0
BBX 29 32 3 36
BITMAP
000F8000
000FC000
001FC000
001FC000
001FC000
001FC000
3C1FC0E0
7E0FC1F0
7F0F87F8
FF8F8FF8
FFCF9FF8
7FEFFFF8
3FFFFFF0
0FFFFF80
03FFFE00
00FFF000
00FFF000
03FFFE00
0FFFFF80
3FFFFFF0
7FEFFFF8
FFCFBFF8
FF8F8FF8
7F0F87F8
7E0FC3F0
3C0FC0E0
001FC000
001FC000
001FC000
001FC000
000FC000
000F8000
ENDCHAR
STARTCHAR 002B
ENCODING 43
SWIDTH 521 0
DWIDTH 48 0
BBX 41 43 4 4
BITMAP
00003C000000
00007F000000
00007F000000
00007F000000
00007F000000
00007F000000
00007F000000
00007F000000
00007F000000
00007F000000
00007F000000
00007F000000
00007F000000
00007F000000
00007F000000
00007F000000
00007F000000
00007F000000
3FFFFFFFFF00
7FFFFFFFFF80
FFFFFFFFFF80
FFFFFFFFFF80
FFFFFFFFFF00
FFFFFFFFFF00
7FFFFFFFFC00
00007F000000
00007F000000
00007F000000
00007F000000
00007F000000
00007F000000
00007F000000
00007F000000
00007F000000
00007F000000
00007F000000
00007F000000
00007F000000
00007F000000
00007F000000
00007F000000
00007F000000
00003C000000
ENDCHAR
STARTCHAR 002C
ENCODING 44
SWIDTH 195 0
DWIDTH 18 0
BBX 13 24 3 -12
BITMAP
0F80
3FC0
3FE0
7FF0
7FF8
7FF8
7FF8
7FF8
3FF8
3FF0
1FF0
1FF0
1FF0
3FE0
3FE0
3FC0
3FC0
7FC0
7F80
7F80
FF00
FF00
7E00
3800
ENDCHAR
STARTCHAR 002D
ENCODING 45
SWIDTH 423 0
DWIDTH 39 0
BBX 33 7 3 23
BITMAP
1FFFFFFF00
3FFFFFFF80
7FFFFFFF80
7FFFFFFF00
FFFFFFFF00
FFFFFFFE00
7FFFFFF800
ENDCHAR
STARTCHAR 002E
ENCODING 46
SWIDTH 195 0
DWIDTH 18 0
BBX 12 12 3 0
BITMAP
1F00
3FC0
7FE0
7FF0
FFF0
FFF0
FFF0
7FF0
7FF0
3FE0
1FC0
0F80
ENDCHAR
STARTCHAR 002F
ENCODING 47
SWIDTH 434 0
DWIDTH 40 0
BBX 35 67 3 1
BITMAP
0000000180
0000000FE0
0000001FE0
0000003FC0
0000007FC0
0000007F80
000000FF00
000000FF00
000001FE00
000001FE00
000001FC00
000003FC00
000003FC00
000007F800
000007F800
000007F000
00000FF000
00000FE000
00001FE000
00001FC000
00001FC000
00003FC000
00003F8000
00007F8000
00007F0000
00007F0000
0000FF0000
0000FE0000
0001FE0000
0001FC0000
0001FC0000
0003F80000
0003F80000
0007F80000
0007F00000
0007F00000
000FE00000
000FE00000
001FE00000
001FC00000
001FC00000
003F800000
003F800000
007F800000
007F000000
007F000000
00FE000000
00FE000000
01FC000000
01FC000000
03FC000000
03F8000000
03F8000000
07F0000000
07F0000000
0FF0000000
0FE0000000
1FE0000000
1FE0000000
1FC0000000
3FC0000000
3F80000000
7F80000000
7F00000000
FE00000000
FE00000000
7800000000
ENDCHAR
STARTCHAR 0030
ENCODING 48
SWIDTH 586 0
DWIDTH 54 0
BBX 48 63 4 0
BITMAP
00000FF80000
00007FFF0000
0003FFFFC000
0007FFFFF000
001FFFFFF800
003FFFFFFC00
007FFFFFFE00
00FFFFFFFF00
01FFE01FFF80
03FF8003FFC0
03FE0001FFE0
07FC00007FE0
0FF800003FF0
0FF000001FF0
1FF000000FF8
1FE000000FF8
1FC0000007FC
3FC0000007FC
3FC0000003FC
7F80000003FE
7F80000003FE
7F80000001FE
7F00000001FE
FF00000001FE
FF00000001FF
FF00000001FF
FF00000001FF
FF00000001FF
FF00000001FF
FF00000001FF
FF00000001FF
FF00000001FF
FF00000001FF
FF00000001FF
FF00000001FF
FF00000001FF
FF00000001FF
FF00000001FF
FF80000001FE
FF80000003FE
7F80000003FE
7F80000003FE
7FC0000003FE
7FC0000007FC
3FE0000007FC
3FE0000007FC
3FF000000FF8
1FF000001FF8
1FF800001FF0
1FFC00003FF0
0FFE00007FE0
07FF0000FFE0
07FFC003FFC0
03FFF00FFF80
01FFFFFFFF80
01FFFFFFFF00
00FFFFFFFE00
007FFFFFFC00
003FFFFFF800
000FFFFFE000
0007FFFFC000
0001FFFE0000
00001FF00000
ENDCHAR
STARTCHAR 0031
ENCODING 49
SWIDTH 304 0
DWIDTH 28 0
BBX 22 63 3 -1
BITMAP
0000E0
0003E0
001FF0
007FF8
01FFF8
07FFF8
1FFFF8
3FFFF8
7FFFF8
FFFFF8
FFFFF8
7FDFF8
3C1FF8
001FF8
001FF8
001FF8
001FF0
001FF0
001FF0
001FF0
001FF0
001FF0
001FF0
001FF0
001FF0
001FF0
001FF0
001FF0
001FF0
003FF0
003FE0
003FE0
003FE0
003FE0
003FE0
003FE0
003FE0
003FE0
003FE0
003FE0
003FE0
003FE0
003FE0
003FE0
003FE0
003FE0
003FE0
003FE0
003FE0
003FE0
003FE0
003FE0
003FE0
003FE0
003FE0
003FF0
003FF0
003FF0
007FF0
00FFF8
00FFFC
01FFFC
03FFF8
ENDCHAR
STARTCHAR 0032
ENCODING 50
SWIDTH 565 0
DWIDTH 52 0
BBX 46 63 3 0
BITMAP
00003FE00000
0003FFFC0000
000FFFFF0000
003FFFFFC000
00FFFFFFE000
01FFFFFFF000
07FFFFFFF800
0FFF00FFFC00
1FFC003FFC00
3FF0000FFE00
7FE00007FE00
7FC00003FF00
7F800003FF00
FF000003FF00
FE000003FF00
FE000003FF00
7C000003FF00
38000003FF00
00000003FF00
00000003FF00
00000007FE00
00000007FE00
0000000FFE00
0000000FFC00
0000001FFC00
0000003FF800
0000003FF800
0000007FF000
000000FFE000
000001FFE000
000003FFC000
000003FF8000
000007FF0000
00000FFE0000
00001FFC0000
00003FF80000
00007FF00000
0000FFE00000
0001FFC00000
0003FF800000
0007FF000000
000FFE000000
001FFC000000
001FF8000000
003FE0000000
007FC0000000
00FFC0000000
01FF80000000
03FF00000000
03FE00000000
07FC00000000
0FF800000000
0FF800000000
1FF800000000
3FF07FFF8000
3FFFFFFFFFF0
3FFFFFFFFFF8
7FFFFFFFFFFC
7FFFFFFFFFFC
7FFFFFFFFFFC
7FFFFFFFFFF8
3FFFFFFFFFF0
0FFFFFFFFFC0
ENDCHAR
STARTCHAR 0033
ENCODING 51
SWIDTH 554 0
DWIDTH 51 0
BBX 45 65 3 -2
BITMAP
0000FFC00000
000FFFF80000
003FFFFF0000
00FFFFFF8000
03FFFFFFE000
07FFFFFFF000
0FFFFFFFF800
1FFF83FFF800
3FFC007FFC00
3FF0001FFE00
3FC0000FFE00
3F800007FE00
3E000003FE00
1E000003FE00
00000003FF00
00000003FF00
00000003FE00
00000003FE00
00000003FE00
00000003FE00
00000007FC00
0000000FF800
0000001FF800
0000007FF000
000003FFE000
00003FFFC000
0003FFFF0000
000FFFFE0000
001FFFFC0000
001FFFFF8000
001FFFFFE000
001FFFFFF800
000FFFFFFC00
0000007FFE00
0000001FFF80
00000007FFC0
00000001FFC0
00000000FFE0
000000007FF0
000000003FF0
000000003FF0
000000001FF8
000000001FF8
000000000FF8
000000000FF8
000000000FF8
000000000FF8
3C0000000FF8
7E0000000FF8
FF0000000FF0
FF8000001FF0
FFC000001FF0
FFC000003FE0
FFF000007FE0
7FF80000FFC0
3FFC0001FFC0
3FFF800FFF80
1FFFFFFFFF00
0FFFFFFFFE00
03FFFFFFFC00
01FFFFFFF800
007FFFFFE000
001FFFFF8000
0003FFFE0000
00003F800000
ENDCHAR
STARTCHAR 0034
ENCODING 52
SWIDTH 630 0
DWIDTH 58 0
BBX 52 63 3 0
BITMAP
000000F0000000
000001F8000000
000007F8000000
000007F8000000
00000FF8000000
00001FF8000000
00001FF0000000
00003FF0000000
00003FF0000000
00003FE0000000
00007FE0000000
00007FE0000000
00007FC0000000
0000FFC0000000
0000FF80000000
0000FF80000000
0001FF00080000
0001FF007E0000
0003FE00FF0000
0003FE00FF0000
0003FC01FF0000
0007FC01FF0000
0007F801FF0000
000FF801FF0000
000FF001FF0000
001FF001FF0000
001FE001FF0000
003FE001FF0000
007FC001FF0000
007F8001FF0000
00FF8001FF0000
01FF0001FF0000
01FF0001FF0000
03FE0001FF0000
07FE0001FF0000
07FC0001FF0000
0FFC0001FF0000
1FF80001FF0000
1FF00001FF0000
3FF00003FFFFE0
7FFFFFFFFFFFF0
7FFFFFFFFFFFF0
FFFFFFFFFFFFF0
FFFFFFFFFFFFF0
FFFFFFFFFFFFE0
7FFFFFFFFFFFC0
7FFFFFFFFFFF80
1FFFFFFFFF8200
00000003FE0000
00000003FE0000
00000003FE0000
00000003FE0000
00000001FF0000
00000001FF0000
00000001FF0000
00000001FF0000
00000001FF0000
00000001FF0000
00000000FF0000
00000000FF0000
00000000FE0000
000000007C0000
00000000700000
ENDCHAR
STARTCHAR 0035
ENCODING 53
SWIDTH 543 0
DWIDTH 50 0
BBX 44 64 3 -2
BITMAP
03FFFFFFFF80
07FFFFFFFFC0
0FFFFFFFFFC0
0FFFFFFFFFC0
0FFFFFFFFF80
1FFFFFFFFF00
1FFFFFFFFE00
1FFFFFFFF000
1FF000000000
1FE000000000
1FE000000000
1FC000000000
3FC000000000
3FC000000000
3FC000000000
3FC000000000
3FC000000000
3F8000000000
3F8000000000
3F801FF00000
7F81FFFF0000
7F87FFFFC000
7F9FFFFFF000
7FFFFFFFF800
7FFFFFFFFC00
7FFFFFFFFE00
7FFFFFFFFF00
FFFFC03FFF80
FFFC000FFFC0
FFF00003FFC0
FFC00001FFE0
FF800000FFE0
7E0000007FE0
380000007FF0
000000003FF0
000000003FF0
000000001FF0
000000001FF0
000000001FF0
000000001FF0
000000001FF0
000000001FF0
000000001FF0
000000001FF0
000000001FF0
000000001FE0
000000001FE0
000000003FE0
3C0000003FC0
7E0000007FC0
7F000000FFC0
7F800001FF80
7FC00003FF00
7FE00007FF00
7FF8001FFE00
3FFF00FFFC00
3FFFFFFFF800
1FFFFFFFF800
0FFFFFFFE000
07FFFFFFC000
03FFFFFF8000
00FFFFFE0000
003FFFF80000
0007FFE00000
ENDCHAR
STARTCHAR 0036
ENCODING 54
SWIDTH 565 0
DWIDTH 52 0
BBX 46 64 3 0
BITMAP
000000007E00
0000000FFF80
000000FFFF80
00000FFFFF80
00003FFFFF00
0000FFFFFC00
0003FFFFF000
000FFFFFC000
001FFFFC0000
003FFF800000
007FFC000000
00FFF0000000
00FFC0000000
01FF80000000
03FF00000000
07FE00000000
07FC00000000
0FF800000000
0FF800000000
1FF000000000
1FF000000000
1FF000000000
3FE000000000
3FE01FFE0000
3FE1FFFFC000
7FE7FFFFF000
7FEFFFFFFC00
7FDFFFFFFF00
7FFFFFFFFF80
FFFFFFFFFFC0
FFFFE01FFFE0
FFFF0003FFE0
FFFC0000FFF0
FFF800007FF0
FFF000003FF8
FFE000001FF8
FFE000001FFC
FFE000000FFC
FFC000000FFC
FFC000000FFC
FFC0000007FC
FFC0000007FC
FFC0000007FC
7FC0000007FC
7FC0000007FC
7FE0000007FC
7FE0000007FC
3FE0000007FC
3FF000000FF8
3FF000000FF8
1FF800001FF8
1FFC00001FF0
0FFE00003FF0
0FFF00007FE0
07FFC001FFE0
03FFF80FFFC0
01FFFFFFFF80
00FFFFFFFF00
007FFFFFFE00
003FFFFFFC00
001FFFFFF000
0007FFFFE000
0001FFFF0000
00001FF80000
ENDCHAR
STARTCHAR 0037
ENCODING 55
SWIDTH 543 0
DWIDTH 50 0
BBX 45 63 3 0
BITMAP
00007FFFFFC0
0FFFFFFFFFF0
3FFFFFFFFFF0
7FFFFFFFFFF8
7FFFFFFFFFF8
FFFFFFFFFFF8
FFFFFFFFFFF8
FFFFFFFFFFF0
7FFFE000FFE0
000000007FE0
00000000FFC0
00000000FF80
00000001FF80
00000001FF00
00000003FE00
00000003FE00
00000007FC00
0000000FFC00
0000000FF800
0000001FF000
0000001FF000
0000003FE000
0000003FE000
0000007FC000
0000007FC000
000000FF8000
000000FF8000
000001FF0000
000001FF0000
000003FE0000
000003FE0000
000007FE0000
000007FC0000
00000FFC0000
00000FF80000
00001FF80000
00001FF80000
00003FF00000
00003FF00000
00003FE00000
00007FE00000
00007FE00000
0000FFC00000
0000FFC00000
0001FFC00000
0001FF800000
0003FF800000
0003FF000000
0003FF000000
0007FF000000
0007FE000000
000FFE000000
000FFE000000
000FFC000000
001FFC000000
001FFC000000
003FF8000000
003FF0000000
003FF0000000
003FE0000000
003F80000000
003F00000000
001C00000000
ENDCHAR
STARTCHAR 0038
ENCODING 56
SWIDTH 554 0
DWIDTH 51 0
BBX 46 63 3 0
BITMAP
00003FE00000
0003FFFE0000
000FFFFF8000
003FFFFFE000
00FFFFFFF000
01FFFFFFF800
03FFFFFFFC00
07FF80FFFC00
07FE001FFE00
0FF8000FFE00
1FF00007FF00
1FF00003FF00
3FE00003FF00
3FE00001FF00
3FC00001FF00
3FC00001FF00
3FC00001FF00
3FC00001FF00
3FC00001FF00
3FC00001FE00
3FC00001FE00
1FE00003FC00
1FE00003FC00
0FF00007F800
0FF8000FF000
07FE003FC000
03FF80FF8000
01FFFFFF0000
00FFFFFFC000
007FFFFFF800
007FFFFFFC00
01FFF07FFF00
03FF0007FF80
07FC0001FF80
0FF80000FFC0
1FF000003FE0
3FE000003FE0
3FC000001FF0
7FC000000FF0
7F8000000FF8
7F8000000FF8
FF8000000FF8
FF80000007F8
FF80000007F8
FF80000007FC
FF80000007FC
FF8000000FF8
FFC000000FF8
7FC000000FF8
7FE000001FF8
7FE000001FF0
3FF000003FF0
3FF800007FE0
1FFE0000FFE0
1FFF0003FFC0
0FFFE01FFF80
07FFFFFFFF00
03FFFFFFFE00
01FFFFFFFC00
007FFFFFF000
001FFFFFC000
0007FFFF0000
00007FF00000
ENDCHAR
STARTCHAR 0039
ENCODING 57
SWIDTH 554 0
DWIDTH 51 0
BBX 45 63 3 0
BITMAP
00003FF00000
0003FFFE0000
000FFFFF8000
003FFFFFE000
00FFFFFFF000
01FFFFFFF800
03FFFFFFFC00
07FFC03FFE00
0FFE000FFF00
1FFC0003FF80
1FF00001FF80
3FE00000FFC0
3FE000007FC0
7FC000003FE0
7FC000003FE0
7F8000003FF0
FF8000001FF0
FF8000001FF0
FF8000001FF8
FF0000001FF8
FF0000001FF8
FF0000001FF8
FF8000001FF8
FF8000001FF8
FF8000001FF8
FF8000003FF8
7F8000003FF8
7FC000007FF8
7FE000007FF8
3FE00000FFF8
3FF00001FFF8
1FF80007FFF8
1FFE000FFFF8
0FFF807FFFF0
07FFFFFF9FF0
03FFFFFF1FF0
01FFFFFE3FF0
007FFFF83FE0
001FFFE03FE0
0007FF807FE0
000000007FC0
000000007FC0
00000000FFC0
00000000FF80
00000001FF80
00000003FF00
00000003FF00
00000007FE00
0000000FFE00
0000001FFC00
0000003FF800
000000FFF000
000003FFF000
00001FFFE000
007FFFFFC000
00FFFFFF8000
00FFFFFF0000
01FFFFFE0000
01FFFFF80000
01FFFFF00000
00FFFFC00000
007FFE000000
001FF0000000
ENDCHAR
STARTCHAR 003A
ENCODING 58
SWIDTH 195 0
DWIDTH 18 0
BBX 12 41 3 0
BITMAP
0F80
3FC0
3FE0
7FF0
7FF0
7FF0
7FF0
7FF0
7FF0
3FF0
1FF0
0FE0
0380
0000
0000
0000
0000
0000
0000
0000
0000
0000
0000
0000
0000
0000
0000
0000
1F80
3FC0
7FE0
7FE0
FFE0
FFF0
FFF0
FFF0
7FF0
7FE0
3FE0
3FC0
0F80
ENDCHAR
STARTCHAR 003B
ENCODING 59
SWIDTH 206 0
DWIDTH 19 0
BBX 13 53 3 -12
BITMAP
1F80
3FC0
7FE0
7FE0
FFE0
FFF0
FFF0
FFF0
7FF0
7FE0
3FE0
3FC0
0F80
0000
0000
0000
0000
0000
0000
0000
0000
0000
0000
0000
0000
0000
0000
0000
0000
0F00
1FC0
3FE0
7FF0
7FF8
7FF8
7FF8
7FF8
3FF8
3FF8
1FF0
1FF0
1FF0
1FE0
3FE0
3FE0
3FC0
7FC0
7F80
7F80
FF80
FF00
7E00
3800
ENDCHAR
STARTCHAR 003C
ENCODING 60
SWIDTH 500 0
DWIDTH 46 0
BBX 40 36 3 10
BITMAP
000000003C
00000000FE
00000007FF
0000001FFF
0000007FFF
000003FFFF
00000FFFFC
00007FFFF8
0001FFFFC0
000FFFFE00
003FFFF800
01FFFFC000
07FFFF0000
1FFFF80000
3FFFE00000
7FFF000000
FFFC000000
FFF0000000
FFF0000000
FFFC000000
7FFF800000
3FFFE00000
1FFFFC0000
07FFFF0000
00FFFFE000
003FFFFC00
0007FFFF00
0001FFFFE0
00003FFFF8
00000FFFFC
000001FFFE
0000007FFF
0000000FFF
00000003FF
000000007E
000000001C
ENDCHAR
STARTCHAR 003D
ENCODING 61
SWIDTH 521 0
DWIDTH 48 0
BBX 43 22 3 16
BITMAP
0FFFFFFFFFC0
3FFFFFFFFFC0
7FFFFFFFFFE0
FFFFFFFFFFC0
FFFFFFFFFFC0
7FFFFFFFFFC0
7FFFFFFFFF00
000000000000
000000000000
000000000000
000000000000
000000000000
000000000000
000000000000
000000000000
0FFFFFFFFFC0
3FFFFFFFFFE0
7FFFFFFFFFC0
7FFFFFFFFFC0
7FFFFFFFFF80
7FFFFFFFFF80
3FFFFFFFFE00
ENDCHAR
STARTCHAR 003E
ENCODING 62
SWIDTH 489 0
DWIDTH 45 0
BBX 40 36 3 9
BITMAP
3C00000000
7F00000000
FFC0000000
FFF8000000
FFFE000000
7FFF800000
3FFFF00000
1FFFFC0000
07FFFF8000
00FFFFE000
001FFFFC00
0007FFFF80
0000FFFFE0
00003FFFF8
000007FFFC
000000FFFE
0000003FFF
0000000FFF
0000001FFF
0000007FFE
000001FFFE
00000FFFFC
00003FFFF0
0000FFFFE0
0007FFFF00
003FFFFC00
01FFFFE000
07FFFF8000
1FFFFC0000
3FFFE00000
7FFF800000
FFFC000000
FFF0000000
FF80000000
7E00000000
3800000000
ENDCHAR
STARTCHAR 003F
ENCODING 63
SWIDTH 456 0
DWIDTH 42 0
BBX 36 65 4 1
BITMAP
003FFE0000
01FFFFC000
07FFFFF000
1FFFFFF800
3FFFFFFE00
7FFFFFFF00
FFFFFFFF80
FFE03FFF80
FF0007FFC0
FE0001FFE0
FC0000FFE0
F800007FE0
F800007FE0
F000003FF0
F000003FF0
F000001FF0
F000001FF0
7000001FF0
3000001FF0
0000001FF0
0000001FE0
0000003FE0
0000003FE0
0000007FC0
000000FFC0
000001FF80
000003FF00
00000FFE00
00001FFC00
00003FF800
0000FFF000
0001FFE000
0007FF8000
000FFF0000
001FFC0000
003FF80000
007FF00000
007FC00000
00FF800000
00FF800000
00FF800000
00FF800000
00FF800000
00FF800000
00FF800000
00FF800000
007F000000
0000000000
0000000000
0000000000
0000000000
0000000000
0000000000
0000000000
001F000000
003F800000
007FC00000
00FFC00000
00FFE00000
00FFE00000
00FFE00000
00FFE00000
007FC00000
003FC00000
001F000000
ENDCHAR
STARTCHAR 0040
ENCODING 64
SWIDTH 630 0
DWIDTH 58 0
BBX 52 53 3 4
BITMAP
000003FE000000
00003FFFF00000
0000FFFFFC0000
0003FFFFFF0000
000FFFFFFFC000
001FF801FFE000
003FC0001FF000
007F000007F800
00FC000003FC00
01F8000000FE00
03F00000007F00
07E00000003F00
07C00000001F80
0F800000101F80
1F000000F80FC0
1F0007F8F80FC0
1E003FFEF807C0
3E007FFFF807E0
3C00FC1FF807E0
7C01F007F803E0
7C03E003F803E0
7C07C001F803E0
78078001F803E0
780F8001F803E0
F80F8001F803E0
F80F8000F803E0
F80F8000F803E0
F80F8001F803E0
F80F8001F803E0
F80F8001F803E0
F80F8003F803E0
F807C003F807C0
7807E007FC07C0
7C03F81FFE0FC0
7C01FFFFFFFF80
7C00FFFFFFFF00
3E007FFC7FFE00
3E001FE03FFC00
3F0000000FF000
1F000000000000
1F800000000000
0FC00000000000
07E00000000000
07F000000000F0
03F800000001F0
01FE00000007F0
007F0000001FC0
003FE00000FF80
001FFE001FFE00
0007FFFFFFF800
0001FFFFFFE000
00003FFFFF0000
000003FFE00000
ENDCHAR
STARTCHAR 0041
ENCODING 65
SWIDTH 630 0
DWIDTH 58 0
BBX 55 63 1 0
BITMAP
00000003C00000
0000000FE00000
0000003FF00000
0000007FF00000
0000007FF80000
000000FFF80000
000001FFF80000
000001FFFC0000
000003FFFC0000
000003FFFC0000
000007FFFC0000
000007FBFE0000
00000FFBFE0000
00000FF3FE0000
00001FF1FF0000
00001FE1FF0000
00003FE1FF0000
00003FE0FF8000
00003FC0FF8000
00007FC0FF8000
00007F807FC000
0000FF807FC000
0000FF007FC000
0001FF003FE000
0001FE003FE000
0001FE001FE000
0003FE001FF000
0003FC001FF000
0007FC000FF800
0007F8000FF800
0007F8000FF800
000FF00007FC00
000FF00007FC00
001FF00007FC00
001FE00003FE00
003FE00003FE00
003FFFFFFFFE00
007FFFFFFFFF00
007FFFFFFFFF00
007FFFFFFFFF00
00FFFFFFFFFF80
00FFFFFFFFFF80
01FFFFFFFFFF80
01FFFFFFFFFFC0
03FF800000FFC0
03FE0000007FC0
03FC0000003FE0
07FC0000003FE0
07F80000003FE0
07F80000003FF0
0FF80000001FF0
0FF00000001FF0
1FF00000001FF8
1FE00000000FF8
1FE00000000FFC
3FE00000000FFC
3FC000000007FE
7FC000000007FE
7F8000000003FE
FF0000000003FE
FF0000000001FE
7E0000000001FC
38000000000070
ENDCHAR
STARTCHAR 0042
ENCODING 66
SWIDTH 619 0
DWIDTH 57 0
BBX 50 66 3 0
BITMAP
0003FFF8000000
007FFFFF000000
07FFFFFFC00000
1FFFFFFFF00000
7FFFFFFFF80000
FFFFFFFFFC0000
FFFFFFFFFE0000
FFFF801FFF0000
FFFE0007FF8000
3FFC0001FF8000
1FFC0000FF8000
0FF80000FFC000
0FF800007FC000
0FF800007FC000
0FF800007FC000
0FF800007FC000
0FF800007FC000
0FF800007FC000
0FF800007F8000
0FF800007F8000
1FF80000FF8000
1FF80000FF0000
1FF80001FE0000
1FF80003FE0000
1FF80007FC0000
1FF8000FF80000
1FF8003FF00000
1FF801FFE00000
1FFFFFFF800000
1FFFFFFF800000
1FFFFFFFF00000
1FFFFFFFFE0000
1FFFFFFFFF8000
1FFFFFFFFFE000
1FFFFFFFFFF000
1FFFF81FFFFC00
1FFC0001FFFE00
1FF800003FFE00
1FF800001FFF00
1FF8000007FF80
1FF8000003FF80
1FF8000001FF80
1FF8000001FFC0
1FF8000000FFC0
1FF8000000FFC0
1FF80000007FC0
1FF80000007FC0
1FF80000007FC0
1FF80000007FC0
1FF80000007FC0
1FF80000007FC0
1FF80000007F80
1FF8000000FF80
1FF8000001FF00
1FF8000003FF00
1FF800000FFE00
1FFC00003FFC00
0FFF0000FFF800
0FFFFFFFFFF000
0FFFFFFFFFE000
07FFFFFFFFC000
07FFFFFFFF0000
03FFFFFFFC0000
01FFFFFFF00000
001FFFFF000000
00003FE0000000
ENDCHAR
STARTCHAR 0043
ENCODING 67
SWIDTH 586 0
DWIDTH 54 0
BBX 48 65 3 0
BITMAP
000001FF0000
00001FFFF800
00007FFFFF00
0001FFFFFFC0
0003FFFFFFF0
000FFFFFFFF8
001FFFFFFFFC
003FFFFFFFFE
007FFE03FFFF
00FFF0003FFF
00FFC00007FF
01FF800003FF
03FF000001FF
03FE000001FF
07FC000000FF
0FFC000000FF
0FF8000000FF
0FF0000000FE
1FF0000000FC
1FF000000078
3FE000000000
3FE000000000
3FC000000000
3FC000000000
7FC000000000
7FC000000000
7FC000000000
7FC000000000
7F8000000000
7F8000000000
FF8000000000
FF8000000000
FF8000000000
FF8000000000
FF8000000000
FF8000000000
FF8000000000
FFC000000000
FFC000000000
FFC000000000
FFC000000000
7FC000000000
7FE000000000
7FE000000000
7FE000000000
7FF00000001E
3FF00000003F
3FF00000007F
1FF80000007F
1FFC000000FF
1FFC000001FF
0FFE000003FE
0FFF000007FE
07FFC0000FFE
03FFE0001FFC
01FFF8007FF8
01FFFFFFFFF8
00FFFFFFFFF0
007FFFFFFFE0
001FFFFFFF80
000FFFFFFF00
0003FFFFFC00
0001FFFFF000
00003FFFC000
000003F80000
ENDCHAR
STARTCHAR 0044
ENCODING 68
SWIDTH 641 0
DWIDTH 59 0
BBX 53 63 3 0
BITMAP
01FFFF00000000
1FFFFFFC000000
7FFFFFFF800000
FFFFFFFFF00000
FFFFFFFFFC0000
FFFFFFFFFF0000
FFF000FFFF8000
7FF0000FFFC000
3FF00003FFF000
1FF000007FF800
1FF000001FFC00
1FF000000FFC00
1FE0000007FE00
1FE0000003FF00
1FE0000001FF80
1FE0000000FF80
1FE00000007FC0
1FE00000007FC0
1FE00000003FE0
1FE00000003FE0
1FE00000001FE0
1FE00000001FF0
1FE00000001FF0
1FE00000001FF0
1FE00000000FF0
3FE00000000FF8
3FE00000000FF8
3FE00000000FF8
3FE00000000FF8
3FE00000000FF8
3FE00000000FF8
3FE00000000FF8
3FE00000000FF8
3FE00000000FF8
3FE00000000FF8
3FE00000000FF8
3FE00000001FF8
3FE00000001FF0
3FE00000001FF0
3FE00000001FF0
3FE00000003FF0
3FE00000003FE0
3FE00000003FE0
3FE00000007FE0
3FE00000007FC0
3FE0000000FFC0
3FE0000001FF80
3FE0000001FF80
3FE0000003FF00
3FE0000007FF00
3FE000000FFE00
3FE000003FFC00
3FF800007FF800
3FFE0001FFF000
3FFFC01FFFF000
3FFFFFFFFFC000
3FFFFFFFFF8000
1FFFFFFFFF0000
1FFFFFFFFC0000
03FFFFFFF80000
00FFFFFFC00000
003FFFFF000000
0001FFE0000000
ENDCHAR
STARTCHAR 0045
ENCODING 69
SWIDTH 543 0
DWIDTH 50 0
BBX 44 63 3 0
BITMAP
00007FFFFC00
007FFFFFFF00
0FFFFFFFFF80
7FFFFFFFFF80
7FFFFFFFFF80
FFFFFFFFFF00
7FFFFFFFFE00
7FFFFFE7E000
3FFE00000000
1FF800000000
1FF000000000
0FF000000000
0FF000000000
0FF000000000
0FF000000000
0FF000000000
0FF000000000
0FF000000000
0FF000000000
0FF000000000
0FF000000000
0FF000000000
1FF000000000
1FF000000000
1FF000000000
1FF00007FC00
1FF8FFFFFE00
1FFFFFFFFE00
1FFFFFFFFE00
1FFFFFFFFE00
1FFFFFFFFC00
1FFFFFFFF000
1FFFFFFC0000
1FFF00000000
1FF800000000
1FF000000000
1FF000000000
1FF000000000
1FF000000000
1FF000000000
1FF000000000
1FF000000000
1FF000000000
1FF000000000
1FF000000000
1FF000000000
1FF000000000
1FF000000000
1FF000000000
1FF000000000
1FF000000000
1FF800000000
1FF800000000
0FF8000007E0
0FFF0007FFF0
0FFFFFFFFFF0
0FFFFFFFFFF0
07FFFFFFFFF0
07FFFFFFFFE0
03FFFFFFFFC0
01FFFFFFFF00
007FFFFFF800
0007FFFE0000
ENDCHAR
STARTCHAR 0046
ENCODING 70
SWIDTH 467 0
DWIDTH 43 0
BBX 39 63 3 0
BITMAP
0001FFFFC0
0FFFFFFFF8
7FFFFFFFFC
FFFFFFFFFE
FFFFFFFFFC
FFFFFFFFFC
FFFFFFFFF8
7FFFFFFFC0
7FF8000000
7FF0000000
3FF0000000
3FE0000000
3FE0000000
3FE0000000
3FE0000000
3FE0000000
3FE0000000
3FE0000000
3FE0000000
3FE0000000
3FE0000000
3FE0000000
3FE0000000
3FE0000000
3FE0000000
3FE0000000
3FFFFFFFE0
3FFFFFFFF0
3FFFFFFFF0
3FFFFFFFF0
3FFFFFFFE0
3FFFFFFFC0
3FFFFFFF00
3FFC000000
3FE0000000
3FE0000000
3FE0000000
3FE0000000
3FE0000000
3FE0000000
3FE0000000
3FE0000000
3FE0000000
3FE0000000
3FE0000000
3FE0000000
3FE0000000
3FE0000000
3FE0000000
3FE0000000
3FF0000000
3FF0000000
3FF0000000
3FF0000000
3FF0000000
3FF0000000
3FF8000000
3FF8000000
1FF8000000
1FF8000000
1FF0000000
1FF0000000
0FC0000000
ENDCHAR
STARTCHAR 0047
ENCODING 71
SWIDTH 641 0
DWIDTH 59 0
BBX 54 66 3 -1
BITMAP
000001FFFE0000
00000FFFFFE000
00007FFFFFF800
0000FFFFFFFE00
0003FFFFFFFF00
0007FFFFFFFFC0
000FFFFFFFFFC0
001FFFE01FFFE0
003FFE0000FFE0
007FF800003FE0
00FFF000001FE0
01FFE000001FE0
01FF8000000FE0
03FF8000000FE0
03FF0000000FC0
07FE0000000FC0
0FFC0000000780
0FFC0000000000
0FF80000000000
1FF80000000000
1FF00000000000
3FF00000000000
3FE00000000000
3FE00000000000
7FE00000000000
7FC00000000000
7FC00000000000
7FC00000000000
7FC00000000000
FF800000000000
FF800000000000
FF80003FFFFFE0
FF80007FFFFFF0
FF80007FFFFFF8
FF8000FFFFFFF8
FF8000FFFFFFFC
FF80007FFFFFFC
FF80007FFFFFFC
FF80003FFFFFFC
FF800000000FFC
FF8000000007F8
FF8000000007F8
FFC00000000FF8
7FC00000000FF8
7FC00000000FF8
7FC00000000FF0
7FE00000000FF0
3FE00000001FF0
3FF00000001FF0
3FF00000003FF0
1FF80000003FE0
1FF80000007FE0
0FFC000000FFC0
0FFE000001FFC0
07FF000003FF80
07FFC00007FF00
03FFE0001FFF00
01FFFE00FFFE00
00FFFFFFFFFC00
007FFFFFFFF800
003FFFFFFFF000
000FFFFFFFE000
0007FFFFFF8000
0001FFFFFE0000
00007FFFF80000
000007FFC00000
ENDCHAR
STARTCHAR 0048
ENCODING 72
SWIDTH 619 0
DWIDTH 57 0
BBX 51 65 3 0
BITMAP
0F000000000300
3FC00000001FC0
3FC00000003FE0
7FE00000007FE0
7FE00000007FE0
7FE00000007FC0
7FE00000007FC0
7FC00000007FC0
7FC00000007FC0
7FC00000007FC0
7FC00000007FC0
7FC00000007FC0
7FC00000007FC0
7FC00000007FC0
7FC00000007FC0
7FC00000007F80
7FC00000007F80
7FC00000007F80
7FC00000007F80
7FC00000007F80
7FC00000007F80
FFC00000007F80
FFC0000000FF80
FFC0000000FF80
FFC0000000FF80
FFC0000000FF80
FF80000000FF80
FF80000000FF80
FFBFFFFFFFFF80
FFFFFFFFFFFF80
FFFFFFFFFFFF80
FFFFFFFFFFFF80
FFFFFFFFFFFF80
FFFFFFFFFFFF80
FFFFFFFFFFFF80
FFFFFFFFFFFF80
FF80000000FF80
FF80000000FF80
FF80000000FF80
FF80000000FF80
FF80000000FF80
FF80000000FF80
FF80000000FF80
FF80000000FF80
FFC0000000FF80
FFC0000000FF80
FFC0000000FF80
FFC0000000FF80
FFC0000000FF80
FFC0000000FF80
FFC0000000FF80
FFC0000000FF80
FFC0000000FFC0
FFC0000000FFC0
FFC0000000FFC0
FFC0000000FFC0
FFC0000000FFC0
7FC0000000FFC0
7FC00000007FC0
7FC00000007FC0
7FC00000007FC0
7F800000007FC0
7F800000007FC0
7F000000003F80
3C000000001F00
ENDCHAR
STARTCHAR 0049
ENCODING 73
SWIDTH 271 0
DWIDTH 25 0
BBX 19 63 3 -1
BITMAP
03FF00
3FFFC0
7FFFE0
7FFFE0
FFFFE0
7FFFC0
7FFF80
3FFF00
3FFF00
1FFE00
0FFC00
0FF800
0FF800
0FF800
0FF800
0FF800
0FF800
0FF800
0FF800
0FF800
0FF800
0FF800
0FF800
0FF800
0FF800
1FF800
1FF800
1FF800
1FF800
1FF800
1FF800
1FF800
1FF800
1FF800
1FF800
1FF800
1FF800
1FF800
1FF800
1FF800
1FF800
1FF800
1FF800
1FF800
1FF800
1FF800
1FF800
1FF800
1FF800
1FF800
1FF800
0FF800
0FF800
0FF800
0FFC00
0FFE00
1FFF00
1FFFC0
3FFFE0
7FFFE0
7FFFE0
7FFFE0
7FFF00
ENDCHAR
STARTCHAR 004A
ENCODING 74
SWIDTH 467 0
DWIDTH 43 0
BBX 38 66 3 -1
BITMAP
000003FFF0
00000FFFF8
00001FFFFC
00001FFFF8
00001FFFF8
00000FFFF0
000003FFF0
000000FFE0
0000007FE0
0000007FE0
0000007FE0
0000007FE0
0000007FE0
0000007FE0
0000007FE0
0000007FE0
0000007FE0
0000003FE0
0000003FE0
0000003FE0
0000003FE0
0000003FE0
0000003FE0
0000003FE0
0000003FE0
0000003FE0
0000003FE0
0000003FE0
0000003FE0
0000003FE0
0000003FE0
0000003FE0
0000003FE0
0000003FE0
0000003FE0
0000003FE0
0000003FE0
0000003FE0
0000003FE0
0000003FE0
0000007FE0
0000007FE0
0000007FE0
0000007FE0
0000007FC0
0000007FC0
0800007FC0
1E00007FC0
3E00007FC0
7F00007FC0
7F00007F80
FF80007F80
FF8000FF80
FFC000FF80
7FE000FF00
7FF001FF00
3FFC03FE00
3FFF1FFE00
1FFFFFFC00
0FFFFFF800
07FFFFF000
03FFFFE000
01FFFFC000
007FFF8000
001FFF0000
0003F80000
ENDCHAR
STARTCHAR 004B
ENCODING 75
SWIDTH 576 0
DWIDTH 53 0
BBX 47 64 3 0
BITMAP
070000000000
1FC000000E00
3FE000003F00
3FE000007F80
7FE000007FC0
7FE00000FFC0
7FC00001FFC0
7FC00003FF80
7FC00007FF00
7FC0000FFE00
7FC0001FFC00
7FC0003FF800
7FC0007FF000
7FC000FFE000
7FC001FFC000
7FC003FF8000
FFC007FF0000
FFC00FFE0000
FFC01FFC0000
FFC03FF80000
FFC07FF00000
FFC0FFE00000
FFC1FFC00000
FFC7FF800000
FFCFFF000000
FFDFFE000000
FFFFFC000000
FFFFF8000000
FFFFF0000000
FFFFE0000000
FFFFC0000000
FFFF80000000
FFFFC0000000
FFFFE0000000
FFFFF0000000
FFFFF8000000
FF9FFC000000
FF8FFE000000
FF87FF000000
FF83FF800000
FF81FFC00000
FF80FFE00000
FF807FF00000
FFC03FF80000
FFC01FFC0000
FFC00FFE0000
FFC007FF0000
FFC003FF8000
FFC001FFE000
FFC000FFF000
7FC0007FF800
7FC0003FFC00
7FC0001FFE00
7FC0000FFF80
7FC00007FFC0
7FC00003FFF0
7FC00001FFF8
7FC00000FFFC
7FC000007FFE
7FC000001FFE
7FC000000FFE
3F80000007FC
3F00000001FC
1C0000000070
ENDCHAR
STARTCHAR 004C
ENCODING 76
SWIDTH 489 0
DWIDTH 45 0
BBX 40 65 3 -1
BITMAP
0F00000000
1FC0000000
3FE0000000
7FF0000000
7FF0000000
7FE0000000
7FE0000000
7FE0000000
7FE0000000
7FE0000000
7FE0000000
7FE0000000
7FE0000000
7FE0000000
7FE0000000
7FE0000000
7FE0000000
7FE0000000
7FC0000000
7FC0000000
7FC0000000
7FC0000000
7FC0000000
7FC0000000
7FC0000000
7FC0000000
7FC0000000
7FC0000000
7FC0000000
7FC0000000
7FC0000000
7FC0000000
FFC0000000
FFC0000000
FFC0000000
FFC0000000
FFC0000000
FFC0000000
FFC0000000
FFC0000000
FFC0000000
FFC0000000
FFC0000000
FFC0000000
FFC0000000
FFC0000000
FFC0000000
FFC0000000
FFC0000000
FFC0000000
FFC0000000
FFC0000000
FFC0000000
FFC0000000
7FC0000000
7FE0000000
7FF8000FFC
7FFFFFFFFE
7FFFFFFFFE
3FFFFFFFFF
3FFFFFFFFE
1FFFFFFFFC
0FFFFFFFF8
03FFFFFF80
001FFE0000
ENDCHAR
STARTCHAR 004D
ENCODING 77
SWIDTH 750 0
DWIDTH 69 0
BBX 64 65 3 -1
BITMAP
001C000000001C00
00FF000000007F00
03FF80000000FF80
07FF80000001FFC0
07FFC0000003FFC0
0FFFC0000007FFC0
0FFFE0000007FFE0
0FFFE0000007FFE0
0FFFE000000FFFE0
0FFFF000000FFFE0
0FFFF000000FFFE0
0FFFF000001FFFF0
0FFFF000001FFFF0
0FFFF800001FFFF0
0FFFF800001FFFF0
1FFFF800003FFFF0
1FFFFC00003FFFF0
1FFFFC00003FFFF8
1FF7FC00007FDFF8
1FF7FE00007FCFF8
1FF7FE00007FCFF8
1FE3FE00007F8FF8
1FE3FF0000FF8FF8
3FE3FF0000FF8FFC
3FE1FF0000FF07FC
3FE1FF0000FF07FC
3FE1FF8001FF07FC
3FC0FF8001FE07FC
3FC0FF8001FE07FC
3FC0FFC003FE07FC
3FC07FC003FC03FC
3FC07FC003FC03FE
3FC07FE003FC03FE
3FC07FE007FC03FE
3FC03FE007F803FE
3FC03FF007F803FE
3FC03FF00FF803FE
3F801FF00FF001FE
3F801FF80FF001FE
3F801FF81FF001FE
3F800FF81FE001FE
3F800FFC1FE001FE
3F800FFC3FE001FE
7F8007FC3FC001FE
7F8007FE7FC001FE
7F8007FE7FC001FE
7F8003FEFF8001FF
7F8003FFFF8001FF
7F8003FFFF8001FF
7F8001FFFF8001FF
7F8001FFFF0001FF
7F8001FFFF0001FF
7F8000FFFF0001FF
FF8000FFFE0001FF
FF8000FFFE0001FF
FF80007FFE0001FF
FF80007FFC0001FF
FF80007FFC0001FE
FF80003FFC0001FE
FF80003FF80001FE
FF80001FF80001FE
FF80001FF00000FE
FF00000FF00000FC
FE00000FE00000FC
7C000003C0000078
ENDCHAR
STARTCHAR 004E
ENCODING 78
SWIDTH 630 0
DWIDTH 58 0
BBX 52 63 4 1
BITMAP
000000000007E0
3F800000000FF0
7FC00000001FF0
FFE00000003FF0
FFF00000003FF0
FFF80000003FF0
FFFC0000003FF0
FFFC0000003FF0
FFFE0000003FF0
FFFE0000001FF0
FFFF0000001FF0
FFFF8000001FF0
FFFF8000001FF0
FFFFC000001FF0
FFFFC000001FF0
FFBFE000001FF0
FF9FF000001FF0
FF8FF000001FF0
FF8FF800001FF0
FF87F800001FF0
FF87FC00001FF0
FF03FE00001FE0
FF01FE00001FE0
FF01FF00001FE0
FF00FF80001FE0
FF00FF80001FE0
FF007FC0001FE0
FF003FE0001FE0
FF003FE0001FE0
FF001FF0001FE0
FF000FF8001FE0
FF000FF8001FE0
FF0007FC001FE0
FF0003FE001FE0
FF0003FE001FE0
FF8001FF001FE0
FF8000FF801FE0
FF8000FF801FE0
FF80007FC01FE0
FF80007FE01FE0
FF80003FF01FE0
FF80001FF01FE0
FF80000FF81FE0
FF80000FFC1FE0
FF800007FE1FE0
FF800003FF1FE0
FF800003FF9FE0
FF800001FFDFE0
FF800000FFFFE0
FF800000FFFFF0
FF8000007FFFF0
FF8000003FFFF0
FF8000003FFFF0
FF8000001FFFF0
FF8000000FFFF0
FF80000007FFF0
FF80000003FFF0
FF00000003FFE0
FF00000001FFE0
FE00000000FFC0
FE000000007F80
FC000000000000
78000000000000
ENDCHAR
STARTCHAR 004F
ENCODING 79
SWIDTH 663 0
DWIDTH 61 0
BBX 56 63 3 0
BITMAP
000000FFC00000
00000FFFFC0000
00003FFFFF0000
0000FFFFFFC000
0003FFFFFFF000
0007FFFFFFF800
000FFFFFFFFC00
003FFFFFFFFE00
007FFE007FFF00
007FF0000FFF80
00FFC00003FFC0
01FF800001FFE0
03FF0000007FE0
03FC0000003FF0
07FC0000003FF0
0FF80000001FF8
0FF00000000FF8
1FE00000000FFC
1FE000000007FC
1FC000000007FC
3FC000000007FC
3FC000000003FC
3F8000000003FE
7F8000000003FE
7F8000000003FE
7F8000000003FE
7F0000000003FE
FF0000000003FE
FF0000000003FE
FF0000000001FF
FF0000000001FE
FF0000000001FE
FF0000000003FE
FF0000000003FE
FF0000000003FE
FF0000000003FE
FF0000000003FE
FF0000000003FE
FF8000000003FC
FF8000000007FC
7F8000000007FC
7FC000000007FC
7FC00000000FF8
7FC00000000FF8
3FE00000001FF0
3FE00000001FF0
1FF00000003FE0
1FF80000003FE0
1FF80000007FC0
0FFC000000FFC0
07FE000001FF80
07FF800003FF00
03FFC0000FFF00
01FFF0003FFE00
00FFFE00FFFC00
007FFFFFFFF800
003FFFFFFFF000
001FFFFFFFE000
000FFFFFFF8000
0003FFFFFF0000
0000FFFFFC0000
00003FFFE00000
000007FF000000
ENDCHAR
STARTCHAR 0050
ENCODING 80
SWIDTH 565 0
DWIDTH 52 0
BBX 46 65 3 0
BITMAP
00007FF80000
007FFFFF8000
03FFFFFFF000
1FFFFFFFFC00
3FFFFFFFFE00
7FFFFFFFFF80
FFFFFFFFFFC0
FFFF000FFFE0
FFFC0001FFE0
7FFC0000FFF0
0FFC00003FF8
0FFC00001FF8
0FFC00001FF8
0FFC00000FFC
0FF8000007FC
0FF8000007FC
0FF8000007FC
0FF8000007FC
0FF8000007FC
0FF8000007FC
0FF8000007FC
0FF8000007FC
0FF8000007FC
0FF800000FFC
0FF800000FF8
0FF800000FF8
0FF800001FF8
0FF800003FF0
0FF800007FF0
0FF80000FFE0
0FF80001FFC0
0FF80007FF80
1FF8003FFF00
1FFC01FFFE00
1FFFFFFFFC00
1FFFFFFFF800
1FFFFFFFE000
1FFFFFFF8000
1FFFFFFE0000
1FFFFFF00000
1FFFFF000000
1FF800000000
1FF000000000
1FF000000000
1FF000000000
1FF000000000
1FF000000000
1FF800000000
1FF800000000
1FF800000000
1FF800000000
1FF800000000
1FF800000000
1FF800000000
1FF800000000
1FF800000000
1FF800000000
0FF800000000
0FF800000000
0FF800000000
0FF800000000
0FF800000000
07F800000000
07F000000000
018000000000
ENDCHAR
STARTCHAR 0051
ENCODING 81
SWIDTH 673 0
DWIDTH 62 0
BBX 65 77 3 -14
BITMAP
000000FFC000000000
00000FFFFC00000000
00003FFFFF00000000
0000FFFFFFC0000000
0003FFFFFFF0000000
0007FFFFFFF8000000
000FFFFFFFFC000000
003FFFFFFFFE000000
007FFE00FFFF000000
007FF0000FFF800000
00FFC00003FFC00000
01FF800001FFE00000
03FF000000FFE00000
03FC0000007FF00000
07FC0000003FF00000
0FF80000001FF80000
0FF00000000FF80000
1FE00000000FFC0000
1FE000000007FC0000
1FC000000007FC0000
3FC000000007FC0000
3FC000000003FC0000
3F8000000003FE0000
7F8000000003FE0000
7F8000000003FE0000
7F8000000003FE0000
7F0000000003FE0000
FF0000000003FE0000
FF0000000003FE0000
FF0000000001FF0000
FF0000000001FE0000
FF0000000001FE0000
FF0000000001FE0000
FF0000000003FE0000
FF0000000003FE0000
FF0000C00003FE0000
FF0003F00003FE0000
FF0003F00003FE0000
FF8003F80003FC0000
FF8003FC0007FC0000
7F8003FE0007FC0000
7FC003FF0007FC0000
7FC001FF800FF80000
7FC000FFC00FF80000
3FE0007FE01FF00000
3FE0003FF01FF00000
1FF0001FF83FE00000
1FF8001FF83FE00000
1FF8000FFC7FC00000
0FFC0007FEFFC00000
07FE0003FFFF800000
07FF8003FFFF800000
03FFC001FFFF000000
01FFF000FFFE000000
00FFFE01FFFC000000
007FFFFFFFF8000000
003FFFFFFFF0000000
001FFFFFFFF8000000
000FFFFFFFF8000000
0003FFFFFFFC000000
0000FFFFFFFE000000
00003FFFE3FE000000
000007FF01FF000000
0000000000FF800000
0000000000FFC00700
00000000007FC01F80
00000000003FE07F80
00000000003FF1FF80
00000000001FFFFF80
00000000000FFFFF80
000000000007FFFF00
000000000007FFFE00
000000000003FFFE00
000000000001FFFC00
000000000000FFF800
0000000000007FE000
0000000000000F8000
ENDCHAR
STARTCHAR 0052
ENCODING 82
SWIDTH 608 0
DWIDTH 56 0
BBX 50 63 3 0
BITMAP
000FFFF0000000
01FFFFFF000000
1FFFFFFFE00000
7FFFFFFFFC0000
FFFFFFFFFE0000
FFFFFFFFFF8000
FFFF001FFFC000
7FFC0003FFE000
1FFC0000FFF000
0FFC00007FF000
0FFC00003FF800
0FFC00001FF800
0FF800000FFC00
0FF800000FFC00
0FF800000FFC00
0FF8000007FC00
0FF8000007FC00
0FF8000007FC00
0FF8000007FC00
0FF800000FFC00
0FF800000FFC00
0FF800000FFC00
0FF800001FF800
0FF800001FF800
0FF800003FF000
0FF800007FF000
0FF80001FFE000
1FF80007FFC000
1FF8001FFF8000
1FF800FFFF0000
1FFFFFFFFE0000
1FFFFFFFF80000
1FFFFFFFF00000
1FFFFFFF800000
1FFFFFFE000000
1FFFFFF0000000
1FFFFFC0000000
1FFFFFC0000000
1FFBFFE0000000
1FF9FFF0000000
1FF87FFC000000
1FF03FFE000000
1FF01FFF000000
1FF00FFF800000
1FF003FFC00000
1FF001FFE00000
1FF000FFF80000
1FF8007FFC0000
1FF8001FFE0000
1FF8000FFF0000
1FF80007FF8000
1FF80003FFE000
1FF80001FFF000
1FF80000FFF800
1FF800003FFC00
0FF800001FFE00
0FF800000FFF00
0FF8000007FF80
0FF8000003FFC0
0FF0000001FFC0
0FF0000000FFC0
07E00000003F80
03C00000001E00
ENDCHAR
STARTCHAR 0053
ENCODING 83
SWIDTH 586 0
DWIDTH 54 0
BBX 48 65 3 -2
BITMAP
000007FF0000
00007FFFE000
0003FFFFF800
000FFFFFFE00
003FFFFFFE00
00FFFFFFFF00
01FFFFFFFF80
03FFE00FFF80
07FF0001FF80
0FFC00007F80
1FF800003F80
1FF000003F00
3FE000003F00
3FE000003C00
7FC000003800
7FC000000000
7FC000000000
7FC000000000
7FC000000000
7FE000000000
7FE000000000
7FF000000000
3FFC00000000
3FFE00000000
3FFFC0000000
1FFFFC000000
0FFFFFC00000
07FFFFFE0000
03FFFFFFE000
01FFFFFFFC00
007FFFFFFF00
000FFFFFFF80
0001FFFFFFE0
00003FFFFFF0
000001FFFFF8
0000000FFFFC
00000001FFFC
000000007FFE
000000001FFE
000000000FFF
0000000007FF
0000000003FF
0000000001FF
0000000001FF
0000000001FF
0000000001FF
0000000001FF
0000000001FE
3C00000001FE
7E00000003FE
7E00000007FC
FF00000007FC
FF8000000FFC
FF8000003FF8
FFE00000FFF8
7FF80003FFF0
7FFF003FFFE0
3FFFFFFFFFC0
1FFFFFFFFF80
0FFFFFFFFF00
07FFFFFFFC00
01FFFFFFF000
007FFFFFC000
001FFFFE0000
00007E000000
ENDCHAR
STARTCHAR 0054
ENCODING 84
SWIDTH 608 0
DWIDTH 56 0
BBX 49 63 4 0
BITMAP
0700003FFFFF00
1FFFFFFFFFFF80
3FFFFFFFFFFF80
7FFFFFFFFFFF80
FFFFFFFFFFFF80
FFFFFFFFFFFF00
FFFFFFFFFFFE00
FFFFFFFFFFF800
3FFFFFFE0E0000
00001FF8000000
00001FF8000000
00001FF8000000
00001FF8000000
00001FF0000000
00001FF0000000
00001FF0000000
00001FF0000000
00001FF0000000
00001FF0000000
00001FF0000000
00001FF0000000
00001FF0000000
00001FF0000000
00001FF0000000
00001FF0000000
00001FF0000000
00001FF0000000
00001FF0000000
00001FF0000000
00001FF0000000
00001FF0000000
00001FF0000000
00001FF0000000
00001FF0000000
00001FF0000000
00001FF0000000
00001FF0000000
00001FF0000000
00001FF0000000
00001FF0000000
00001FF0000000
00001FF0000000
00001FF0000000
00001FF0000000
00001FF0000000
00001FF0000000
00001FF0000000
00001FF0000000
00001FF0000000
00001FF0000000
00001FF8000000
00001FF8000000
00001FF8000000
00001FF8000000
00001FF8000000
00001FF8000000
00000FF8000000
00000FF8000000
00000FF8000000
00000FF8000000
00000FF0000000
000007C0000000
00000380000000
ENDCHAR
STARTCHAR 0055
ENCODING 85
SWIDTH 630 0
DWIDTH 58 0
BBX 52 65 3 0
BITMAP
00000000000780
0F800000001FE0
3FC00000003FE0
7FC00000003FF0
7FC00000007FF0
FFC00000007FF0
FFC00000003FF0
FFC00000003FE0
7FC00000003FE0
7FC00000003FE0
7FC00000003FE0
7FC00000003FE0
FFC00000003FE0
FFC00000003FE0
FFC00000003FE0
FF800000003FE0
FF800000003FE0
FF800000003FE0
FF800000003FE0
FF800000007FE0
FF800000007FE0
FF800000007FC0
FF800000007FC0
FF800000007FC0
FF800000007FC0
FF800000007FC0
FF800000007FC0
FF800000007FC0
FF800000007FC0
FF800000007FC0
FF800000007FC0
FF800000007FC0
FF800000007FC0
FF800000007FC0
FF800000007FC0
FF800000007FC0
FF80000000FFC0
FF80000000FFC0
FF80000000FFC0
FF80000000FFC0
FF80000000FFC0
FF80000000FF80
FF80000000FF80
7F80000000FF80
7FC0000001FF80
7FC0000001FF80
7FC0000001FF00
7FC0000003FF00
7FE0000003FF00
3FE0000003FE00
3FF0000007FE00
3FF0000007FE00
1FF800000FFC00
1FFC00001FFC00
0FFE00003FF800
07FF00007FF000
07FFC000FFF000
03FFF807FFE000
01FFFFFFFFC000
00FFFFFFFF8000
007FFFFFFF0000
001FFFFFFE0000
0007FFFFF80000
0001FFFFE00000
00001FFE000000
ENDCHAR
STARTCHAR 0056
ENCODING 86
SWIDTH 597 0
DWIDTH 55 0
BBX 52 63 2 0
BITMAP
000000000003C0
3E000000000FE0
FF000000001FF0
FF000000003FF0
FF800000003FE0
FF800000007FE0
FF800000007FC0
FFC0000000FFC0
7FC0000000FFC0
7FC0000001FF80
7FE0000001FF80
3FE0000001FF00
3FE0000003FF00
3FF0000003FE00
1FF0000003FE00
1FF0000007FE00
0FF8000007FC00
0FF8000007FC00
0FFC00000FFC00
07FC00000FF800
07FC00000FF800
03FE00000FF800
03FE00001FF000
03FE00001FF000
01FF00001FE000
01FF00003FE000
01FF00003FE000
00FF80003FE000
00FF80003FC000
00FF80007FC000
007FC0007FC000
007FC0007F8000
007FE000FF8000
003FE000FF0000
003FE000FF0000
003FF001FF0000
001FF001FE0000
001FF001FE0000
000FF803FE0000
000FF803FC0000
000FF803FC0000
0007FC07FC0000
0007FC07F80000
0007FE07F80000
0003FE0FF80000
0003FE0FF00000
0001FF1FF00000
0001FF1FF00000
0001FF9FE00000
0000FFBFE00000
0000FFFFE00000
0000FFFFC00000
00007FFFC00000
00007FFF800000
00003FFF800000
00003FFF800000
00001FFF000000
00001FFF000000
00000FFE000000
00000FFC000000
000007F8000000
000003F0000000
000001E0000000
ENDCHAR
STARTCHAR 0057
ENCODING 87
SWIDTH 923 0
DWIDTH 85 0
BBX 81 63 2 1
BITMAP
1E00000001C00000001F00
3F00000003E00000007F80
7F80000007F0000000FF80
FF8000000FF8000000FF80
FFC000000FF8000001FF80
FFC000001FFC000001FF80
FFC000003FFC000001FF00
7FE000003FFC000001FF00
7FE000007FFE000003FF00
7FE000007FFE000003FE00
7FE00000FFFE000003FE00
3FF00000FFFE000003FE00
3FF00001FFFF000007FC00
3FF00001FFFF000007FC00
1FF00001FFFF000007FC00
1FF80001FEFF000007FC00
1FF80003FEFF80000FF800
1FF80003FCFF80000FF800
0FF80003FC7F80000FF800
0FFC0003FC7F80000FF800
0FFC0003F87FC0001FF000
0FFC0007F83FC0001FF000
07FC0007F83FC0001FF000
07FC0007F83FC0001FE000
07FE0007F81FE0003FE000
07FE0007F01FE0003FE000
03FE000FF01FE0003FE000
03FE000FF01FF0003FC000
03FF000FF00FF0003FC000
03FF000FE00FF0007FC000
01FF001FE00FF0007F8000
01FF001FE00FF8007F8000
01FF801FE007F8007F8000
01FF801FC007F800FF8000
00FF803FC007F800FF0000
00FF803FC003FC00FF0000
00FFC03FC003FC00FF0000
00FFC03F8003FC01FF0000
007FC07F8003FE01FE0000
007FC07F8001FE01FE0000
007FE07F0001FE01FE0000
003FE07F0001FE03FE0000
003FE0FF0000FF03FC0000
003FF0FF0000FF03FC0000
003FF0FE0000FF03FC0000
001FF1FE0000FF87F80000
001FF9FE00007F87F80000
001FF9FC00007F87F80000
000FFBFC00007FC7F80000
000FFFFC00003FCFF00000
000FFFF800003FCFF00000
000FFFF800003FEFF00000
0007FFF800001FFFF00000
0007FFF800001FFFE00000
0007FFF000001FFFE00000
0003FFF000000FFFE00000
0003FFF000000FFFC00000
0003FFF000000FFFC00000
0001FFE0000007FF800000
0001FFE0000007FF000000
0000FFC0000003FF000000
00007F80000001FE000000
00003E00000000F8000000
ENDCHAR
STARTCHAR 0058
ENCODING 88
SWIDTH 619 0
DWIDTH 57 0
BBX 54 63 1 0
BITMAP
03C000000007C0
0FE00000001FF0
1FF00000003FF0
1FF80000003FF0
1FF80000007FE0
0FFC000000FFE0
07FE000000FFC0
07FE000001FF80
03FF000003FF00
01FF800003FE00
01FF800007FE00
00FFC00007FC00
007FE0000FF800
003FE0001FF000
003FF0001FF000
001FF8003FE000
000FF8007FC000
0007FC00FFC000
0007FE00FF8000
0003FF01FF0000
0001FF03FE0000
0000FF87FE0000
0000FFC7FC0000
00007FEFF80000
00003FFFF80000
00001FFFF00000
00001FFFE00000
00000FFFE00000
000007FFC00000
000003FF800000
000003FF000000
000007FF800000
00000FFFC00000
00000FFFC00000
00001FFFE00000
00003FFFF00000
00007FFFF80000
00007FEFFC0000
0000FFCFFC0000
0001FF87FE0000
0001FF83FF0000
0003FF03FF0000
0007FE01FF8000
000FFC00FFC000
000FFC007FE000
001FF8007FF000
003FF0003FF800
007FE0001FF800
007FE0001FFC00
00FFC0000FFE00
01FF800007FF00
01FF800007FF80
03FF000003FFC0
07FE000001FFC0
0FFE000000FFE0
0FFC000000FFF0
1FF80000007FF8
3FF80000003FF8
7FF00000001FFC
7FE00000001FFC
FFC00000000FFC
7F8000000007F8
7E0000000001E0
ENDCHAR
STARTCHAR 0059
ENCODING 89
SWIDTH 597 0
DWIDTH 55 0
BBX 51 68 2 -3
BITMAP
00000000000780
00000000000FC0
00000000001FE0
1C000000003FE0
7E000000007FE0
FF000000007FE0
FF80000000FFC0
FF80000000FFC0
FFC0000001FF80
7FC0000001FF80
7FE0000001FF00
3FF0000003FE00
3FF0000003FE00
1FF8000007FC00
1FF8000007FC00
0FFC00000FF800
0FFE00001FF000
07FE00001FF000
07FF00003FE000
03FF00003FE000
01FF80007FC000
01FFC0007F8000
00FFC000FF8000
007FE001FF0000
007FF001FF0000
003FF003FE0000
001FF803FE0000
001FFC07FC0000
000FFC0FF80000
0007FE0FF80000
0003FF1FF00000
0003FFBFF00000
0001FFFFE00000
0000FFFFE00000
00007FFFC00000
00003FFFC00000
00001FFF800000
00000FFF800000
00000FFF000000
000007FF000000
000007FF000000
000007FF000000
000007FE000000
000007FE000000
000007FE000000
000007FE000000
000007FE000000
000007FE000000
000007FE000000
000007FE000000
000007FE000000
000007FE000000
000007FE000000
000007FE000000
000007FE000000
000007FE000000
000007FE000000
000007FE000000
000007FE000000
000007FE000000
000007FE000000
000007FE000000
000007FE000000
000007FC000000
000007FC000000
000007F8000000
000007F0000000
000003C0000000
ENDCHAR
STARTCHAR 005A
ENCODING 90
SWIDTH 630 0
DWIDTH 58 0
BBX 52 63 3 0
BITMAP
07FFFFFFFFE000
1FFFFFFFFFFC00
3FFFFFFFFFFF00
7FFFFFFFFFFF80
7FFFFFFFFFFFC0
FFFFFFFFFFFFC0
FFFFFFFFFFFFC0
7FFFFFFFFFFF80
000000000FFF00
000000001FFE00
000000001FFC00
000000003FF800
000000007FF000
00000000FFE000
00000001FFC000
00000003FF8000
00000007FF0000
00000007FF0000
0000000FFE0000
0000001FFC0000
0000003FF80000
0000007FF00000
0000007FE00000
000000FFC00000
000001FFC00000
000003FF800000
000003FF000000
000007FE000000
00000FFC000000
00000FFC000000
00001FF8000000
00003FF0000000
00007FE0000000
00007FE0000000
0000FFC0000000
0001FF80000000
0003FF00000000
0003FF00000000
0007FE00000000
000FFC00000000
000FFC00000000
001FF800000000
003FF000000000
007FF000000000
007FE000000000
00FFC000000000
01FFC000000000
01FF8000000000
03FF8000000000
07FF0000000000
0FFE0000000000
0FFE0000000000
1FFC0000000000
3FF80000000000
3FF80000000000
7FFFFFFFFFFFE0
7FFFFFFFFFFFF0
7FFFFFFFFFFFF0
7FFFFFFFFFFFF0
7FFFFFFFFFFFF0
7FFFFFFFFFFFE0
3FFFFFFFFFFF80
0FFFFFFFFFFC00
ENDCHAR
STARTCHAR 005B
ENCODING 91
SWIDTH 304 0
DWIDTH 28 0
BBX 23 82 3 -11
BITMAP
03FFF8
1FFFFC
7FFFFC
7FFFFC
7FFFFC
7FFFFC
7FFFF8
7FFFE0
7FE000
7FE000
7FE000
7FE000
7FC000
7FC000
7FC000
7FC000
7FC000
7FC000
7FC000
7FC000
7FC000
7FC000
FFC000
FFC000
FFC000
FF8000
FF8000
FF8000
FF8000
FF8000
FF8000
FF8000
FF8000
FF8000
FF8000
FF8000
FF8000
FF8000
FF8000
FF8000
FF8000
FF8000
FF8000
FF8000
FF8000
FF8000
FF8000
FF8000
FF8000
FF8000
FF8000
FF8000
FF8000
FF8000
FF8000
FF8000
FF8000
FF8000
FF8000
FF8000
FF8000
FF8000
FFC000
FFC000
FFC000
FFC000
FFC000
FFC000
FFC000
FFC000
FFC000
FFC000
FFC000
FFC000
FFFFF8
FFFFFC
FFFFFC
FFFFFE
7FFFFC
7FFFFC
3FFFF8
1FFFE0
ENDCHAR
STARTCHAR 005C
ENCODING 92
SWIDTH 434 0
DWIDTH 40 0
BBX 35 67 3 1
BITMAP
3000000000
FE00000000
FF00000000
7F80000000
7FC0000000
3FC0000000
1FE0000000
1FE0000000
0FF0000000
0FF0000000
07F0000000
07F8000000
07F8000000
03FC000000
03FC000000
01FC000000
01FE000000
00FE000000
00FF000000
007F000000
007F000000
007F800000
003F800000
003FC00000
001FC00000
001FC00000
000FE00000
000FE00000
000FF00000
0007F00000
0007F00000
0003F80000
0003F80000
0003FC0000
0001FC0000
0001FC0000
0000FE0000
0000FE0000
0000FF0000
00007F0000
00007F0000
00003F8000
00003F8000
00001FC000
00001FC000
00001FC000
00000FE000
00000FE000
000007F000
000007F000
000007F800
000003F800
000003F800
000001FC00
000001FC00
000001FE00
000000FE00
000000FF00
000000FF00
0000007F80
0000007F80
0000003F80
0000003FC0
0000001FC0
0000000FE0
0000000FE0
00000003C0
ENDCHAR
STARTCHAR 005D
ENCODING 93
SWIDTH 304 0
DWIDTH 28 0
BBX 22 82 4 -11
BITMAP
3FFF00
7FFFE0
FFFFF8
FFFFF8
FFFFF8
7FFFF8
3FFFF8
0FFFF8
001FF8
000FF8
000FF8
000FF8
000FF8
000FF8
000FF8
000FF8
000FF8
000FF8
000FF8
000FF8
000FF8
000FF8
000FFC
0007FC
0007FC
0007FC
0007FC
0007FC
0007FC
0007FC
0007FC
0007FC
0007FC
0007FC
0007FC
0007FC
0007FC
0007FC
0007FC
0007FC
0007FC
0007FC
0007FC
0007FC
0007FC
0007FC
0007FC
0007FC
0007FC
0007FC
0007FC
0007FC
0007FC
0007FC
0007FC
0007FC
0007FC
0007FC
0007FC
0007FC
0007FC
0007FC
0007FC
0007FC
000FFC
000FFC
000FFC
000FFC
000FFC
000FFC
000FFC
000FFC
000FFC
000FFC
7FFFFC
FFFFFC
FFFFFC
FFFFFC
FFFFF8
FFFFF8
3FFFF0
0FFFE0
ENDCHAR
STARTCHAR 005E
ENCODING 94
SWIDTH 434 0
DWIDTH 40 0
BBX 34 25 3 41
BITMAP
0001C00000
0007F00000
000FF80000
001FFC0000
001FFC0000
003FFE0000
007FFF0000
007FFF0000
00FFFF8000
01FF7FC000
01FF3FC000
03FE1FE000
07FC1FF000
07FC0FF000
0FF807F800
0FF807FC00
1FF003FE00
1FE003FE00
3FE001FF00
7FC001FF00
7FC000FF80
FF8000FFC0
FF80007FC0
7F00003FC0
3E00000F00
ENDCHAR
STARTCHAR 005F
ENCODING 95
SWIDTH 706 0
DWIDTH 65 0
BBX 60 7 3 -22
BITMAP
1FFFFFFFFFFFFFE0
7FFFFFFFFFFFFFF0
7FFFFFFFFFFFFFF0
FFFFFFFFFFFFFFF0
FFFFFFFFFFFFFFF0
7FFFFFFFFFFFFFE0
3FFFFFFFFFFFFFC0
ENDCHAR
STARTCHAR 0060
ENCODING 96
SWIDTH 228 0
DWIDTH 21 0
BBX 16 16 3 51
BITMAP
1800
7E00
7F00
FF80
FFC0
FFE0
7FF0
3FF0
3FF8
1FFC
0FFC
03FE
01FE
00FE
003F
000E
ENDCHAR
STARTCHAR 0061
ENCODING 97
SWIDTH 467 0
DWIDTH 43 0
BBX 38 48 3 0
BITMAP
0007FFE000
003FFFF800
00FFFFFE00
03FFFFFF00
07FFFFFF80
0FFFFFFFC0
1FFFFFFFC0
3FFC00FFE0
3FE0003FE0
3F80001FF0
3F00001FF0
1E00000FF0
0000000FF0
00000007F0
00000007F0
00000007F0
0007FF07F0
007FFFE7F0
01FFFFF7F0
03FFFFFFF0
07FFFFFFF0
0FFFFFFFF0
1FFFFFFFF0
3FFFFFFFF0
3FFE01FFF0
7FF8003FF0
7FE0001FF0
7FC0000FF0
FF800007F0
FF000007F0
FF000007F0
FE000007F0
FE000007F0
FE000007F0
FE00000FF0
FE00000FF0
FE00000FF0
FF00001FF0
7F00001FF8
7F80003FF8
7FC000FFF8
3FE001FFF8
1FF80FF7F8
1FFFFFE7FC
0FFFFFC7FC
03FFFF03F8
01FFFC01F0
001FE000E0
ENDCHAR
STARTCHAR 0062
ENCODING 98
SWIDTH 521 0
DWIDTH 48 0
BBX 42 64 3 -1
BITMAP
030000000000
0FE000000000
1FC000000000
3FC000000000
3FC000000000
3FC000000000
3FC000000000
3FC000000000
3FC000000000
7FC000000000
7FC000000000
7FC000000000
7FC000000000
7FC000000000
7FC000000000
7FC000000000
7FC000000000
7FC000000000
7FC000000000
7FC007C00000
7FC07FFC0000
7FC1FFFF0000
7FC7FFFFC000
7FCFFFFFE000
7FFFFFFFF000
7FFF801FF800
7FFF0007FC00
7FFC0003FE00
7FF80001FE00
7FF00000FF00
7FE00000FF00
7FE000007F80
7FC000007F80
7FC000007FC0
7FC000003FC0
7FC000003FC0
7FC000003FC0
7FC000003FC0
7FC000003FC0
7FC000003FC0
7FC000003FC0
7FC000003FC0
7FC000003FC0
7FC000003FC0
7FC000003FC0
7FC000003FC0
7FC000007FC0
FFC000007FC0
FFC00000FF80
FFE00000FF80
FFE00001FF80
FFF00001FF00
FFF80003FF00
FFFC0007FE00
FFFF001FFC00
FFFFC07FFC00
FFFFFFFFF800
FFFFFFFFF000
FEFFFFFFE000
FEFFFFFFC000
FE7FFFFF0000
FE3FFFFE0000
7E0FFFF80000
7E01FF800000
ENDCHAR
STARTCHAR 0063
ENCODING 99
SWIDTH 467 0
DWIDTH 43 0
BBX 37 47 3 -2
BITMAP
00003F0000
0003FFF000
000FFFFC00
001FFFFE00
007FFFFF80
00FFFFFF80
01FFFFFFC0
03FF81FFC0
07FE007FE0
07FC003FC0
0FF8001FC0
0FF0000F80
1FF0000F00
1FE0000000
3FC0000000
3FC0000000
7FC0000000
7F80000000
7F80000000
7F80000000
FF80000000
FF00000000
FF00000000
FF00000000
FF00000000
FF00000000
FF00000000
FF80000000
FF80000000
7F80000000
7F80000000
7FC0000000
7FC0000000
3FC0000000
3FE00000F0
3FF00001F8
1FF80003F8
1FFC0007F8
0FFE001FF8
07FFC0FFF0
03FFFFFFF0
03FFFFFFE0
00FFFFFFC0
007FFFFF80
003FFFFE00
000FFFF800
0003FFE000
ENDCHAR
STARTCHAR 0064
ENCODING 100
SWIDTH 521 0
DWIDTH 48 0
BBX 43 66 3 0
BITMAP
000000000F00
000000003F80
000000007FC0
000000007FC0
000000007FC0
000000007FC0
000000007FC0
000000007FC0
000000007FC0
000000007FC0
000000007FC0
000000007FC0
000000007FC0
000000007FC0
000000007FC0
000000007FC0
000000007FC0
000000007FC0
000000007FC0
000000007F80
00007FC07F80
0003FFF07F80
000FFFFC7F80
003FFFFF7F80
007FFFFFFF80
00FFFFFFFF80
01FFFFFFFF80
03FFC07FFF80
07FE001FFF80
0FF80007FF80
0FF00007FF80
1FF00003FF80
1FE00001FF80
3FC00001FF80
3FC00000FF80
7F800000FF80
7F800000FF80
7F8000007F80
7F8000007F80
FF0000007F80
FF0000007F80
FF0000007F80
FF0000007F80
FF0000007F80
FF0000007F80
FF0000007F80
FF0000007F80
FF0000007F80
FF000000FF80
FF800000FF80
7F800000FF80
7F800001FF80
7FC00001FF80
3FE00003FF80
3FE00003FFC0
1FF00007FFC0
1FF8000FFFC0
0FFE003FFFC0
0FFF81FFFFC0
07FFFFFFFFC0
03FFFFFEFFE0
01FFFFFCFFE0
007FFFF87FC0
003FFFE03F80
0007FF800E00
000030000000
ENDCHAR
STARTCHAR 0065
ENCODING 101
SWIDTH 510 0
DWIDTH 47 0
BBX 42 45 3 0
BITMAP
00007FC00000
0003FFF80000
000FFFFE0000
003FFFFF8000
007FFFFFC000
00FFFFFFE000
01FFFFFFE000
03FF81FFF000
07FE003FF000
0FFC001FF800
0FF8000FF800
1FF0000FF800
1FE00007F800
3FE00007F800
3FC0000FF800
7FC0000FF800
7F80000FF000
7F80001FF000
7F80003FE000
7F00007FE000
FF0003FFC000
FF007FFF0000
FFFFFFFE0000
FFFFFFF00000
FFFFFF800000
FFFFFC000000
FFFF00000000
FF8000000000
7F8000000000
7FC000000000
7FC000000780
7FC000000F80
3FE000001FC0
3FF000003FC0
1FF800007F80
1FFC0000FF80
0FFF0003FF00
0FFFC01FFF00
07FFFFFFFE00
03FFFFFFF800
01FFFFFFF000
007FFFFFC000
003FFFFF0000
0007FFFC0000
0000FFC00000
ENDCHAR
STARTCHAR 0066
ENCODING 102
SWIDTH 413 0
DWIDTH 38 0
BBX 35 68 3 -2
BITMAP
000007FE00
00003FFF80
00007FFFC0
0000FFFFE0
0001FFFFE0
0003FFFFE0
0007FFFFE0
0007FE07E0
000FFC03E0
000FF801E0
001FF001E0
001FF00080
001FF00000
001FE00000
003FE00000
003FE00000
003FE00000
003FE00000
003FE00000
003FE00000
003FE00000
003FE00000
01FFFFFC00
3FFFFFFE00
7FFFFFFE00
7FFFFFFE00
FFFFFFFE00
FFFFFFFC00
FFFFFFF000
7FFFF80000
007FE00000
007FC00000
007FC00000
007FC00000
007FC00000
007FC00000
007FC00000
007FC00000
007FC00000
007FC00000
007FC00000
007FC00000
007FC00000
007FC00000
007FC00000
007FC00000
007FC00000
007FC00000
007FC00000
007FC00000
007FC00000
007FC00000
007FC00000
007FC00000
007FC00000
007FC00000
007FC00000
007FC00000
007FC00000
007FC00000
007FC00000
007FE00000
007FE00000
003FC00000
003FC00000
003F800000
003F800000
001E000000
ENDCHAR
STARTCHAR 0067
ENCODING 103
SWIDTH 500 0
DWIDTH 46 0
BBX 40 67 3 -21
BITMAP
00007FF01E
0003FFFC3F
000FFFFE7F
001FFFFFFF
007FFFFFFF
00FFFFFFFF
01FFF9FFFF
03FF803FFF
07FE000FFF
07FC0007FF
0FF80003FF
1FF00003FF
1FE00003FF
3FE00001FF
3FC00001FE
3FC00001FE
7FC00001FE
7F800001FE
7F800001FE
7F800001FE
FF800001FE
FF800001FE
FF000001FE
FF000001FE
FF000001FE
FF800001FE
FF800001FE
FF800001FC
7F800003FC
7F800003FC
7F800003FC
7FC00007FC
3FC00007FC
3FE0000FFC
3FF0000FFC
1FF8001FFC
1FFC003FFC
0FFF007FFC
07FFFFFFFC
03FFFFFFFC
01FFFFFFFC
00FFFFFFFC
007FFFFFFC
001FFFFBFC
0003FF83FC
00000003FC
00000003FC
00000003FC
00000003FC
0E000003FC
3F800003FC
3F800007FC
7FC00007FC
3FC00007FC
3FE00007FC
3FF0000FF8
3FF8001FF8
1FFC003FF8
0FFF00FFF0
0FFFFFFFF0
07FFFFFFE0
03FFFFFFE0
00FFFFFFC0
007FFFFF80
001FFFFF00
0007FFFC00
0000FFC000
ENDCHAR
STARTCHAR 0068
ENCODING 104
SWIDTH 500 0
DWIDTH 46 0
BBX 41 63 3 1
BITMAP
1FC000000000
7FC000000000
7FC000000000
7FC000000000
7FC000000000
7FC000000000
7FC000000000
7FC000000000
7FC000000000
7FC000000000
7FC000000000
7FC000000000
7FC000000000
7FC000000000
7FC000000000
7FC000000000
7FC000000000
7FC000000000
7FC003FC0000
7FC01FFF8000
7FC07FFFC000
7FC0FFFFF000
7FC1FFFFF800
7FC3FFFFF800
7FC7FFFFFC00
7FCFF81FFE00
7FDFC00FFE00
7FFF8007FE00
7FFF0003FF00
7FFE0003FF00
7FFC0001FF00
7FF80001FF00
7FF80001FF00
FFF00001FF00
FFF00001FF00
FFF00001FF00
FFE00001FF00
FFE00001FF00
FFE00001FF00
FFE00001FF00
FFC00001FF00
FFC00001FF00
FFC00001FF00
FFC00001FF00
FFC00001FF00
FFC00001FF00
FFC00001FF00
FFC00001FF00
FFC00001FF00
FFC00001FF00
FFC00001FF00
FFC00001FF00
FFC00001FF00
FF800001FF00
FF800001FF80
FF800001FF80
FF800000FF80
FF800000FF80
FF800000FF80
7F800000FF80
7F0000007F00
7F0000007C00
3E0000003000
ENDCHAR
STARTCHAR 0069
ENCODING 105
SWIDTH 184 0
DWIDTH 17 0
BBX 11 66 3 0
BITMAP
0780
1FC0
3FE0
3FE0
7FE0
7FE0
7FE0
7FE0
7FC0
7FC0
3F80
1E00
0000
0000
0000
0000
0000
0000
0000
0000
0000
0F80
1FC0
3FC0
7FC0
7FC0
7FC0
7FC0
7FC0
7FC0
7FC0
7FC0
7FC0
7FC0
7FC0
7FC0
7FC0
7FC0
7FC0
7FC0
7FC0
7FC0
7FC0
7F80
FF80
FF80
FF80
FF80
FF80
FF80
FF80
FF80
FF80
FF80
FF80
FFC0
FFC0
FFC0
FFC0
FFC0
7FC0
7FC0
7F80
7F80
3F00
1C00
ENDCHAR
STARTCHAR 006A
ENCODING 106
SWIDTH 184 0
DWIDTH 17 0
BBX 26 91 -12 -25
BITMAP
00001F00
00003F80
00007F80
00007FC0
0000FFC0
0000FFC0
0000FFC0
0000FFC0
0000FF80
0000FF00
00007E00
00003800
00000000
00000000
00000000
00000000
00000000
00000000
00000000
00000000
00000600
00001F80
00003FC0
00007FC0
00007FC0
00007FC0
00007FC0
00007FC0
00007FC0
00007FC0
00007FC0
00007FC0
00007FC0
00007FC0
00007FC0
00007FC0
00007FC0
00007FC0
00007FC0
00007FC0
00007FC0
00007FC0
00007FC0
00007FC0
00007FC0
00007FC0
00007FC0
00007FC0
00007FC0
00007FC0
00007FC0
00007FC0
00007FC0
00007FC0
00007FC0
00007FC0
00007FC0
00007FC0
00007FC0
00007FC0
00007FC0
00007FC0
00007FC0
00007FC0
00007FC0
00007FC0
00007FC0
00007FC0
00007FC0
00007FC0
00007FC0
00007FC0
00007FC0
00007FC0
00007FC0
00007FC0
00007FC0
7000FFC0
F800FF80
FC00FF80
FE00FF80
FF01FF80
FF83FF00
7FFFFF00
7FFFFF00
3FFFFE00
3FFFFC00
1FFFFC00
0FFFF800
03FFE000
007F8000
ENDCHAR
STARTCHAR 006B
ENCODING 107
SWIDTH 467 0
DWIDTH 43 0
BBX 40 63 3 0
BITMAP
3F80000000
7FC0000000
7FC0000000
7FC0000000
7FC0000000
7FC0000000
7FC0000000
7FC0000000
7FC0000000
7FC0000000
7FC0000000
7FC0000000
7FC0000000
7FC0000000
7FC0000000
7FC0000000
7FC0000000
7FC0000000
7FC00001E0
FFC0000FF8
FFC0001FF8
FFC0003FF8
FFC0007FF0
FFC000FFC0
FFC001FF80
FFC003FF00
FFC007FE00
FFC00FFC00
FFC01FF800
FFC07FF000
FFC0FFE000
FFC1FFC000
FFC3FF0000
FFC7FE0000
FFDFFC0000
FFFFF80000
FFFFF00000
FFFFE00000
FFFFE00000
FFFFF00000
FFFFF80000
FFDFFC0000
FFCFFF0000
FFC7FF8000
FFC3FFC000
FFC1FFE000
FFC0FFF000
FFC07FF800
FFC03FFC00
FFC01FFE00
FFC00FFF00
FFC007FF80
FFC003FFC0
FF8001FFE0
FF8000FFF0
FFC0007FF8
FFC0003FFC
FFC0001FFE
FFC0000FFF
7F800007FF
7F800001FF
7F000000FE
3C0000007C
ENDCHAR
STARTCHAR 006C
ENCODING 108
SWIDTH 173 0
DWIDTH 16 0
BBX 10 66 3 1
BITMAP
1F80
3F80
7FC0
7FC0
7FC0
7FC0
7FC0
7FC0
7FC0
7FC0
7F80
7F80
7F80
7F80
7F80
7F80
7F80
FF80
FF80
FF80
FF80
FF80
FF80
FF80
FF80
FF80
FF80
FF80
FF80
FF80
FF80
FF80
FF80
FF80
FF80
FF80
FF80
FF80
FF80
FF80
FF80
FF80
FF80
FF80
FF80
FF80
FF80
FF80
FF80
FF80
FF80
FF80
FF80
FF80
FF80
FF80
FF80
FF80
FF80
FF80
FF80
FF80
FF80
7F00
7C00
3800
ENDCHAR
STARTCHAR 006D
ENCODING 109
SWIDTH 804 0
DWIDTH 74 0
BBX 68 45 3 0
BITMAP
0F0000000000000000
1F800FF80000FFC000
3FC03FFF0003FFF000
7FC0FFFF800FFFFC00
7FC1FFFFC03FFFFE00
7FC3FFFFE07F87FE00
7FC7F07FF0FC01FF00
7FCFC01FF1F800FF80
7FDF000FFBE000FF80
7FFE000FFFC0007FC0
7FFC000FFFC0007FC0
7FF80007FF80007FC0
7FF00007FF00003FC0
7FF00007FF00003FE0
7FE00007FF00003FE0
7FE00007FE00003FE0
7FE00007FE00003FE0
7FC00007FE00003FE0
7FC00007FE00003FE0
7FC00007FE00003FE0
7FC00007FE00001FE0
7FC00007FE00001FE0
7FC00007FC00001FE0
7FC00007FC00001FF0
7FC00007FC00003FF0
7FC00007FC00003FF0
FF800007FC00003FF0
FF800007FC00003FF0
FF800007FC00003FF0
FF800007FC00003FF0
FF800007FE00003FF0
FF800007FE00003FF0
FF800007FE00003FF0
FF800007FE00003FF0
FF800007FE00003FF0
FF800007FE00003FF0
FFC00007FE00003FF0
FFC00003FE00001FF0
FFC00003FE00001FF0
FFC00003FE00001FF0
7FC00003FE00001FF0
7F800003FE00001FF0
7F800003FC00000FF0
3F000003F800000FF0
1C000001F0000007C0
ENDCHAR
STARTCHAR 006E
ENCODING 110
SWIDTH 500 0
DWIDTH 46 0
BBX 41 46 3 -1
BITMAP
000000700000
1F8007FF0000
3FC01FFF8000
7FC07FFFE000
7FC1FFFFF000
7FC3FFFFF800
7FC7FFFFF800
7FFFE01FFC00
7FFFC00FFC00
7FFF0007FE00
7FFE0003FE00
7FFC0003FE00
7FFC0001FF00
7FF80001FF00
FFF80001FF00
FFF00001FF00
FFF00001FF00
FFE00001FF00
FFE00001FF00
FFE00001FF00
FFC00001FF00
FFC00001FF00
FFC00001FF00
FFC00001FF00
FFC00001FF00
FFC00001FF00
FF800001FF00
FF800001FF00
FF800001FF00
FF800001FF00
FF800001FF00
FF800001FF00
FF800001FF00
FF800001FF00
FF800001FF00
FF800001FF00
FF800001FF00
FF800001FF00
FF800001FF80
FF800001FF80
FF800000FF80
FF800000FF80
7F800000FF80
7F000000FF80
7E0000007F00
3C0000003E00
ENDCHAR
STARTCHAR 006F
ENCODING 111
SWIDTH 500 0
DWIDTH 46 0
BBX 40 45 3 0
BITMAP
00007FC000
0003FFF800
001FFFFC00
003FFFFF00
00FFFFFF80
01FFFFFFC0
03FFFFFFE0
07FF80FFF0
07FE003FF8
0FF8001FF8
1FF0000FFC
1FE00007FC
3FE00003FE
3FC00003FE
3FC00001FE
7F800001FE
7F800001FF
7F800001FF
FF000000FF
FF000000FF
FF000000FF
FF000000FF
FF000000FF
FF000000FF
FF000000FF
FF000000FF
FF000000FF
FF800001FE
FF800001FE
7F800001FE
7FC00003FC
7FC00003FC
3FE00007FC
3FF0000FF8
3FF8001FF8
1FFC007FF0
1FFF01FFE0
0FFFFFFFC0
07FFFFFFC0
03FFFFFF80
01FFFFFE00
00FFFFFC00
003FFFF000
001FFFC000
0003FE0000
ENDCHAR
STARTCHAR 0070
ENCODING 112
SWIDTH 500 0
DWIDTH 46 0
BBX 40 67 3 -22
BITMAP
1F00000000
3F807FF000
7F81FFFC00
FF87FFFF00
FF8FFFFF80
FFFFFFFFC0
FFFFC1FFE0
FFFF007FF0
FFFC001FF8
FFF8000FF8
FFF00007FC
FFF00007FC
FFE00003FE
FFE00003FE
FFC00001FE
FFC00001FF
FFC00001FF
FF800001FF
FF800000FF
FF800000FF
FF800000FF
FF800000FF
FF800000FF
FF800000FF
FF800000FF
FF800000FF
FF800001FF
FF800001FF
FF800001FF
FFC00001FE
FFC00003FE
FFC00003FE
FFC00007FC
FFE00007FC
FFF0000FF8
FFF8001FF0
FFFE003FF0
FFFF81FFE0
FFFFFFFFC0
FFFFFFFF80
FFFFFFFF00
FFBFFFFE00
FF8FFFF800
FF83FFE000
FF80FF0000
FF80000000
FF80000000
FF80000000
FF80000000
FF80000000
FF80000000
FF80000000
FF80000000
FF80000000
FF80000000
FF80000000
FF80000000
FF80000000
FF80000000
FF80000000
FF80000000
FF80000000
FF80000000
FF80000000
7F80000000
7F00000000
3C00000000
ENDCHAR
STARTCHAR 0071
ENCODING 113
SWIDTH 500 0
DWIDTH 46 0
BBX 40 66 3 -21
BITMAP
00007FF01E
0003FFFC3F
000FFFFEFF
001FFFFFFF
007FFFFFFF
00FFFFFFFF
01FFFFFFFF
03FF807FFF
07FE001FFF
07FC000FFF
0FF80007FF
1FF00007FF
1FE00003FF
3FE00003FF
3FC00003FF
3FC00001FF
7FC00001FE
7F800001FE
7F800001FE
7F800001FE
FF800001FE
FF800001FE
FF000001FE
FF000001FE
FF000001FE
FF800001FE
FF800001FE
FF800001FE
7F800003FE
7F800003FE
7F800003FE
7FC00007FE
3FC00007FE
3FE0000FFE
3FF0000FFE
1FF8001FFC
1FFC003FFC
0FFF007FFC
07FFFFFFFC
03FFFFFFFC
01FFFFFFFC
00FFFFFFFC
007FFFFBFC
001FFFC3FC
0003FF07FC
00000007FC
00000007FC
00000007FC
00000007FC
00000007FC
00000007FC
00000007FC
00000007FC
00000007FC
00000007FC
00000007FC
00000007FC
00000007FC
00000007FC
00000007FC
00000007FC
00000003FC
00000003FC
00000003FC
00000003F8
00000001E0
ENDCHAR
STARTCHAR 0072
ENCODING 114
SWIDTH 369 0
DWIDTH 34 0
BBX 30 45 3 0
BITMAP
0F000FC0
1F807FE0
3F80FFF0
7F83FFF8
7F87FFF8
7F8FFFFC
7FDFFFFC
7FFFFFFC
7FFFFFF8
7FFE03F8
FFFC01F8
FFF801F0
FFF001F0
FFE000E0
FFE00000
FFC00000
FFC00000
FFC00000
FFC00000
FFC00000
FF800000
FF800000
FF800000
FF800000
FF800000
FF800000
FF800000
FF800000
FF800000
FF800000
FF800000
FF800000
FF800000
FF800000
FF800000
FF800000
FF800000
FF800000
FF800000
FF800000
FF800000
7F800000
7F800000
7E000000
38000000
ENDCHAR
STARTCHAR 0073
ENCODING 115
SWIDTH 445 0
DWIDTH 41 0
BBX 36 48 3 0
BITMAP
000000C000
00007FFC00
0003FFFF00
001FFFFF80
007FFFFF80
00FFFFFFC0
01FFFFFFC0
03FFFFFFC0
07FF803FC0
0FFC001FC0
1FF0001FC0
1FE0000F80
3FC0000700
3FC0000000
3FC0000000
3FC0000000
3FE0000000
3FF0000000
3FFE000000
3FFFC00000
1FFFF80000
1FFFFF0000
0FFFFFC000
03FFFFF800
01FFFFFC00
003FFFFF00
000FFFFF80
0000FFFFC0
00000FFFE0
000001FFE0
0000007FF0
0000003FF0
0000001FF0
0000001FF0
0000001FF0
0000001FF0
1C00001FF0
3E00001FE0
7F00003FE0
FFC000FFC0
FFF803FFC0
FFFFFFFF80
7FFFFFFF00
3FFFFFFE00
1FFFFFF800
07FFFFF000
01FFFF8000
001FFC0000
ENDCHAR
STARTCHAR 0074
ENCODING 116
SWIDTH 369 0
DWIDTH 34 0
BBX 32 60 1 0
BITMAP
0003C000
000FF000
000FF000
001FF000
001FF800
001FF800
001FF800
001FF000
001FF000
001FF000
001FF000
001FF000
001FF000
001FF000
001FF000
1FFFFFFE
7FFFFFFF
7FFFFFFF
7FFFFFFF
FFFFFFFE
FFFFFFFC
7FFFFFF8
003FF000
001FE000
001FE000
001FE000
003FE000
003FE000
003FE000
003FE000
003FE000
003FE000
003FE000
003FE000
003FE000
003FE000
003FE000
003FE000
003FE000
003FE000
003FE000
003FE000
003FE000
003FE000
003FE000
003FE000
003FE000
003FE000
003FE000
003FE000
003FE000
003FE03C
003FF07C
001FFFFE
001FFFFE
000FFFFC
000FFFFC
0007FFF8
0001FFF0
0000FFC0
ENDCHAR
STARTCHAR 0075
ENCODING 117
SWIDTH 478 0
DWIDTH 44 0
BBX 38 45 3 0
BITMAP
0F00000078
3F800001FC
7FC00003FC
7FC00007FC
7FC00007FC
7FC00007FC
7FC00007FC
7FC00007FC
7FC00007FC
7FC00007FC
7FC00007FC
7FC00007FC
FFC00007FC
FFC00007FC
FFC00007FC
FFC00007FC
FF800007FC
FF80000FF8
FF80000FF8
FF80000FF8
FF80000FF8
FF80000FF8
FF80000FF8
FF80000FF8
FF80000FF8
FF80000FF8
FF80000FF8
FF80000FF8
FF80000FF8
FFC0000FF8
7FC0001FF8
7FC0001FF8
7FC0001FF8
7FE0003FF8
3FE0007FF8
3FF000FFF8
3FF803FFFC
1FFFFFFFFC
1FFFFFFFFC
0FFFFFFFFC
07FFFFFBFC
03FFFFFBFC
01FFFFF3FC
00FFFFC1FC
001FFE00F8
ENDCHAR
STARTCHAR 0076
ENCODING 118
SWIDTH 467 0
DWIDTH 43 0
BBX 39 46 2 -2
BITMAP
180000007C
7E000000FE
FF000001FE
FF000003FE
FF000003FE
FF800007FC
FF800007FC
7F800007F8
7FC0000FF8
7FC0000FF0
3FC0000FF0
3FE0001FF0
3FE0001FE0
1FE0001FE0
1FF0003FC0
1FF0003FC0
0FF0003F80
0FF8007F80
0FF8007F80
07F800FF00
07FC00FF00
07FC00FE00
03FC01FE00
03FE01FC00
03FE03FC00
01FE03FC00
01FF03F800
01FF07F800
00FF07F000
00FF8FF000
00FF8FE000
007F9FE000
007FDFE000
007FFFC000
003FFFC000
003FFF8000
001FFF8000
001FFF0000
001FFF0000
000FFF0000
000FFE0000
0007FC0000
0007FC0000
0007F80000
0003F00000
0001E00000
ENDCHAR
STARTCHAR 0077
ENCODING 119
SWIDTH 728 0
DWIDTH 67 0
BBX 64 45 2 1
BITMAP
3E000003C000007C
7F00000FE00000FE
FF00001FE00001FF
FF80001FF00001FE
FF80003FF00003FE
FF80003FF00003FE
FF80007FF80003FC
FFC0007FF80007FC
7FC000FFF80007FC
7FC000FFF80007F8
7FC001FFFC0007F8
7FC001FFFC000FF8
3FE001FFFC000FF0
3FE003FDFE000FF0
3FE003F9FE001FF0
1FE003F9FE001FE0
1FF007F8FE001FE0
1FF007F0FF001FE0
1FF007F0FF003FC0
0FF00FF07F003FC0
0FF00FF07F003F80
0FF80FE07F807F80
0FF80FE07F807F80
07F81FE03F807F80
07F81FC03FC0FF00
07FC1FC03FC0FF00
07FC3FC01FC0FF00
03FC3F801FE1FE00
03FC3F801FE1FE00
03FE7F801FE1FC00
03FE7F000FF3FC00
01FEFF000FF3FC00
01FFFF000FF3F800
01FFFE0007FFF800
00FFFE0007FFF800
00FFFC0007FFF000
00FFFC0003FFF000
007FF80003FFE000
007FF80001FFE000
003FF00001FFC000
003FF00001FFC000
001FE00000FF8000
001FE00000FF0000
000FC000007F0000
00070000003C0000
ENDCHAR
STARTCHAR 0078
ENCODING 120
SWIDTH 489 0
DWIDTH 45 0
BBX 41 45 2 0
BITMAP
078000001E00
0FC000007F00
1FE00000FF00
3FE00001FF00
1FF00003FE00
1FF80007FC00
0FFC000FFC00
0FFC001FF800
07FE003FF000
03FF003FE000
03FF007FC000
01FF80FF8000
00FFC1FF8000
007FE1FF0000
003FF3FE0000
003FFFFC0000
001FFFF80000
000FFFF80000
0007FFF00000
0003FFE00000
0003FFC00000
0001FF800000
0003FFC00000
0003FFE00000
0007FFF00000
000FFFF80000
000FFFF80000
001FFFFC0000
003FE7FE0000
007FC3FF0000
007F81FF8000
00FF80FFC000
01FF00FFE000
03FE007FE000
03FE003FF000
07FC001FF800
0FF8001FFC00
1FF8000FFE00
3FF00007FF00
7FE00003FF00
7FC00001FF80
FF800001FF80
FF000000FF00
FE0000007E00
780000001C00
ENDCHAR
STARTCHAR 0079
ENCODING 121
SWIDTH 500 0
DWIDTH 46 0
BBX 42 69 2 -25
BITMAP
1C0000000F00
7E0000003F80
FF0000007FC0
FF0000007FC0
FF800000FF80
FF800000FF80
FFC00001FF00
7FC00001FF00
7FE00003FF00
7FE00003FE00
3FE00003FE00
3FF00007FC00
1FF00007FC00
1FF80007FC00
0FF8000FF800
0FF8000FF800
07FC000FF000
07FC001FF000
07FE001FF000
03FE001FE000
03FE003FE000
01FF003FC000
01FF003FC000
00FF007FC000
00FF807F8000
007F80FF8000
007FC0FF0000
007FC1FF0000
003FE1FF0000
003FE1FE0000
001FF3FE0000
001FF3FC0000
000FFFFC0000
000FFFFC0000
0007FFF80000
0007FFF80000
0003FFF00000
0003FFF00000
0001FFF00000
0001FFE00000
0000FFE00000
0000FFE00000
00007FC00000
00007FC00000
00007F800000
0000FF800000
0000FF800000
0000FF000000
0001FF000000
0001FE000000
0003FE000000
0003FE000000
0007FC000000
0007FC000000
0007FC000000
000FF8000000
000FF8000000
000FF0000000
001FF0000000
001FF0000000
001FF0000000
001FE0000000
001FE0000000
001FE0000000
001FE0000000
001FE0000000
001FE0000000
000FC0000000
000780000000
ENDCHAR
STARTCHAR 007A
ENCODING 122
SWIDTH 489 0
DWIDTH 45 0
BBX 39 45 3 0
BITMAP
000001FF00
1FFFFFFFE0
3FFFFFFFF8
7FFFFFFFF8
7FFFFFFFF8
FFFFFFFFF8
FFFFFFFFF0
7FFFFFFFF0
0380007FE0
000000FFC0
000000FF80
000001FF00
000003FF00
000007FE00
000007FC00
00000FF800
00001FF000
00001FF000
00003FE000
00007FC000
0000FF8000
0000FF8000
0001FF0000
0003FE0000
0007FC0000
0007FC0000
000FF80000
001FF00000
003FF00000
007FE00000
007FC00000
00FF800000
01FF800000
03FF000000
07FE000000
0FFE000000
0FFC000000
1FF8000000
3FFFFFFFF8
7FFFFFFFFE
7FFFFFFFFE
FFFFFFFFFE
FFFFFFFFFC
7FFFFFFFF8
3FFFFFFFE0
ENDCHAR
STARTCHAR 007B
ENCODING 123
SWIDTH 413 0
DWIDTH 38 0
BBX 33 83 3 -11
BITMAP
000003F800
00001FFE00
00007FFF00
0000FFFF00
0001FFFF00
0003FFFF00
0003FFFF00
0007FFF800
0007FF0000
000FFC0000
000FF80000
000FF80000
001FF00000
001FF00000
001FF00000
001FF00000
001FF00000
001FF00000
001FF00000
001FF00000
001FF00000
001FF00000
001FF00000
001FF00000
001FF00000
001FF00000
001FF00000
001FF00000
001FF00000
001FF00000
001FF00000
001FF00000
003FE00000
003FE00000
007FE00000
01FFC00000
07FFC00000
1FFF800000
3FFF800000
7FFF000000
FFFE000000
FFF8000000
FFF8000000
7FFE000000
7FFF000000
3FFF800000
1FFFC00000
07FFC00000
01FFE00000
00FFE00000
007FE00000
003FF00000
003FF00000
003FF00000
003FF00000
001FF00000
001FF00000
001FF00000
001FF00000
001FF00000
003FF00000
003FF00000
003FF00000
003FF00000
003FF00000
001FF00000
001FF00000
001FF00000
001FF00000
001FF00000
001FF00000
000FF80000
000FF80000
000FFC0000
0007FE0000
0007FFF000
0003FFFF00
0001FFFF80
0000FFFF80
00007FFF80
00003FFF80
00000FFF00
000001FC00
ENDCHAR
STARTCHAR 007C
ENCODING 124
SWIDTH 173 0
DWIDTH 16 0
BBX 10 84 3 -11
BITMAP
0700
1F80
3FC0
3FC0
7FC0
7FC0
7FC0
7FC0
7FC0
7FC0
7FC0
7FC0
7FC0
7FC0
7FC0
7FC0
7FC0
7FC0
7FC0
7FC0
7FC0
7FC0
7FC0
7FC0
7FC0
7FC0
7FC0
FFC0
FFC0
FFC0
FF80
FF80
FF80
FF80
FF80
FF80
FF80
FF80
FF80
FF80
FF80
FF80
FF80
FF80
FF80
FF80
FF80
FF80
FF80
FF80
FF80
FF80
FF80
FF80
FF80
FF80
FF80
FF80
FF80
FF80
FF80
FF80
FF80
FF80
FF80
FF80
FF80
FF80
FF80
FF80
FF80
FF80
FF80
FF80
FF80
FF80
FF80
FF80
7F80
7F80
7F80
7E00
3C00
1800
ENDCHAR
STARTCHAR 007D
ENCODING 125
SWIDTH 413 0
DWIDTH 38 0
BBX 33 83 3 -11
BITMAP
07E0000000
1FFC000000
3FFF000000
7FFF800000
7FFFC00000
7FFFE00000
3FFFE00000
0FFFF00000
003FF00000
001FF80000
000FF80000
0007F80000
0007FC0000
0007FC0000
0007FC0000
0007FC0000
0007FC0000
0007FC0000
0007FC0000
0007FC0000
0007FC0000
0007FC0000
0007FC0000
0007FC0000
0007FC0000
0007FC0000
0007FC0000
0007FC0000
0007FC0000
0007FC0000
0007FC0000
0003FC0000
0003FC0000
0003FE0000
0003FF0000
0001FF8000
0001FFF000
0000FFFC00
00007FFE00
00007FFF00
00003FFF00
00000FFF80
00000FFF00
00003FFF00
00007FFF00
0000FFFE00
0000FFFC00
0001FFF000
0001FFC000
0003FF0000
0003FF0000
0003FE0000
0003FE0000
0003FC0000
0007FC0000
0007FC0000
0007FC0000
0007FC0000
0007FC0000
0007FC0000
0007FC0000
0007FC0000
0007FC0000
0007FC0000
0007FC0000
0007FC0000
0007FC0000
0007FC0000
0007FC0000
0007FC0000
0007FC0000
0007F80000
000FF80000
001FF80000
003FF00000
07FFF00000
7FFFE00000
7FFFC00000
FFFF800000
FFFF000000
7FFE000000
7FF8000000
1FE0000000
ENDCHAR
STARTCHAR 007E
ENCODING 126
SWIDTH 510 0
DWIDTH 47 0
BBX 42 17 3 35
BITMAP
001E00000000
00FFC0000000
03FFF0000000
0FFFF8000300
1FFFFC000780
3FFFFE001FC0
7FFFFF803FC0
7FFFFFE0FFC0
FFFFFFFFFF80
FF81FFFFFF80
FE007FFFFF00
FC003FFFFE00
78001FFFFC00
60000FFFF800
000007FFE000
000001FF8000
0000001C0000
ENDCHAR
STARTCHAR 00A1
ENCODING 161
SWIDTH 184 0
DWIDTH 17 0
BBX 12 67 3 -9
BITMAP
3F00
7F80
7FC0
7FE0
FFE0
FFE0
FFF0
FFF0
7FE0
3FE0
3FC0
0F80
0000
0000
0000
0000
0000
0000
0380
07C0
1FE0
1FE0
3FE0
3FE0
3FE0
3FE0
3FE0
3FE0
3FE0
3FE0
3FE0
3FE0
3FE0
3FE0
3FE0
3FE0
3FC0
3FC0
3FC0
3FC0
3FC0
3FC0
3FC0
3FC0
3FC0
3FC0
3FC0
3FC0
3FC0
7FC0
7FC0
7FC0
7FC0
7FC0
7FC0
7FC0
7FC0
7FC0
7FC0
7FC0
7FE0
FFE0
FFE0
7FE0
7FC0
7F80
3E00
ENDCHAR
STARTCHAR 00A2
ENCODING 162
SWIDTH 467 0
DWIDTH 43 0
BBX 37 55 3 -2
BITMAP
00000001C0
0000000FE0
0000001FE0
0000001FE0
0000003FC0
0000007FC0
0000007F80
00007FFF80
0003FFFF00
000FFFFF80
001FFFFFC0
007FFFFFE0
00FFFFFFE0
01FF83FFE0
03FE07FFE0
07FC07FFE0
07F807FFE0
0FF00FF7E0
1FF00FF7E0
1FE01FE7E0
3FC01FE7E0
3FC01FC7E0
3FC03FC7C0
7F803FC7C0
7F807F8000
7F807F8000
7F807F0000
FF00FF0000
FF00FE0000
FF01FE0000
FF01FE0000
FF01FC0000
FF03FC0000
FF83F80000
FF83F80000
7F87F80000
7F87F00000
7FCFF00000
7FCFE00000
3FDFE00000
3FFFC00070
3FFFC000F8
1FFFC003F8
1FFF8007F8
0FFF801FF8
07FF807FF0
07FFFFFFF0
03FFFFFFE0
01FFFFFFC0
01FFFFFF80
01FFFFFE00
03FFFFFC00
03FBFFE000
03F01E0000
01E0000000
ENDCHAR
STARTCHAR 00A3
ENCODING 163
SWIDTH 565 0
DWIDTH 52 0
BBX 46 63 3 -1
BITMAP
00000FF00000
00007FFF0000
0003FFFFC000
0007FFFFF800
001FFFFFFC00
003FFFFFFF00
007FFFFFFF80
00FFF801FFC0
01FFC0007FE0
01FF80003FF0
03FE00000FF8
03FE000007F8
07FC000003FC
07FC000003FC
07F8000001FC
0FF8000000FC
0FF8000000FC
0FF800000078
0FF800000000
0FF800000000
07F800000000
07FC00000000
07FC00000000
07FC00000000
07FC00000000
07FC00000000
07FC00000000
07FC00000000
07FC00000000
07FC00000000
07FFFFFF8000
3FFFFFFF8000
7FFFFFFF8000
7FFFFFFF0000
FFFFFFFF0000
FFFFFFFE0000
7FFFFFF80000
3FFC00000000
03FC00000000
03F800000000
03F800000000
03F800000000
03F800000000
07F800000000
07F800000000
07F800000000
07F800000000
07F000000000
0FF000000000
0FF000000000
0FF000000000
1FE000000000
1FE000000000
1FE000000000
3FFFFFFFF000
3FFFFFFFFFC0
7FFFFFFFFFF0
FFFFFFFFFFF8
FFFFFFFFFFF8
7FFFFFFFFFF8
7FFFFFFFFFF8
1FFFFFFFFFF0
0FFFFFFFFFE0
ENDCHAR
STARTCHAR 00A4
ENCODING 164
SWIDTH 456 0
DWIDTH 42 0
BBX 37 38 3 15
BITMAP
08000000C0
3E000003E0
7F01FE07E0
FF8FFFCFE0
FFFFFFFFE0
FFFFFFFFE0
7FFFFFFFE0
3FFFFFFFE0
1FFE03FFC0
0FF800FF80
1FE0003FC0
3FC0001FE0
3F80000FE0
7F80000FE0
7F000007F0
7F000007F0
FE000007F0
FE000007F0
FE000007F0
FE000007F0
FE000007F0
FF00000FF0
7F00000FF0
7F00001FE0
7F80001FE0
3FC0003FC0
3FE0007FC0
1FF001FF80
1FFC07FF80
1FFFFFFFC0
3FFFFFFFE0
3FFFFFFFF0
7FFFFFFFF8
7FFFFF9FF8
3F87FC0FF8
3F000007F0
3E000003F0
08000000E0
ENDCHAR
STARTCHAR 00A5
ENCODING 165
SWIDTH 619 0
DWIDTH 57 0
BBX 52 67 3 -2
BITMAP
000000000003C0
000000000007E0
00000000000FF0
1E000000001FF0
3F000000003FE0
7F800000003FE0
FF800000007FE0
FFC0000000FFC0
7FE0000000FF80
7FE0000000FF80
3FF0000001FF00
3FF0000001FF00
1FF8000003FE00
1FFC000003FC00
0FFC000007FC00
07FE000007F800
07FE00000FF800
03FF00000FF000
03FF80001FE000
01FF80003FE000
00FFC0003FC000
00FFE0007FC000
007FE0007F8000
003FF000FF0000
003FF001FF0000
001FF801FE0000
000FFC03FE0000
000FFC03FC0000
0007FE07F80000
0003FF0FF80000
0001FF9FF00000
0000FF9FF00000
00007FFFE00000
007FFFFFFFFE00
01FFFFFFFFFF00
03FFFFFFFFFE00
03FFFFFFFFFE00
07FFFFFFFFFC00
03FFFFFFFFFC00
01FFFFFFFFF800
000003FF000000
000003FF000000
000003FF000000
000003FF000000
000003FF000000
000003FF000000
000003FE000000
000003FE000000
000003FE000000
007FFFFFFFFE00
01FFFFFFFFFF00
01FFFFFFFFFF00
03FFFFFFFFFE00
03FFFFFFFFFE00
03FFFFFFFFFC00
01FFFFFFFFF000
000003FF000000
000003FF000000
000003FF000000
000003FF000000
000003FF000000
000003FE000000
000003FE000000
000003FC000000
000003FC000000
000003F8000000
000001E0000000
ENDCHAR
STARTCHAR 00A6
ENCODING 166
SWIDTH 173 0
DWIDTH 16 0
BBX 10 74 3 -8
BITMAP
1F80
7FC0
7FC0
7FC0
7FC0
7FC0
7FC0
7FC0
FFC0
FF80
FF80
FF80
FF80
FF80
FF80
FF80
FF80
FF80
FF80
FF80
FF80
FF80
FF80
FF80
FF80
FF80
FF80
FF80
FF80
FF80
7F80
7F00
3C00
0000
0000
0000
0000
0000
0000
0000
0000
1F80
3FC0
7FC0
7FC0
7FC0
7FC0
7FC0
7FC0
FFC0
FF80
FF80
FF80
FF80
FF80
FF80
FF80
FF80
FF80
FF80
FF80
FF80
FF80
FF80
FF80
FF80
FF80
FF80
FF80
FF80
FF80
7F80
7F00
3E00
ENDCHAR
STARTCHAR 00A7
ENCODING 167
SWIDTH 434 0
DWIDTH 40 0
BBX 35 64 3 -7
BITMAP
000007C000
0001FFF800
000FFFFC00
007FFFFE00
00FFFFFF00
03FFFFFF00
07FFFFFF00
0FFFFFFF00
1FFE00FF00
3FF0007F00
7FC0007F00
7F80003E00
7F80001C00
FF00000000
FF00000000
FF00000000
FF80000000
FFE0000000
FFF8000000
7FFE000000
7FFFC00000
3FFFF00000
3FFFFC0000
7FFFFF8000
7FFFFFE000
7E7FFFF800
FE0FFFFC00
FE01FFFF00
FE003FFF80
FE0007FFC0
FE0000FFC0
FF00007FC0
FF80001FE0
7FE0001FE0
7FF8000FE0
3FFF000FC0
1FFFE00FC0
0FFFFC0FC0
03FFFF9FC0
00FFFFFFC0
003FFFFF80
000FFFFF80
0003FFFF00
0000FFFF80
00001FFFC0
000007FFC0
000001FFE0
0000007FE0
0000003FE0
0000001FE0
0000001FC0
0400003FC0
1F80003FC0
1F80007F80
1FC001FF80
3FC007FF00
3FFFFFFE00
3FFFFFFC00
3FFFFFF800
1FFFFFF000
1FFFFFC000
0FFFFF0000
07FFF80000
00FF000000
ENDCHAR
STARTCHAR 00A8
ENCODING 168
SWIDTH 326 0
DWIDTH 30 0
BBX 24 11 3 56
BITMAP
1C001C
3E003E
7F007F
7F00FF
FF80FF
FF80FF
FF00FF
FF00FF
7F00FE
7E007E
3C0038
ENDCHAR
STARTCHAR 00A9
ENCODING 169
SWIDTH 641 0
DWIDTH 59 0
BBX 53 53 3 7
BITMAP
000003FF800000
00003FFFF80000
0000FFFFFE0000
0003FFFFFF8000
000FFFFFFFE000
001FF800FFF000
003FC0000FFC00
007F000003FE00
00FC000000FF00
01F80000007F00
03E001FF003F80
07C007FFE01FC0
0FC00FFFF00FC0
0F803FFFF80FE0
1F007FFFFC07E0
1F007F83FE07E0
3E00FE00FE03F0
3E00FC007C03F0
3C01F8007C03F0
7C01F0007C01F0
7C03F0003801F8
7803F0000001F8
7803E0000001F8
F807E0000001F8
F807E0000001F8
F807E0000001F8
F807E0000001F8
F807E0000001F8
F807E0000001F8
F807E0000001F8
F807E0000001F0
FC07F0000003F0
FC03F0001C03F0
7C03F0003C03F0
7E03F8007E07E0
7E01FC007C07E0
7E01FE00FC0FC0
3F00FF87FC0FC0
3F80FFFFF81F80
1F807FFFF03F80
1FC03FFFE03F00
0FE00FFFC07F00
0FF003FF01FE00
07FC000003FC00
03FE00000FF800
01FFC0003FF000
00FFF801FFE000
007FFFFFFFC000
003FFFFFFF0000
000FFFFFFE0000
0003FFFFF80000
0000FFFFC00000
00000FFE000000
ENDCHAR
STARTCHAR 00AA
ENCODING 170
SWIDTH 413 0
DWIDTH 38 0
BBX 33 36 3 27
BITMAP
0000000E00
000FF01F00
003FFE3F00
00FFFF3F80
03FFFFFF80
07F03FFF00
0FC01FFF00
0F800FFF00
1F8007FF00
3F00007F00
3E00007F00
7E00007F00
7E00007F00
7C00007F00
FC00007F00
FC00007F00
FC00007F00
FC00007F00
FC00007F00
FC00007F00
FC00007F00
FE00007F00
FE00007F00
7F00007F00
7F00007F00
7F8001FF00
3FC003FF00
1FF00FFF00
1FFFFFFF00
0FFFFFFF00
07FFFFFF00
03FFFFFF00
00FFFF7F00
003FFC3F00
0003803E00
0000000800
ENDCHAR
STARTCHAR 00AB
ENCODING 171
SWIDTH 467 0
DWIDTH 43 0
BBX 37 34 3 7
BITMAP
0003C000F0
0007E001F0
001FF007F8
003FE00FF8
007FE01FF0
007FC03FF0
00FF807FE0
01FF80FFC0
03FF00FF80
07FE01FF80
0FFC03FF00
0FF807FE00
1FF00FFC00
3FE00FF800
7FC01FF000
7FC03FE000
FF803FE000
FF803FE000
7FC03FF000
3FE01FF800
3FF00FFC00
1FF807FC00
0FFC07FE00
07FE03FF00
07FE01FF80
03FF00FFC0
01FF807FE0
00FFC03FF0
007FE03FF0
003FE01FF8
003FE00FF8
001FE007F0
000FC003E0
00078001C0
ENDCHAR
STARTCHAR 00AC
ENCODING 172
SWIDTH 576 0
DWIDTH 53 0
BBX 48 18 3 16
BITMAP
0FFFFFFFFFFC
1FFFFFFFFFFE
7FFFFFFFFFFE
7FFFFFFFFFFE
FFFFFFFFFFFE
FFFFFFFFFFFE
7FFFFFFFFFFE
3FFFFFFFFFFF
0000000000FF
0000000000FF
0000000000FF
0000000000FF
0000000000FF
0000000000FE
0000000000FE
00000000007E
00000000007E
00000000003C
ENDCHAR
STARTCHAR 00AE
ENCODING 174
SWIDTH 641 0
DWIDTH 59 0
BBX 53 53 3 7
BITMAP
000003FF800000
00003FFFF80000
0000FFFFFE0000
0003FFFFFF8000
000FFFFFFFE000
001FF800FFF000
003FC0000FFC00
007F000003FE00
00FC000000FF00
01F807FE007F00
03E07FFFC03F80
07C0FFFFF01FC0
0FC1FFFFF80FC0
0F81FFFFFC0FE0
1F00FFFFFE07E0
1F007F03FE07E0
3E007E00FE03F0
3E007E007F03F0
3C007E007F03F0
7C007E003F01F0
7C007E003E01F8
78007E007E01F8
78007E007E01F8
F8007E00FC01F8
F8007E03F801F8
F8007E1FF001F8
F8007FFFE001F8
F8007FFF8001F8
F8007FFE0001F8
F8007FFC0001F8
F8007FFE0001F0
FC007FFF0003F0
FC007EFF8003F0
7C007E3FC003F0
7E007E1FF007E0
7E007E0FF807E0
7E007E07FC0FC0
3F007E03FE0FC0
3F807E00FF1F80
1F807E007FBF80
1FC07E003FBF00
0FE07C001FFF00
0FF07C000FFE00
07FC100003FC00
03FE00000FF800
01FFC0003FF000
00FFF801FFE000
007FFFFFFFC000
003FFFFFFF0000
000FFFFFFE0000
0003FFFFF80000
0000FFFFC00000
00000FFE000000
ENDCHAR
STARTCHAR 00AF
ENCODING 175
SWIDTH 326 0
DWIDTH 30 0
BBX 25 7 3 56
BITMAP
3FFFFF00
7FFFFF80
7FFFFF80
7FFFFF00
FFFFFF00
FFFFFE00
7FFFFC00
ENDCHAR
STARTCHAR 00B0
ENCODING 176
SWIDTH 326 0
DWIDTH 30 0
BBX 24 25 3 44
BITMAP
007F00
01FFC0
07FFF0
0FFFF8
1FFFFC
1FFFFE
3FC1FE
7F00FF
7E007F
7C003F
FC003F
FC001F
F8001F
F8001F
F8001F
FC001F
FC003E
7C003E
7E007C
3F00FC
3F83F8
1FFFF0
0FFFE0
07FF80
00FE00
ENDCHAR
STARTCHAR 00B1
ENCODING 177
SWIDTH 521 0
DWIDTH 48 0
BBX 41 48 4 0
BITMAP
00003C000000
00007F000000
00007F000000
00007F000000
00007F000000
00007F000000
00007F000000
00007F000000
00007F000000
00007F000000
00007F000000
00007F000000
00007F000000
00007F000000
00007F000000
00007F000000
00007F000000
00007F000000
3FFFFFFFFF00
7FFFFFFFFF80
7FFFFFFFFF80
FFFFFFFFFF80
FFFFFFFFFF00
FFFFFFFFFF00
7FFFFFFFFC00
00007F000000
00007F000000
00007F000000
00007F000000
00007F000000
00007F000000
00007F000000
00007F000000
00007F000000
00007F000000
00007F000000
00007F000000
00007F000000
00007F000000
00007F000000
01007F000000
3FFFFFFFFF80
7FFFFFFFFF80
FFFFFFFFFF80
FFFFFFFFFF80
FFFFFFFFFF00
FFFFFFFFFE00
3FFFFFFFF800
ENDCHAR
STARTCHAR 00B2
ENCODING 178
SWIDTH 326 0
DWIDTH 30 0
BBX 25 33 3 29
BITMAP
007E0000
03FFC000
0FFFE000
1FFFF000
3FFFF800
7F87F800
7E03F800
FC01FC00
F801FC00
F801F800
7001F800
0001F800
0003F800
0007F000
0007E000
000FE000
001FC000
003F8000
007F0000
00FE0000
01FC0000
03F80000
07F00000
0FE00000
0FC00000
1F800000
3F000000
3FFFFE00
7FFFFF00
7FFFFF80
7FFFFF00
7FFFFF00
3FFFFC00
ENDCHAR
STARTCHAR 00B3
ENCODING 179
SWIDTH 326 0
DWIDTH 30 0
BBX 24 33 3 30
BITMAP
00FE00
07FF80
1FFFE0
3FFFF0
3FFFF0
7F07F8
7C01F8
7801F8
3001F8
0001F8
0001F8
0003F0
000FE0
00FFC0
03FFC0
03FFF0
03FFF8
03FFFC
0003FE
0000FF
00007F
00003F
00003F
78003F
F8003F
FC003F
FE007E
7F81FE
7FFFFC
3FFFF8
0FFFF0
07FFC0
00FF00
ENDCHAR
STARTCHAR 00B4
ENCODING 180
SWIDTH 228 0
DWIDTH 21 0
BBX 16 16 3 51
BITMAP
0038
007C
00FE
01FF
03FF
07FE
0FFE
1FFC
1FF8
3FF0
3FE0
7FC0
7F80
FF00
FC00
7000
ENDCHAR
STARTCHAR 00B6
ENCODING 182
SWIDTH 467 0
DWIDTH 43 0
BBX 0 0 0 0
BITMAP
ENDCHAR
STARTCHAR 00B7
ENCODING 183
SWIDTH 184 0
DWIDTH 17 0
BBX 12 13 3 25
BITMAP
1F00
3FC0
7FE0
7FE0
FFE0
FFF0
FFF0
FFF0
7FF0
7FF0
3FE0
1FC0
0F80
ENDCHAR
STARTCHAR 00B8
ENCODING 184
SWIDTH 358 0
DWIDTH 33 0
BBX 27 27 3 -22
BITMAP
00C00000
03F80000
03F80000
03F80000
03F80000
03FC0000
03FF0000
00FF8000
007FE000
001FF800
0007FE00
0001FF00
0000FF80
00003FC0
00001FC0
00000FE0
70000FE0
F0000FE0
F0001FE0
F8003FE0
FC007FC0
FF01FFC0
FFFFFF80
7FFFFF00
1FFFFC00
07FFF000
003F0000
ENDCHAR
STARTCHAR 00B9
ENCODING 185
SWIDTH 195 0
DWIDTH 18 0
BBX 12 34 3 29
BITMAP
0040
03E0
0FF0
3FF0
7FF0
FFF0
FFF0
7FF0
03F0
03F0
03F0
03F0
03E0
07E0
07E0
07E0
07E0
07E0
07E0
07E0
07E0
07E0
07E0
07E0
07E0
07E0
07E0
07E0
07E0
07E0
07E0
0FF0
1FF0
0FF0
ENDCHAR
STARTCHAR 00BA
ENCODING 186
SWIDTH 358 0
DWIDTH 33 0
BBX 27 29 3 33
BITMAP
001FC000
00FFF000
01FFF800
03FFFE00
07FFFE00
0FF1FF00
1FC03F80
3F801F80
3F000FC0
7E000FC0
7E0007C0
7C0007E0
FC0007E0
FC0007E0
FC0007E0
FC0007E0
FC0007E0
FE000FE0
7E000FC0
7E001FC0
7F003FC0
3F803F80
3FC0FF80
1FFFFF00
1FFFFE00
0FFFFC00
07FFF800
01FFE000
007F0000
ENDCHAR
STARTCHAR 00BB
ENCODING 187
SWIDTH 467 0
DWIDTH 43 0
BBX 37 34 3 7
BITMAP
38001E0000
7E003F8000
FF003FC000
FF803FE000
7FC03FF000
3FE01FF800
3FF00FF800
1FF807FC00
0FFC07FE00
07FC03FF00
03FE01FF80
01FF00FF80
00FF807FC0
007F803FE0
007FC01FF0
003FE00FF0
001FE00FF8
001FE00FF8
003FE01FF0
007FC03FF0
00FF807FE0
01FF00FFC0
03FF00FF80
07FE01FF80
0FFC03FF00
1FF807FE00
3FF00FFC00
3FF01FF800
7FE01FF000
FFC03FF000
FF803FE000
7F003FC000
3E001F8000
1C000F0000
ENDCHAR
STARTCHAR 00BC
ENCODING 188
SWIDTH 619 0
DWIDTH 57 0
BBX 52 63 3 0
BITMAP
00C00000000000
03E00000000000
0FE00000000000
3FF00000000000
7FF00000000000
FFF00000000000
FFF00000000000
7BE00000000000
03E00000000000
03E00000000000
03E00000000000
03E00000000000
03E00000000000
07E00000000000
07E00000000000
07E00000000000
07E00003800000
07E00007800000
07E0000FC00000
07E0001FC00000
07E0001FC00000
07E0003FC00000
07E0007FC00000
07E0007F800000
07E000FF800000
07E001FF000000
07E001FF000000
07E003FE000000
07E007FC000000
07E00FFC020000
07E00FF80F0000
0FF01FF01F0000
1FF03FF03F0000
0FE03FE03F0000
00007FC07F0000
0000FFC07E0000
0001FF807E0000
0001FF00FC0000
0003FE00FC7800
0007FE00FCFC00
0007FC01F8FC00
000FF801F8FC00
001FF003F0FC00
001FF003F0FC00
003FE007E0FC00
003FC00FE0FC00
007FC00FC0FC00
007F801F80FC00
007F003F80FC00
007F003F00FDC0
003E007FFFFFF0
003C007FFFFFF0
0000007FFFFFE0
0000007FFFFFE0
0000007FFFFFC0
0000000000FC00
0000000000F800
0000000000FC00
0000000000FC00
0000000000FC00
00000000007C00
00000000007800
00000000003000
ENDCHAR
STARTCHAR 00BD
ENCODING 189
SWIDTH 663 0
DWIDTH 61 0
BBX 55 63 3 -1
BITMAP
00C00000000000
03E00000000000
0FE00000000000
3FF00000000000
7FF00000000000
FFF00000000000
FFF00000000000
7BE00000000000
03E00000000000
03E00000000000
03E00000000000
03E00000000000
03E00000000000
07E00000000000
07E00000000000
07E00000000000
07E00003800000
07E00007800000
07E0000FC00000
07E0001FC00000
07E0001FC00000
07E0003FC00000
07E0007FC00000
07E0007F800000
07E000FF800000
07E001FF000000
07E001FF000000
07E003FE000000
07E007FC000000
07E00FFC002000
07E00FF803FE00
0FF01FF00FFF80
1FF03FF03FFFC0
0FE03FE07FFFE0
00007FC0FFFFE0
0000FFC1FC0FF0
0001FF81F807F0
0001FF01F003F0
0003FE01E003F0
0007FE01E003F0
0007FC000007F0
000FF8000007E0
001FF000000FE0
001FF000001FC0
003FE000001FC0
003FC000003F80
007FC000007F00
007F800000FE00
007F000001FC00
007F000003F800
003E000007F000
003C00000FE000
000000001FC000
000000001F8000
000000003F0000
000000007E0000
00000000FE0000
00000000FFFFF8
00000001FFFFFE
00000001FFFFFE
00000001FFFFFE
00000000FFFFFC
000000007FFFF8
ENDCHAR
STARTCHAR 00BE
ENCODING 190
SWIDTH 706 0
DWIDTH 65 0
BBX 60 63 3 0
BITMAP
00FE000000000000
07FF800000000000
1FFFE00000000000
3FFFF00000000000
7FFFF00000000000
7F07F80000000000
7C01F80000000000
7801F80000000000
0001F80000000000
0001F80000000000
0001F80000000000
0003F00000000000
001FF00000000000
01FFE00000000000
03FFC00000000000
03FFE00000000000
03FFF00003000000
03FFF80007800000
0007FC000F800000
0000FE001FC00000
00007F001FC00000
00007F003FC00000
00003F007FC00000
00003F007F800000
78003F00FF800000
FC003F01FF000000
FC003F03FF000000
FF007E03FE000000
7F81FE07FC000000
7FFFFC0FFC000000
3FFFF80FF80F0000
0FFFF01FF01F0000
07FFC03FF03F0000
00FF003FE03F0000
0000007FC07F0000
000000FF807E0000
000001FF807E0000
000001FF00FC0000
000003FE00FC7800
000007FC00F8FC00
00000FFC01F8FC00
00000FF801F8FC00
00001FF003F0FC00
00001FF003F0FC00
00003FE007E0FC00
00007FC00FC0FC00
00007FC00FC0FC00
00007F801F80FC00
00007F003F80FC00
00007F003F00FBC0
00003E007FFFFFF0
00003C007FFFFFF0
00000000FFFFFFE0
000000007FFFFFE0
000000007FFFFFC0
000000000000FC00
000000000000F800
000000000000FC00
000000000000FC00
000000000000FC00
000000000000FC00
0000000000007800
0000000000007000
ENDCHAR
STARTCHAR 00BF
ENCODING 191
SWIDTH 456 0
DWIDTH 42 0
BBX 36 66 3 -11
BITMAP
00000F0000
00003FC000
00003FE000
00007FE000
00007FF000
00007FF000
00007FF000
00007FE000
00003FE000
00001FC000
00000F8000
0000000000
0000000000
0000000000
0000000000
0000000000
0000000000
0000000000
000007C000
00000FE000
00001FF000
00001FF000
00001FF000
00001FF000
00001FF000
00001FF000
00001FF000
00003FF000
00007FE000
0000FFC000
0003FFC000
0007FF8000
001FFE0000
003FFC0000
007FF80000
01FFE00000
03FFC00000
07FF000000
0FFE000000
0FFC000000
1FF8000000
3FF0000000
3FE0000000
7FC0000000
7FC0000000
7F80000000
FF80000000
FF800000E0
FF800000F0
FF800000F0
FF800000F0
FFC00000F0
FFC00001F0
7FE00001F0
7FF00003F0
7FF80003F0
3FFC000FF0
3FFF001FF0
1FFFFFFFF0
0FFFFFFFE0
07FFFFFFC0
03FFFFFF80
01FFFFFF00
007FFFFC00
001FFFF000
0003FE0000
ENDCHAR
STARTCHAR 00C0
ENCODING 192
SWIDTH 652 0
DWIDTH 60 0
BBX 55 87 3 1
BITMAP
0000003C000000
0000007E000000
000000FF000000
000000FF800000
000000FFC00000
000000FFE00000
0000007FE00000
0000007FF00000
0000003FF80000
0000001FF80000
0000000FFC0000
00000003FE0000
00000001FE0000
00000000FE0000
000000003E0000
000000000E0000
00000000000000
00000000000000
00000000000000
00000000000000
00000000000000
00000000000000
00000000000000
00000000000000
00000003C00000
0000000FE00000
0000003FF00000
0000007FF00000
000000FFF80000
000000FFF80000
000001FFF80000
000001FFF80000
000003FFFC0000
000003FFFC0000
000007FFFC0000
000007FFFE0000
00000FFBFE0000
00000FF1FE0000
00001FF1FF0000
00001FE1FF0000
00003FE0FF0000
00003FC0FF8000
00007FC0FF8000
00007FC07F8000
0000FF807FC000
0000FF807FC000
0000FF003FC000
0001FF003FE000
0001FE003FE000
0003FE003FE000
0003FC001FF000
0003FC001FF000
0007F8001FF000
0007F8000FF800
000FF8000FF800
000FF0000FF800
000FF00007FC00
001FE00007FC00
001FE00007FC00
003FE00003FE00
003FFFFFFFFE00
007FFFFFFFFE00
007FFFFFFFFF00
00FFFFFFFFFF00
00FFFFFFFFFF00
00FFFFFFFFFF80
01FFFFFFFFFF80
01FFFFFFFFFF80
03FF800000FFC0
03FE0000007FC0
07FC0000007FC0
07FC0000003FE0
07F80000003FE0
0FF80000003FE0
0FF00000003FF0
0FF00000001FF0
1FF00000001FF8
1FE00000000FF8
3FE00000000FFC
3FC00000000FFC
7FC000000007FE
7F8000000007FE
7F8000000003FE
FF0000000003FC
FE0000000001F8
7E0000000001F0
380000000000E0
ENDCHAR
STARTCHAR 00C1
ENCODING 193
SWIDTH 652 0
DWIDTH 60 0
BBX 55 87 3 1
BITMAP
000000003C0000
000000007E0000
00000000FF0000
00000001FF0000
00000003FF0000
00000007FF0000
00000007FE0000
0000000FFE0000
0000001FFC0000
0000003FF80000
0000003FE00000
0000007FC00000
0000007F800000
0000007F000000
0000007C000000
00000070000000
00000000000000
00000000000000
00000000000000
00000000000000
00000000000000
00000000000000
00000000000000
00000000000000
00000003C00000
0000000FE00000
0000003FF00000
0000007FF00000
000000FFF80000
000000FFF80000
000001FFF80000
000001FFF80000
000003FFFC0000
000003FFFC0000
000007FFFC0000
000007FFFE0000
00000FFBFE0000
00000FF1FE0000
00001FF1FF0000
00001FE1FF0000
00003FE0FF0000
00003FC0FF8000
00007FC0FF8000
00007FC07F8000
0000FF807FC000
0000FF807FC000
0000FF003FC000
0001FF003FE000
0001FE003FE000
0003FE003FE000
0003FC001FF000
0003FC001FF000
0007F8001FF000
0007F8000FF800
000FF8000FF800
000FF0000FF800
000FF00007FC00
001FE00007FC00
001FE00007FC00
003FE00003FE00
003FFFFFFFFE00
007FFFFFFFFE00
007FFFFFFFFF00
00FFFFFFFFFF00
00FFFFFFFFFF00
00FFFFFFFFFF80
01FFFFFFFFFF80
01FFFFFFFFFF80
03FF800000FFC0
03FE0000007FC0
07FC0000007FC0
07FC0000003FE0
07F80000003FE0
0FF80000003FE0
0FF00000003FF0
0FF00000001FF0
1FF00000001FF8
1FE00000000FF8
3FE00000000FFC
3FC00000000FFC
7FC000000007FE
7F8000000007FE
7F8000000003FE
FF0000000003FC
FE0000000001F8
7E0000000001F0
380000000000E0
ENDCHAR
STARTCHAR 00C2
ENCODING 194
SWIDTH 652 0
DWIDTH 60 0
BBX 55 87 3 1
BITMAP
00000003C00000
00000007F00000
0000000FF00000
0000001FF80000
0000003FFC0000
0000007FFC0000
000000FFFE0000
000000FF7F0000
000001FE3F8000
000003FC1FC000
000007F81FC000
000007F00FE000
00000FF007F000
00000FE003F000
00000FC003F000
0000078000C000
00000000000000
00000000000000
00000000000000
00000000000000
00000000000000
00000000000000
00000000000000
00000000000000
00000003C00000
0000000FE00000
0000003FF00000
0000007FF00000
000000FFF80000
000000FFF80000
000001FFF80000
000001FFF80000
000003FFFC0000
000003FFFC0000
000007FFFC0000
000007FFFE0000
00000FFBFE0000
00000FF1FE0000
00001FF1FF0000
00001FE1FF0000
00003FE0FF0000
00003FC0FF8000
00007FC0FF8000
00007FC07F8000
0000FF807FC000
0000FF807FC000
0000FF003FC000
0001FF003FE000
0001FE003FE000
0003FE003FE000
0003FC001FF000
0003FC001FF000
0007F8001FF000
0007F8000FF800
000FF8000FF800
000FF0000FF800
000FF00007FC00
001FE00007FC00
001FE00007FC00
003FE00003FE00
003FFFFFFFFE00
007FFFFFFFFE00
007FFFFFFFFF00
00FFFFFFFFFF00
00FFFFFFFFFF00
00FFFFFFFFFF80
01FFFFFFFFFF80
01FFFFFFFFFF80
03FF800000FFC0
03FE0000007FC0
07FC0000007FC0
07FC0000003FE0
07F80000003FE0
0FF80000003FE0
0FF00000003FF0
0FF00000001FF0
1FF00000001FF8
1FE00000000FF8
3FE00000000FFC
3FC00000000FFC
7FC000000007FE
7F8000000007FE
7F8000000003FE
FF0000000003FC
FE0000000001F8
7E0000000001F0
380000000000E0
ENDCHAR
STARTCHAR 00C3
ENCODING 195
SWIDTH 652 0
DWIDTH 60 0
BBX 55 84 3 1
BITMAP
0000007C000000
000003FF000000
000007FFC00380
00000FFFE00780
00001FFFF00F80
00003FFFFC7F80
00003FCFFFFF80
00003E03FFFF00
00003C01FFFE00
00003000FFFC00
000000003FF000
000000000FC000
00000000000000
00000000000000
00000000000000
00000000000000
00000000000000
00000000000000
00000000000000
00000000000000
00000000000000
00000003C00000
0000000FE00000
0000003FF00000
0000007FF00000
000000FFF80000
000000FFF80000
000001FFF80000
000001FFF80000
000003FFFC0000
000003FFFC0000
000007FFFC0000
000007FFFE0000
00000FFBFE0000
00000FF1FE0000
00001FF1FF0000
00001FE1FF0000
00003FE0FF0000
00003FC0FF8000
00007FC0FF8000
00007FC07F8000
0000FF807FC000
0000FF807FC000
0000FF003FC000
0001FF003FE000
0001FE003FE000
0003FE003FE000
0003FC001FF000
0003FC001FF000
0007F8001FF000
0007F8000FF800
000FF8000FF800
000FF0000FF800
000FF00007FC00
001FE00007FC00
001FE00007FC00
003FE00003FE00
003FFFFFFFFE00
007FFFFFFFFE00
007FFFFFFFFF00
00FFFFFFFFFF00
00FFFFFFFFFF00
00FFFFFFFFFF80
01FFFFFFFFFF80
01FFFFFFFFFF80
03FF800000FFC0
03FE0000007FC0
07FC0000007FC0
07FC0000003FE0
07F80000003FE0
0FF80000003FE0
0FF00000003FF0
0FF00000001FF0
1FF00000001FF8
1FE00000000FF8
3FE00000000FFC
3FC00000000FFC
7FC000000007FE
7F8000000007FE
7F8000000003FE
FF0000000003FC
FE0000000001F8
7E0000000001F0
380000000000E0
ENDCHAR
STARTCHAR 00C4
ENCODING 196
SWIDTH 652 0
DWIDTH 60 0
BBX 55 84 3 1
BITMAP
000003C003C000
000007E007E000
00000FE00FE000
00000FF00FF000
00000FF00FF000
00000FF01FF000
00000FF00FF000
00000FE00FE000
00000FE00FE000
000007C00FC000
00000380078000
00000000000000
00000000000000
00000000000000
00000000000000
00000000000000
00000000000000
00000000000000
00000000000000
00000000000000
00000000000000
00000003C00000
0000000FE00000
0000003FF00000
0000007FF00000
000000FFF80000
000000FFF80000
000001FFF80000
000001FFF80000
000003FFFC0000
000003FFFC0000
000007FFFC0000
000007FFFE0000
00000FFBFE0000
00000FF1FE0000
00001FF1FF0000
00001FE1FF0000
00003FE0FF0000
00003FC0FF8000
00007FC0FF8000
00007FC07F8000
0000FF807FC000
0000FF807FC000
0000FF003FC000
0001FF003FE000
0001FE003FE000
0003FE003FE000
0003FC001FF000
0003FC001FF000
0007F8001FF000
0007F8000FF800
000FF8000FF800
000FF0000FF800
000FF00007FC00
001FE00007FC00
001FE00007FC00
003FE00003FE00
003FFFFFFFFE00
007FFFFFFFFE00
007FFFFFFFFF00
00FFFFFFFFFF00
00FFFFFFFFFF00
00FFFFFFFFFF80
01FFFFFFFFFF80
01FFFFFFFFFF80
03FF800000FFC0
03FE0000007FC0
07FC0000007FC0
07FC0000003FE0
07F80000003FE0
0FF80000003FE0
0FF00000003FF0
0FF00000001FF0
1FF00000001FF8
1FE00000000FF8
3FE00000000FFC
3FC00000000FFC
7FC000000007FE
7F8000000007FE
7F8000000003FE
FF0000000003FC
FE0000000001F8
7E0000000001F0
380000000000E0
ENDCHAR
STARTCHAR 00C5
ENCODING 197
SWIDTH 652 0
DWIDTH 60 0
BBX 55 89 3 0
BITMAP
00000007F00000
0000001FFE0000
0000007FFF0000
000000FFFF8000
000001FFFFC000
000003FC1FE000
000003F00FE000
000007E007F000
000007E003F000
000007E003F000
000007E003F000
000007E003F000
000007E003F000
000007E007E000
000007F00FE000
000003FC1FC000
000003FFFF8000
000001FFFF0000
000000FFFE0000
0000007FFC0000
0000000FE00000
00000000000000
00000000000000
00000000000000
00000000000000
00000000000000
00000003C00000
0000000FE00000
0000003FF00000
0000007FF00000
000000FFF80000
000000FFF80000
000001FFF80000
000001FFF80000
000003FFFC0000
000003FFFC0000
000007FFFC0000
000007FFFE0000
00000FFBFE0000
00000FF1FE0000
00001FF1FF0000
00001FE1FF0000
00003FE0FF0000
00003FC0FF8000
00007FC0FF8000
00007FC07F8000
0000FF807FC000
0000FF807FC000
0000FF003FC000
0001FF003FE000
0001FE003FE000
0003FE003FE000
0003FC001FF000
0003FC001FF000
0007F8001FF000
0007F8000FF800
000FF8000FF800
000FF0000FF800
000FF00007FC00
001FE00007FC00
001FE00007FC00
003FE00003FE00
003FFFFFFFFE00
007FFFFFFFFE00
007FFFFFFFFF00
00FFFFFFFFFF00
00FFFFFFFFFF00
00FFFFFFFFFF80
01FFFFFFFFFF80
01FFFFFFFFFF80
03FF800000FFC0
03FE0000007FC0
07FC0000007FC0
07FC0000003FE0
07F80000003FE0
0FF80000003FE0
0FF00000003FF0
0FF00000001FF0
1FF00000001FF8
1FE00000000FF8
3FE00000000FFC
3FC00000000FFC
7FC000000007FE
7F8000000007FE
7F8000000003FE
FF0000000003FC
FE0000000001F8
7E0000000001F0
380000000000E0
ENDCHAR
STARTCHAR 00C6
ENCODING 198
SWIDTH 1000 0
DWIDTH 92 0
BBX 86 63 3 0
BITMAP
000000000000001FFFFF00
0000000000001FFFFFFFC0
00000000000FFFFFFFFFE0
00000000007FFFFFFFFFE0
0000000001FFFFFFFFFFE0
0000000003FFFFFFFFFFC0
0000000007FFFFFFFFFF80
000000000FFFFFFFF9F800
000000000FFFFF80000000
000000001FFBFE00000000
000000003FF3FC00000000
000000003FE3FC00000000
000000007FE3FC00000000
000000007FC3FC00000000
00000000FF83FC00000000
00000001FF03FC00000000
00000001FF03FC00000000
00000003FE03FC00000000
00000007FC03FC00000000
0000000FFC03FC00000000
0000000FF803FC00000000
0000001FF003FC00000000
0000003FF003FC00000000
0000003FE007FC00000000
0000007FC007FC00000000
000000FFC007FC0001FF00
000000FF8007FE3FFFFF80
000001FF0007FFFFFFFF80
000003FE03FFFFFFFFFF80
000003FFFFFFFFFFFFFF80
000007FFFFFFFFFFFFFF00
00000FFFFFFFFFFFFFFC00
00000FFFFFFFFFFFFF0000
00001FFFFFFFFFC0000000
00003FFFFFFFFE00000000
00003FFFFF87FC00000000
00007FFC0007FC00000000
0000FF800007FC00000000
0000FF800007FC00000000
0001FF000007FC00000000
0003FE000007FC00000000
0003FE000007FC00000000
0007FC000007FC00000000
000FF8000007FC00000000
000FF8000007FC00000000
001FF0000007FC00000000
003FE0000007FC00000000
007FC0000007FC00000000
007FC0000007FC00000000
00FF80000007FC00000000
01FF00000007FC00000000
01FF00000007FE00000000
03FE00000007FE00000000
07FE00000003FE000001F8
0FFC00000003FFC001FFFC
0FF800000003FFFFFFFFFC
1FF800000003FFFFFFFFFC
3FF000000003FFFFFFFFFC
7FE000000001FFFFFFFFF8
7FE000000001FFFFFFFFF0
FF8000000000FFFFFFFFC0
FF00000000007FFFFFFE00
7C00000000001FFFFF8000
ENDCHAR
STARTCHAR 00C7
ENCODING 199
SWIDTH 586 0
DWIDTH 54 0
BBX 48 86 3 -21
BITMAP
000001FF0000
00001FFFF800
00007FFFFF00
0001FFFFFFC0
0003FFFFFFF0
000FFFFFFFF8
001FFFFFFFFC
003FFFFFFFFE
007FFE03FFFF
00FFF0003FFF
00FFC00007FF
01FF800003FF
03FF000001FF
03FE000001FF
07FC000000FF
0FFC000000FF
0FF8000000FF
0FF0000000FE
1FF0000000FC
1FF000000078
3FE000000000
3FE000000000
3FC000000000
3FC000000000
7FC000000000
7FC000000000
7FC000000000
7FC000000000
7F8000000000
7F8000000000
FF8000000000
FF8000000000
FF8000000000
FF8000000000
FF8000000000
FF8000000000
FF8000000000
FFC000000000
FFC000000000
FFC000000000
FFC000000000
7FC000000000
7FE000000000
7FE000000000
7FE000000000
7FF00000001E
3FF00000003F
3FF00000007F
3FF80000007F
1FFC000000FF
1FFC000001FF
0FFE000003FE
0FFF000007FE
07FFC0000FFE
03FFE0001FFC
01FFF8007FF8
01FFFFFFFFF8
00FFFFFFFFF0
007FFFFFFFE0
003FFFFFFF80
000FFFFFFF00
0007FFFFFC00
0001FFFFF000
00003FFFC000
00000FF80000
00000FFC0000
000003FF0000
000001FF8000
0000007FE000
0000001FF800
00000007FC00
00000003FE00
00000000FF00
000000007F80
000000003F80
0001C0003F80
0003C0003F80
0003C0007F80
0003E000FF80
0003F001FF80
0003FC07FF00
0003FFFFFE00
0001FFFFFC00
00007FFFF000
00001FFFC000
000000FC0000
ENDCHAR
STARTCHAR 00C8
ENCODING 200
SWIDTH 543 0
DWIDTH 50 0
BBX 44 87 3 1
BITMAP
0000F0000000
0001F8000000
0003FC000000
0003FE000000
0003FF000000
0003FF800000
0001FF800000
0001FFC00000
0000FFE00000
00007FE00000
00003FF00000
00000FF80000
000007F80000
000003F80000
000000F80000
000000380000
000000000000
000000000000
000000000000
000000000000
000000000000
000000000000
000000000000
000000000000
00007FFFFC00
007FFFFFFF00
0FFFFFFFFF80
7FFFFFFFFF80
7FFFFFFFFF80
FFFFFFFFFF00
7FFFFFFFFE00
7FFFFFE7E000
3FFE00000000
1FF800000000
1FF000000000
0FF000000000
0FF000000000
0FF000000000
0FF000000000
0FF000000000
0FF000000000
0FF000000000
0FF000000000
0FF000000000
0FF000000000
0FF000000000
1FF000000000
1FF000000000
1FF000000000
1FF00007FC00
1FF8FFFFFE00
1FFFFFFFFE00
1FFFFFFFFE00
1FFFFFFFFE00
1FFFFFFFFC00
1FFFFFFFF000
1FFFFFFC0000
1FFF00000000
1FF800000000
1FF000000000
1FF000000000
1FF000000000
1FF000000000
1FF000000000
1FF000000000
1FF000000000
1FF000000000
1FF000000000
1FF000000000
1FF000000000
1FF000000000
1FF000000000
1FF000000000
1FF000000000
1FF000000000
1FF800000000
1FF800000000
0FF8000007E0
0FFF0007FFF0
0FFFFFFFFFF0
0FFFFFFFFFF0
07FFFFFFFFF0
07FFFFFFFFE0
03FFFFFFFFC0
01FFFFFFFF00
007FFFFFF800
0007FFFE0000
ENDCHAR
STARTCHAR 00C9
ENCODING 201
SWIDTH 543 0
DWIDTH 50 0
BBX 44 87 3 1
BITMAP
000000F00000
000001F80000
000003FC0000
000007FC0000
00000FFC0000
00001FFC0000
00001FF80000
00003FF80000
00007FF00000
0000FFE00000
0000FF800000
0001FF000000
0001FE000000
0001FC000000
0001F0000000
0001C0000000
000000000000
000000000000
000000000000
000000000000
000000000000
000000000000
000000000000
000000000000
00007FFFFC00
007FFFFFFF00
0FFFFFFFFF80
7FFFFFFFFF80
7FFFFFFFFF80
FFFFFFFFFF00
7FFFFFFFFE00
7FFFFFE7E000
3FFE00000000
1FF800000000
1FF000000000
0FF000000000
0FF000000000
0FF000000000
0FF000000000
0FF000000000
0FF000000000
0FF000000000
0FF000000000
0FF000000000
0FF000000000
0FF000000000
1FF000000000
1FF000000000
1FF000000000
1FF00007FC00
1FF8FFFFFE00
1FFFFFFFFE00
1FFFFFFFFE00
1FFFFFFFFE00
1FFFFFFFFC00
1FFFFFFFF000
1FFFFFFC0000
1FFF00000000
1FF800000000
1FF000000000
1FF000000000
1FF000000000
1FF000000000
1FF000000000
1FF000000000
1FF000000000
1FF000000000
1FF000000000
1FF000000000
1FF000000000
1FF000000000
1FF000000000
1FF000000000
1FF000000000
1FF000000000
1FF800000000
1FF800000000
0FF8000007E0
0FFF0007FFF0
0FFFFFFFFFF0
0FFFFFFFFFF0
07FFFFFFFFF0
07FFFFFFFFE0
03FFFFFFFFC0
01FFFFFFFF00
007FFFFFF800
0007FFFE0000
ENDCHAR
STARTCHAR 00CA
ENCODING 202
SWIDTH 543 0
DWIDTH 50 0
BBX 44 87 3 1
BITMAP
00000F000000
00001FC00000
00003FC00000
00007FE00000
0000FFF00000
0001FFF00000
0003FFF80000
0003FDFC0000
0007F8FE0000
000FF07E0000
001FE07F0000
001FC03F8000
003F801FC000
003F800FC000
003F000FC000
001E00030000
000000000000
000000000000
000000000000
000000000000
000000000000
000000000000
000000000000
000000000000
00007FFFFC00
007FFFFFFF00
0FFFFFFFFF80
7FFFFFFFFF80
7FFFFFFFFF80
FFFFFFFFFF00
7FFFFFFFFE00
7FFFFFE7E000
3FFE00000000
1FF800000000
1FF000000000
0FF000000000
0FF000000000
0FF000000000
0FF000000000
0FF000000000
0FF000000000
0FF000000000
0FF000000000
0FF000000000
0FF000000000
0FF000000000
1FF000000000
1FF000000000
1FF000000000
1FF00007FC00
1FF8FFFFFE00
1FFFFFFFFE00
1FFFFFFFFE00
1FFFFFFFFE00
1FFFFFFFFC00
1FFFFFFFF000
1FFFFFFC0000
1FFF00000000
1FF800000000
1FF000000000
1FF000000000
1FF000000000
1FF000000000
1FF000000000
1FF000000000
1FF000000000
1FF000000000
1FF000000000
1FF000000000
1FF000000000
1FF000000000
1FF000000000
1FF000000000
1FF000000000
1FF000000000
1FF800000000
1FF800000000
0FF8000007E0
0FFF0007FFF0
0FFFFFFFFFF0
0FFFFFFFFFF0
07FFFFFFFFF0
07FFFFFFFFE0
03FFFFFFFFC0
01FFFFFFFF00
007FFFFFF800
0007FFFE0000
ENDCHAR
STARTCHAR 00CB
ENCODING 203
SWIDTH 543 0
DWIDTH 50 0
BBX 44 84 3 1
BITMAP
0007000F0000
001F801F8000
001FC03F8000
003FC03FC000
003FC03FC000
003FC03FC000
003FC03FC000
003FC03FC000
003F803F8000
001F801F0000
000E000E0000
000000000000
000000000000
000000000000
000000000000
000000000000
000000000000
000000000000
000000000000
000000000000
000000000000
00007FFFFC00
007FFFFFFF00
0FFFFFFFFF80
7FFFFFFFFF80
7FFFFFFFFF80
FFFFFFFFFF00
7FFFFFFFFE00
7FFFFFE7E000
3FFE00000000
1FF800000000
1FF000000000
0FF000000000
0FF000000000
0FF000000000
0FF000000000
0FF000000000
0FF000000000
0FF000000000
0FF000000000
0FF000000000
0FF000000000
0FF000000000
1FF000000000
1FF000000000
1FF000000000
1FF00007FC00
1FF8FFFFFE00
1FFFFFFFFE00
1FFFFFFFFE00
1FFFFFFFFE00
1FFFFFFFFC00
1FFFFFFFF000
1FFFFFFC0000
1FFF00000000
1FF800000000
1FF000000000
1FF000000000
1FF000000000
1FF000000000
1FF000000000
1FF000000000
1FF000000000
1FF000000000
1FF000000000
1FF000000000
1FF000000000
1FF000000000
1FF000000000
1FF000000000
1FF000000000
1FF000000000
1FF800000000
1FF800000000
0FF8000007E0
0FFF0007FFF0
0FFFFFFFFFF0
0FFFFFFFFFF0
07FFFFFFFFF0
07FFFFFFFFE0
03FFFFFFFFC0
01FFFFFFFF00
007FFFFFF800
0007FFFE0000
ENDCHAR
STARTCHAR 00CC
ENCODING 204
SWIDTH 271 0
DWIDTH 25 0
BBX 19 87 3 0
BITMAP
0E0000
3F0000
3F8000
7FC000
7FE000
7FF000
3FF800
1FF800
1FFC00
0FFE00
03FE00
01FF00
00FF00
007F80
001F80
000700
000000
000000
000000
000000
000000
000000
000000
000000
03FF00
3FFFC0
7FFFE0
7FFFE0
FFFFE0
7FFFC0
7FFF80
3FFF00
3FFF00
1FFE00
0FFC00
0FF800
0FF800
0FF800
0FF800
0FF800
0FF800
0FF800
0FF800
0FF800
0FF800
0FF800
0FF800
0FF800
0FF800
1FF800
1FF800
1FF800
1FF800
1FF800
1FF800
1FF800
1FF800
1FF800
1FF800
1FF800
1FF800
1FF800
1FF800
1FF800
1FF800
1FF800
1FF800
1FF800
1FF800
1FF800
1FF800
1FF800
1FF800
1FF800
1FF800
0FF800
0FF800
0FF800
0FFC00
0FFE00
1FFF00
1FFFC0
3FFFE0
7FFFE0
7FFFE0
7FFFE0
7FFF00
ENDCHAR
STARTCHAR 00CD
ENCODING 205
SWIDTH 271 0
DWIDTH 25 0
BBX 19 87 3 0
BITMAP
000E00
003F00
007F80
00FF80
01FF80
01FF80
03FF00
07FF00
0FFE00
0FFC00
1FF800
1FF000
3FC000
3F8000
3E0000
180000
000000
000000
000000
000000
000000
000000
000000
000000
03FF00
3FFFC0
7FFFE0
7FFFE0
FFFFE0
7FFFC0
7FFF80
3FFF00
3FFF00
1FFE00
0FFC00
0FF800
0FF800
0FF800
0FF800
0FF800
0FF800
0FF800
0FF800
0FF800
0FF800
0FF800
0FF800
0FF800
0FF800
1FF800
1FF800
1FF800
1FF800
1FF800
1FF800
1FF800
1FF800
1FF800
1FF800
1FF800
1FF800
1FF800
1FF800
1FF800
1FF800
1FF800
1FF800
1FF800
1FF800
1FF800
1FF800
1FF800
1FF800
1FF800
1FF800
0FF800
0FF800
0FF800
0FFC00
0FFE00
1FFF00
1FFFC0
3FFFE0
7FFFE0
7FFFE0
7FFFE0
7FFF00
ENDCHAR
STARTCHAR 00CE
ENCODING 206
SWIDTH 271 0
DWIDTH 25 0
BBX 24 87 0 0
BITMAP
001E00
003F00
007F80
00FFC0
01FFC0
03FFE0
07FFF0
0FF3F8
1FE3F8
1FC1FC
3FC0FE
7F807E
7F007F
FE003F
7C001F
38000C
000000
000000
000000
000000
000000
000000
000000
000000
007FE0
07FFF8
0FFFFC
0FFFFC
1FFFFC
0FFFF8
0FFFF0
07FFE0
07FFE0
03FFC0
01FF80
01FF00
01FF00
01FF00
01FF00
01FF00
01FF00
01FF00
01FF00
01FF00
01FF00
01FF00
01FF00
01FF00
01FF00
03FF00
03FF00
03FF00
03FF00
03FF00
03FF00
03FF00
03FF00
03FF00
03FF00
03FF00
03FF00
03FF00
03FF00
03FF00
03FF00
03FF00
03FF00
03FF00
03FF00
03FF00
03FF00
03FF00
03FF00
03FF00
03FF00
01FF00
01FF00
01FF00
01FF80
01FFC0
03FFE0
03FFF8
07FFFC
0FFFFC
0FFFFC
0FFFFC
0FFFE0
ENDCHAR
STARTCHAR 00CF
ENCODING 207
SWIDTH 271 0
DWIDTH 25 0
BBX 24 84 1 0
BITMAP
3C0038
7E007C
FE00FE
FF00FE
FF01FF
FF01FE
FF01FE
FE01FE
FE00FE
7C00FC
780078
000000
000000
000000
000000
000000
000000
000000
000000
000000
000000
00FFC0
0FFFF0
1FFFF8
1FFFF8
3FFFF8
1FFFF0
1FFFE0
0FFFC0
0FFFC0
07FF80
03FF00
03FE00
03FE00
03FE00
03FE00
03FE00
03FE00
03FE00
03FE00
03FE00
03FE00
03FE00
03FE00
03FE00
03FE00
07FE00
07FE00
07FE00
07FE00
07FE00
07FE00
07FE00
07FE00
07FE00
07FE00
07FE00
07FE00
07FE00
07FE00
07FE00
07FE00
07FE00
07FE00
07FE00
07FE00
07FE00
07FE00
07FE00
07FE00
07FE00
07FE00
03FE00
03FE00
03FE00
03FF00
03FF80
07FFC0
07FFF0
0FFFF8
1FFFF8
1FFFF8
1FFFF8
1FFFC0
ENDCHAR
STARTCHAR 00D0
ENCODING 208
SWIDTH 673 0
DWIDTH 62 0
BBX 56 63 3 0
BITMAP
003FFFF0000000
01FFFFFF800000
07FFFFFFF80000
0FFFFFFFFE0000
0FFFFFFFFF8000
0FFFFFFFFFE000
0FFFFFFFFFF000
07FF001FFFFC00
03FF0001FFFE00
01FF00003FFF00
01FF00000FFF80
01FF000003FFC0
01FF000000FFE0
01FF0000007FE0
01FE0000003FF0
01FE0000001FF0
01FE0000000FF8
01FE0000000FF8
01FE00000007FC
01FE00000003FC
03FE00000003FE
03FE00000003FE
03FE00000001FE
03FE00000001FF
03FE00000001FF
03FE00000001FF
03FE00000000FF
03FE00000000FF
1FFFFFFF0000FF
7FFFFFFF8000FF
7FFFFFFF8000FF
FFFFFFFF0000FF
FFFFFFFF0000FF
FFFFFFFE0000FF
7FFFFFF80000FF
03FE00000000FF
03FE00000001FF
03FE00000001FF
03FE00000001FF
03FE00000001FE
03FE00000003FE
03FE00000003FE
03FE00000003FC
03FE00000007FC
03FE00000007FC
03FE0000000FF8
03FE0000000FF8
03FE0000001FF0
03FE0000003FF0
03FE0000007FE0
03FE000000FFC0
03FE000001FFC0
03FF000007FF80
03FFE0001FFF00
03FFFC01FFFE00
03FFFFFFFFFC00
03FFFFFFFFF800
03FFFFFFFFE000
01FFFFFFFFC000
007FFFFFFF0000
001FFFFFFC0000
0003FFFFE00000
00001FFE000000
ENDCHAR
STARTCHAR 00D1
ENCODING 209
SWIDTH 630 0
DWIDTH 58 0
BBX 52 84 4 1
BITMAP
00007C00000000
0003FF00000000
000FFFC0030000
001FFFE0078000
003FFFF00F8000
003FFFFC7F8000
003FCFFFFF8000
003E03FFFF0000
003801FFFE0000
003000FFFC0000
0000003FF00000
0000000FC00000
00000000000000
00000000000000
00000000000000
00000000000000
00000000000000
00000000000000
00000000000000
00000000000000
00000000000000
000000000007E0
3F800000000FF0
7FC00000001FF0
FFE00000003FF0
FFF00000003FF0
FFF80000003FF0
FFFC0000003FF0
FFFC0000003FF0
FFFE0000003FF0
FFFE0000001FF0
FFFF0000001FF0
FFFF8000001FF0
FFFF8000001FF0
FFFFC000001FF0
FFFFC000001FF0
FFBFE000001FF0
FF9FF000001FF0
FF8FF000001FF0
FF8FF800001FF0
FF87F800001FF0
FF87FC00001FF0
FF03FE00001FE0
FF01FE00001FE0
FF01FF00001FE0
FF00FF80001FE0
FF00FF80001FE0
FF007FC0001FE0
FF003FE0001FE0
FF003FE0001FE0
FF001FF0001FE0
FF000FF8001FE0
FF000FF8001FE0
FF0007FC001FE0
FF0003FE001FE0
FF0003FE001FE0
FF8001FF001FE0
FF8000FF801FE0
FF8000FF801FE0
FF80007FC01FE0
FF80007FE01FE0
FF80003FF01FE0
FF80001FF01FE0
FF80000FF81FE0
FF80000FFC1FE0
FF800007FE1FE0
FF800003FF1FE0
FF800003FF9FE0
FF800001FFDFE0
FF800000FFFFE0
FF800000FFFFF0
FF8000007FFFF0
FF8000003FFFF0
FF8000003FFFF0
FF8000001FFFF0
FF8000000FFFF0
FF80000007FFF0
FF80000003FFF0
FF00000003FFE0
FF00000001FFE0
FE00000000FFC0
FE000000007F80
FC000000000000
78000000000000
ENDCHAR
STARTCHAR 00D2
ENCODING 210
SWIDTH 663 0
DWIDTH 61 0
BBX 56 87 3 1
BITMAP
00000380000000
000007E0000000
00000FF0000000
00000FF8000000
00000FF8000000
00000FFC000000
00000FFE000000
000007FF000000
000003FF000000
000001FF800000
000000FFC00000
0000007FC00000
0000001FE00000
0000000FE00000
00000007E00000
00000001C00000
00000000000000
00000000000000
00000000000000
00000000000000
00000000000000
00000000000000
00000000000000
00000000000000
000000FFC00000
00000FFFFC0000
00003FFFFF8000
0000FFFFFFE000
0003FFFFFFF000
0007FFFFFFFC00
000FFFFFFFFE00
001FFFFFFFFF00
003FFE007FFF80
007FF0000FFFC0
00FFC00003FFE0
01FF800000FFE0
03FF0000007FF0
03FE0000003FF0
07FC0000001FF8
0FF80000001FF8
0FF00000000FFC
1FF000000007FC
1FE000000007FC
1FC000000007FE
3FC000000003FE
3FC000000003FE
3F8000000003FE
7F8000000003FE
7F8000000003FF
7F8000000001FF
7F0000000001FF
FF0000000001FF
FF0000000001FF
FF0000000001FF
FF0000000001FF
FF0000000001FF
FF0000000001FF
FF0000000001FF
FF0000000001FF
FF0000000001FE
FF0000000001FE
FF0000000003FE
FF8000000003FE
FF8000000003FE
7F8000000003FC
7FC000000007FC
7FC000000007FC
7FC00000000FF8
3FE00000000FF8
3FE00000001FF0
1FF00000001FF0
1FF80000003FE0
0FF80000007FE0
0FFC000000FFC0
07FE000001FFC0
07FF800003FF80
03FFC00007FF00
01FFF0001FFE00
00FFFE00FFFC00
007FFFFFFFF800
003FFFFFFFF000
001FFFFFFFE000
000FFFFFFFC000
0003FFFFFF0000
0000FFFFFC0000
00003FFFF00000
000003FF000000
ENDCHAR
STARTCHAR 00D3
ENCODING 211
SWIDTH 663 0
DWIDTH 61 0
BBX 56 87 3 1
BITMAP
00000003800000
0000000FE00000
0000001FE00000
0000001FF00000
0000003FF00000
0000007FE00000
000000FFE00000
000001FFC00000
000001FF800000
000003FF000000
000003FE000000
000007FC000000
000007F8000000
00000FE0000000
00000FC0000000
00000700000000
00000000000000
00000000000000
00000000000000
00000000000000
00000000000000
00000000000000
00000000000000
00000000000000
000000FFC00000
00000FFFFC0000
00003FFFFF8000
0000FFFFFFE000
0003FFFFFFF000
0007FFFFFFFC00
000FFFFFFFFE00
001FFFFFFFFF00
003FFE007FFF80
007FF0000FFFC0
00FFC00003FFE0
01FF800000FFE0
03FF0000007FF0
03FE0000003FF0
07FC0000001FF8
0FF80000001FF8
0FF00000000FFC
1FF000000007FC
1FE000000007FC
1FC000000007FE
3FC000000003FE
3FC000000003FE
3F8000000003FE
7F8000000003FE
7F8000000003FF
7F8000000001FF
7F0000000001FF
FF0000000001FF
FF0000000001FF
FF0000000001FF
FF0000000001FF
FF0000000001FF
FF0000000001FF
FF0000000001FF
FF0000000001FF
FF0000000001FE
FF0000000001FE
FF0000000003FE
FF8000000003FE
FF8000000003FE
7F8000000003FC
7FC000000007FC
7FC000000007FC
7FC00000000FF8
3FE00000000FF8
3FE00000001FF0
1FF00000001FF0
1FF80000003FE0
0FF80000007FE0
0FFC000000FFC0
07FE000001FFC0
07FF800003FF80
03FFC00007FF00
01FFF0001FFE00
00FFFE00FFFC00
007FFFFFFFF800
003FFFFFFFF000
001FFFFFFFE000
000FFFFFFFC000
0003FFFFFF0000
0000FFFFFC0000
00003FFFF00000
000003FF000000
ENDCHAR
STARTCHAR 00D4
ENCODING 212
SWIDTH 663 0
DWIDTH 61 0
BBX 56 87 3 1
BITMAP
0000003C000000
0000007E000000
000000FF000000
000001FF800000
000003FF800000
000007FFC00000
00000FFFE00000
00001FE7F00000
00001FC3F00000
00003FC3F80000
00007F81FC0000
0000FF00FE0000
0000FE00FE0000
0000FC007F0000
0000F8003E0000
000070001C0000
00000000000000
00000000000000
00000000000000
00000000000000
00000000000000
00000000000000
00000000000000
00000000000000
000000FFC00000
00000FFFFC0000
00003FFFFF8000
0000FFFFFFE000
0003FFFFFFF000
0007FFFFFFFC00
000FFFFFFFFE00
001FFFFFFFFF00
003FFE007FFF80
007FF0000FFFC0
00FFC00003FFE0
01FF800000FFE0
03FF0000007FF0
03FE0000003FF0
07FC0000001FF8
0FF80000001FF8
0FF00000000FFC
1FF000000007FC
1FE000000007FC
1FC000000007FE
3FC000000003FE
3FC000000003FE
3F8000000003FE
7F8000000003FE
7F8000000003FF
7F8000000001FF
7F0000000001FF
FF0000000001FF
FF0000000001FF
FF0000000001FF
FF0000000001FF
FF0000000001FF
FF0000000001FF
FF0000000001FF
FF0000000001FF
FF0000000001FE
FF0000000001FE
FF0000000003FE
FF8000000003FE
FF8000000003FE
7F8000000003FC
7FC000000007FC
7FC000000007FC
7FC00000000FF8
3FE00000000FF8
3FE00000001FF0
1FF00000001FF0
1FF80000003FE0
0FF80000007FE0
0FFC000000FFC0
07FE000001FFC0
07FF800003FF80
03FFC00007FF00
01FFF0001FFE00
00FFFE00FFFC00
007FFFFFFFF800
003FFFFFFFF000
001FFFFFFFE000
000FFFFFFFC000
0003FFFFFF0000
0000FFFFFC0000
00003FFFF00000
000003FF000000
ENDCHAR
STARTCHAR 00D5
ENCODING 213
SWIDTH 663 0
DWIDTH 61 0
BBX 56 84 3 1
BITMAP
00001F00000000
00007FE0000000
0001FFF0006000
0003FFF801E000
0007FFFC03F000
000FFFFF0FF000
000FF3FFFFE000
000F807FFFC000
000F003FFF8000
0006001FFF0000
0000000FFE0000
00000003F80000
00000000000000
00000000000000
00000000000000
00000000000000
00000000000000
00000000000000
00000000000000
00000000000000
00000000000000
000000FFC00000
00000FFFFC0000
00003FFFFF8000
0000FFFFFFE000
0003FFFFFFF000
0007FFFFFFFC00
000FFFFFFFFE00
001FFFFFFFFF00
003FFE007FFF80
007FF0000FFFC0
00FFC00003FFE0
01FF800000FFE0
03FF0000007FF0
03FE0000003FF0
07FC0000001FF8
0FF80000001FF8
0FF00000000FFC
1FF000000007FC
1FE000000007FC
1FC000000007FE
3FC000000003FE
3FC000000003FE
3F8000000003FE
7F8000000003FE
7F8000000003FF
7F8000000001FF
7F0000000001FF
FF0000000001FF
FF0000000001FF
FF0000000001FF
FF0000000001FF
FF0000000001FF
FF0000000001FF
FF0000000001FF
FF0000000001FF
FF0000000001FE
FF0000000001FE
FF0000000003FE
FF8000000003FE
FF8000000003FE
7F8000000003FC
7FC000000007FC
7FC000000007FC
7FC00000000FF8
3FE00000000FF8
3FE00000001FF0
1FF00000001FF0
1FF80000003FE0
0FF80000007FE0
0FFC000000FFC0
07FE000001FFC0
07FF800003FF80
03FFC00007FF00
01FFF0001FFE00
00FFFE00FFFC00
007FFFFFFFF800
003FFFFFFFF000
001FFFFFFFE000
000FFFFFFFC000
0003FFFFFF0000
0000FFFFFC0000
00003FFFF00000
000003FF000000
ENDCHAR
STARTCHAR 00D6
ENCODING 214
SWIDTH 663 0
DWIDTH 61 0
BBX 56 84 3 1
BITMAP
00003C003C0000
00007E007E0000
0000FE00FE0000
0000FF00FF0000
0000FF01FF0000
0000FF01FF0000
0000FF01FE0000
0000FE00FE0000
0000FE00FE0000
00007C00FC0000
00007800780000
00000000000000
00000000000000
00000000000000
00000000000000
00000000000000
00000000000000
00000000000000
00000000000000
00000000000000
00000000000000
000000FFC00000
00000FFFFC0000
00003FFFFF8000
0000FFFFFFE000
0003FFFFFFF000
0007FFFFFFFC00
000FFFFFFFFE00
001FFFFFFFFF00
003FFE007FFF80
007FF0000FFFC0
00FFC00003FFE0
01FF800000FFE0
03FF0000007FF0
03FE0000003FF0
07FC0000001FF8
0FF80000001FF8
0FF00000000FFC
1FF000000007FC
1FE000000007FC
1FC000000007FE
3FC000000003FE
3FC000000003FE
3F8000000003FE
7F8000000003FE
7F8000000003FF
7F8000000001FF
7F0000000001FF
FF0000000001FF
FF0000000001FF
FF0000000001FF
FF0000000001FF
FF0000000001FF
FF0000000001FF
FF0000000001FF
FF0000000001FF
FF0000000001FE
FF0000000001FE
FF0000000003FE
FF8000000003FE
FF8000000003FE
7F8000000003FC
7FC000000007FC
7FC000000007FC
7FC00000000FF8
3FE00000000FF8
3FE00000001FF0
1FF00000001FF0
1FF80000003FE0
0FF80000007FE0
0FFC000000FFC0
07FE000001FFC0
07FF800003FF80
03FFC00007FF00
01FFF0001FFE00
00FFFE00FFFC00
007FFFFFFFF800
003FFFFFFFF000
001FFFFFFFE000
000FFFFFFFC000
0003FFFFFF0000
0000FFFFFC0000
00003FFFF00000
000003FF000000
ENDCHAR
STARTCHAR 00D7
ENCODING 215
SWIDTH 445 0
DWIDTH 41 0
BBX 35 36 3 8
BITMAP
0000000100
1C00000380
7E00000FC0
FF00001FC0
FF80003FC0
FFC0007FC0
7FE000FFC0
3FF001FFC0
1FF803FF80
0FFC03FF00
07FE07FE00
03FF0FFC00
01FF9FF800
00FFFFF000
007FFFE000
003FFFC000
001FFF8000
000FFF0000
0007FE0000
000FFF0000
001FFF8000
003FFFC000
007FFFE000
00FFFFF000
01FF9FF800
03FF0FFC00
07FE07FE00
0FFC03FF00
1FF801FF80
3FF000FFC0
3FE0007FE0
7FC0003FE0
7F80001FE0
3F00000FE0
3E000007E0
1C000003C0
ENDCHAR
STARTCHAR 00D8
ENCODING 216
SWIDTH 663 0
DWIDTH 61 0
BBX 55 81 3 -8
BITMAP
00000000000600
00000000007F80
0000000000FF80
0000000001FF80
0000000003FF00
0000000003FE00
0000000007FE00
000001FFE7FC00
00000FFFFFFC00
00007FFFFFF800
0000FFFFFFF800
0003FFFFFFF000
0007FFFFFFF800
000FFFFFFFFC00
001FFFFFFFFE00
003FFFFFFFFF00
007FFC003FFF80
00FFF0007FFFC0
01FFC0007FFFE0
03FF8000FFFFE0
03FF0000FFBFF0
07FE0000FF1FF0
07FC0001FF1FF8
0FF80001FE0FF8
0FF00003FE07F8
1FF00003FC07FC
1FE00003FC07FC
3FE00007FC03FC
3FC00007F803FC
3FC0000FF803FE
7FC0000FF003FE
7F80000FF003FE
7F80001FE001FE
7F80001FE001FE
7F80003FE001FE
FF00003FC001FE
FF00003FC001FE
FF00007F8001FE
FF00007F8001FE
FF0000FF8001FE
FF0000FF0001FE
FF0000FF0001FE
FF0001FE0001FE
FF0001FE0001FE
FF0003FC0001FE
FF0003FC0003FE
FF0007FC0003FE
FF0007F80003FC
7F8007F80003FC
7F800FF00003FC
7F800FF00007FC
7F801FF00007F8
7FC01FE0000FF8
3FC01FE0000FF0
3FE03FC0000FF0
3FE03FC0001FF0
1FF07F80003FE0
1FF07F80003FE0
0FF87F80007FC0
0FFCFF0000FF80
07FCFF0001FF80
03FFFE0003FF00
03FFFE000FFE00
01FFFE001FFC00
00FFFE00FFFC00
007FFFFFFFF800
003FFFFFFFE000
001FFFFFFFC000
000FFFFFFF8000
001FFFFFFE0000
001FFFFFF80000
003FFFFFE00000
003FE3FF000000
003FC000000000
007FC000000000
007F8000000000
007F8000000000
00FF0000000000
00FF0000000000
007E0000000000
00380000000000
ENDCHAR
STARTCHAR 00D9
ENCODING 217
SWIDTH 630 0
DWIDTH 58 0
BBX 52 87 3 1
BITMAP
00000F00000000
00001F80000000
00003FC0000000
00003FE0000000
00003FF0000000
00003FF8000000
00001FF8000000
00001FFC000000
00000FFE000000
000007FE000000
000003FF000000
000000FF800000
0000007F800000
0000003F800000
0000000F800000
00000003800000
00000000000000
00000000000000
00000000000000
00000000000000
00000000000000
00000000000000
00000000000780
0F800000001FE0
3FC00000003FE0
7FC00000003FF0
7FC00000007FF0
FFC00000007FF0
FFC00000003FF0
FFC00000003FE0
7FC00000003FE0
7FC00000003FE0
7FC00000003FE0
7FC00000003FE0
FFC00000003FE0
FFC00000003FE0
FFC00000003FE0
FF800000003FE0
FF800000003FE0
FF800000003FE0
FF800000003FE0
FF800000007FE0
FF800000007FE0
FF800000007FC0
FF800000007FC0
FF800000007FC0
FF800000007FC0
FF800000007FC0
FF800000007FC0
FF800000007FC0
FF800000007FC0
FF800000007FC0
FF800000007FC0
FF800000007FC0
FF800000007FC0
FF800000007FC0
FF800000007FC0
FF800000007FC0
FF80000000FFC0
FF80000000FFC0
FF80000000FFC0
FF80000000FFC0
FF80000000FFC0
FF80000000FF80
FF80000000FF80
7F80000000FF80
7FC0000001FF80
7FC0000001FF80
7FC0000001FF00
7FC0000003FF00
7FE0000003FF00
3FE0000003FE00
3FF0000007FE00
3FF0000007FE00
1FF800000FFC00
1FFC00001FFC00
0FFE00003FF800
07FF00007FF000
07FFC000FFF000
03FFF807FFE000
01FFFFFFFFC000
00FFFFFFFF8000
007FFFFFFF0000
001FFFFFFE0000
0007FFFFF80000
0001FFFFE00000
00001FFE000000
ENDCHAR
STARTCHAR 00DA
ENCODING 218
SWIDTH 630 0
DWIDTH 58 0
BBX 52 87 3 1
BITMAP
0000000F000000
0000001F800000
0000003FC00000
0000007FC00000
000000FFC00000
000001FFC00000
000001FF800000
000003FF800000
000007FF000000
00000FFE000000
00000FF8000000
00001FF0000000
00001FE0000000
00001FC0000000
00001F00000000
00001C00000000
00000000000000
00000000000000
00000000000000
00000000000000
00000000000000
00000000000000
00000000000780
0F800000001FE0
3FC00000003FE0
7FC00000003FF0
7FC00000007FF0
FFC00000007FF0
FFC00000003FF0
FFC00000003FE0
7FC00000003FE0
7FC00000003FE0
7FC00000003FE0
7FC00000003FE0
FFC00000003FE0
FFC00000003FE0
FFC00000003FE0
FF800000003FE0
FF800000003FE0
FF800000003FE0
FF800000003FE0
FF800000007FE0
FF800000007FE0
FF800000007FC0
FF800000007FC0
FF800000007FC0
FF800000007FC0
FF800000007FC0
FF800000007FC0
FF800000007FC0
FF800000007FC0
FF800000007FC0
FF800000007FC0
FF800000007FC0
FF800000007FC0
FF800000007FC0
FF800000007FC0
FF800000007FC0
FF80000000FFC0
FF80000000FFC0
FF80000000FFC0
FF80000000FFC0
FF80000000FFC0
FF80000000FF80
FF80000000FF80
7F80000000FF80
7FC0000001FF80
7FC0000001FF80
7FC0000001FF00
7FC0000003FF00
7FE0000003FF00
3FE0000003FE00
3FF0000007FE00
3FF0000007FE00
1FF800000FFC00
1FFC00001FFC00
0FFE00003FF800
07FF00007FF000
07FFC000FFF000
03FFF807FFE000
01FFFFFFFFC000
00FFFFFFFF8000
007FFFFFFF0000
001FFFFFFE0000
0007FFFFF80000
0001FFFFE00000
00001FFE000000
ENDCHAR
STARTCHAR 00DB
ENCODING 219
SWIDTH 630 0
DWIDTH 58 0
BBX 52 87 3 1
BITMAP
000000F0000000
000001FC000000
000003FC000000
000007FE000000
00000FFF000000
00001FFF000000
00003FFF800000
00003FDFC00000
00007F8FE00000
0000FF07F00000
0001FE07F00000
0001FC03F80000
0003FC01FC0000
0003F800FC0000
0003F000FC0000
0001E000300000
00000000000000
00000000000000
00000000000000
00000000000000
00000000000000
00000000000000
00000000000780
0F800000001FE0
3FC00000003FE0
7FC00000003FF0
7FC00000007FF0
FFC00000007FF0
FFC00000003FF0
FFC00000003FE0
7FC00000003FE0
7FC00000003FE0
7FC00000003FE0
7FC00000003FE0
FFC00000003FE0
FFC00000003FE0
FFC00000003FE0
FF800000003FE0
FF800000003FE0
FF800000003FE0
FF800000003FE0
FF800000007FE0
FF800000007FE0
FF800000007FC0
FF800000007FC0
FF800000007FC0
FF800000007FC0
FF800000007FC0
FF800000007FC0
FF800000007FC0
FF800000007FC0
FF800000007FC0
FF800000007FC0
FF800000007FC0
FF800000007FC0
FF800000007FC0
FF800000007FC0
FF800000007FC0
FF80000000FFC0
FF80000000FFC0
FF80000000FFC0
FF80000000FFC0
FF80000000FFC0
FF80000000FF80
FF80000000FF80
7F80000000FF80
7FC0000001FF80
7FC0000001FF80
7FC0000001FF00
7FC0000003FF00
7FE0000003FF00
3FE0000003FE00
3FF0000007FE00
3FF0000007FE00
1FF800000FFC00
1FFC00001FFC00
0FFE00003FF800
07FF00007FF000
07FFC000FFF000
03FFF807FFE000
01FFFFFFFFC000
00FFFFFFFF8000
007FFFFFFF0000
001FFFFFFE0000
0007FFFFF80000
0001FFFFE00000
00001FFE000000
ENDCHAR
STARTCHAR 00DC
ENCODING 220
SWIDTH 630 0
DWIDTH 58 0
BBX 52 84 3 1
BITMAP
00007000F00000
0001F801F80000
0001FC01FC0000
0003FC03FC0000
0003FC03FC0000
0003FC03FC0000
0003FC03FC0000
0003FC03FC0000
0001F803F80000
0001F801F00000
0000E000E00000
00000000000000
00000000000000
00000000000000
00000000000000
00000000000000
00000000000000
00000000000000
00000000000000
00000000000780
0F800000001FE0
3FC00000003FE0
7FC00000003FF0
7FC00000007FF0
FFC00000007FF0
FFC00000003FF0
FFC00000003FE0
7FC00000003FE0
7FC00000003FE0
7FC00000003FE0
7FC00000003FE0
FFC00000003FE0
FFC00000003FE0
FFC00000003FE0
FF800000003FE0
FF800000003FE0
FF800000003FE0
FF800000003FE0
FF800000007FE0
FF800000007FE0
FF800000007FC0
FF800000007FC0
FF800000007FC0
FF800000007FC0
FF800000007FC0
FF800000007FC0
FF800000007FC0
FF800000007FC0
FF800000007FC0
FF800000007FC0
FF800000007FC0
FF800000007FC0
FF800000007FC0
FF800000007FC0
FF800000007FC0
FF80000000FFC0
FF80000000FFC0
FF80000000FFC0
FF80000000FFC0
FF80000000FFC0
FF80000000FF80
FF80000000FF80
7F80000000FF80
7FC0000001FF80
7FC0000001FF80
7FC0000001FF00
7FC0000003FF00
7FE0000003FF00
3FE0000003FE00
3FF0000007FE00
3FF0000007FE00
1FF800000FFC00
1FFC00001FFC00
0FFE00003FF800
07FF00007FF000
07FFC000FFF000
03FFF807FFE000
01FFFFFFFFC000
00FFFFFFFF8000
007FFFFFFF0000
001FFFFFFE0000
0007FFFFF80000
0001FFFFE00000
00001FFE000000
ENDCHAR
STARTCHAR 00DD
ENCODING 221
SWIDTH 619 0
DWIDTH 57 0
BBX 52 89 3 -2
BITMAP
0000000E000000
0000001F800000
0000007F800000
0000007FC00000
000000FFC00000
000001FF800000
000003FF800000
000007FF000000
000007FE000000
00000FFC000000
00000FF8000000
00001FF0000000
00001FE0000000
00003F80000000
00003F00000000
00001C00000000
00000000000000
00000000000000
00000000000000
00000000000000
00000000000000
000000000003C0
000000000007E0
00000000000FE0
1E000000001FF0
3F000000003FF0
7F800000003FE0
7F800000007FE0
FFC0000000FFC0
7FE0000000FFC0
7FE0000000FF80
3FF0000001FF80
3FF0000001FF00
1FF8000003FE00
1FFC000003FE00
0FFC000007FC00
0FFE000007FC00
07FE00000FF800
03FF00000FF000
03FF80001FF000
01FF80003FE000
01FFC0003FE000
00FFE0007FC000
007FE0007FC000
007FF000FF8000
003FF001FF0000
001FF801FF0000
001FFC03FE0000
000FFC03FE0000
0007FE07FC0000
0007FF0FF80000
0003FF9FF80000
0001FF9FF00000
0000FFFFF00000
00007FFFE00000
00003FFFE00000
00001FFFC00000
00000FFFC00000
00000FFF800000
000007FF800000
000003FF800000
000003FF000000
000003FF000000
000003FF000000
000003FF000000
000003FF000000
000003FF000000
000003FE000000
000003FE000000
000003FE000000
000003FE000000
000003FE000000
000003FE000000
000003FE000000
000003FE000000
000003FE000000
000003FF000000
000003FF000000
000003FF000000
000003FF000000
000003FF000000
000003FF000000
000003FF000000
000003FE000000
000003FE000000
000003FC000000
000003F8000000
000003F0000000
000001E0000000
ENDCHAR
STARTCHAR 00DE
ENCODING 222
SWIDTH 532 0
DWIDTH 49 0
BBX 43 66 3 0
BITMAP
078000000000
0FC000000000
3FC000000000
3FE000000000
7FE000000000
7FE000000000
7FE000000000
7FC000000000
7FC000000000
7FC000000000
7FC000000000
7FFFFFE00000
7FFFFFFE0000
7FFFFFFF8000
7FFFFFFFE000
7FFFFFFFF800
7FFFFFFFFC00
7FFFFFFFFE00
7FFC007FFF00
7FE0000FFF00
7FE00003FF80
7FE00001FF80
FFE00000FFC0
FFE00000FFC0
FFE000007FE0
FFE000007FE0
FFE000003FE0
FFE000003FE0
FFC000003FE0
FFC000001FE0
FFC000001FE0
FFC000003FE0
FFC000003FE0
FFC000003FE0
FFC000003FE0
FFC000007FC0
FFC000007FC0
FFC00000FFC0
FFC00000FF80
FFC00001FF00
FFC00003FF00
FFC0000FFE00
FFC0003FFC00
FFC000FFF800
FFC00FFFF000
FFFFFFFFE000
FFFFFFFF8000
FFFFFFFF0000
FFFFFFFC0000
FFFFFFE00000
FFFFFF000000
FFFFE0000000
FF8000000000
FF8000000000
FFC000000000
FFC000000000
FFC000000000
FFC000000000
FFC000000000
7FC000000000
7FC000000000
7FC000000000
7F8000000000
7F0000000000
3E0000000000
180000000000
ENDCHAR
STARTCHAR 00DF
ENCODING 223
SWIDTH 489 0
DWIDTH 45 0
BBX 39 68 3 -5
BITMAP
001FF80000
007FFE0000
00FFFF0000
01FFFF8000
03FFFFC000
07FFFFE000
0FFC3FE000
0FF00FF000
1FE007F000
1FC007F000
3FC003F800
3F8003F800
3F8003F800
3F8003F800
7F0003F800
7F0003F000
7F0007F000
7F000FF000
7F001FE000
7F007FE000
7E01FFC000
7E03FF8000
7E07FF0000
FE0FFE0000
FE0FFC0000
FE0FF00000
FE1FC00000
FE1FC00000
FE1FC00000
FE1FC00000
FE1FF00000
FE1FFFC000
FE0FFFFC00
FE0FFFFF00
FE07FFFF80
FE03FFFFE0
FE00FFFFF0
FE003FFFF0
FE0003FFF8
FE00003FFC
FE00000FFC
FE000007FE
FE000003FE
FE000001FE
FE000000FE
FE000000FE
FE000000FE
FE0000007E
FE0000007E
FE0000007E
FE0000007E
FE1E0000FE
FE1E0000FE
FE3E0000FC
FE3F0001FC
FE3F0003FC
FE3F8007F8
FE3FE01FF8
FE1FF8FFF0
FE1FFFFFF0
FE0FFFFFE0
FE0FFFFFC0
FE07FFFF80
FE01FFFF00
7E00FFFC00
7C001FC000
7C00000000
3000000000
ENDCHAR
STARTCHAR 00E0
ENCODING 224
SWIDTH 467 0
DWIDTH 43 0
BBX 38 68 3 0
BITMAP
0003000000
000F800000
001FE00000
001FE00000
001FF00000
001FF80000
001FFC0000
000FFE0000
0007FE0000
0003FF0000
0001FF8000
0000FF8000
00007FC000
00001FC000
00000FC000
000003C000
0000000000
0000000000
0000000000
0000000000
0007FFE000
003FFFF800
00FFFFFE00
03FFFFFF00
07FFFFFF80
0FFFFFFFC0
1FFFFFFFC0
3FFC00FFE0
3FE0003FE0
3F80001FF0
3F00001FF0
1E00000FF0
0000000FF0
00000007F0
00000007F0
00000007F0
0007FF07F0
007FFFE7F0
01FFFFF7F0
03FFFFFFF0
07FFFFFFF0
0FFFFFFFF0
1FFFFFFFF0
3FFFFFFFF0
3FFE01FFF0
7FF8003FF0
7FE0001FF0
7FC0000FF0
FF800007F0
FF000007F0
FF000007F0
FE000007F0
FE000007F0
FE000007F0
FE00000FF0
FE00000FF0
FE00000FF0
FF00001FF0
7F00001FF8
7F80003FF8
7FC000FFF8
3FE001FFF8
1FF80FF7F8
1FFFFFE7FC
0FFFFFC7FC
03FFFF03F8
01FFFC01F0
001FE000E0
ENDCHAR
STARTCHAR 00E1
ENCODING 225
SWIDTH 467 0
DWIDTH 43 0
BBX 38 68 3 0
BITMAP
0000030000
00000F8000
00001FC000
00003FE000
00007FE000
0000FFE000
0000FFC000
0001FFC000
0003FF8000
0007FF0000
0007FE0000
000FF80000
000FF00000
001FE00000
001F800000
000F000000
0000000000
0000000000
0000000000
0000000000
0007FFE000
003FFFF800
00FFFFFE00
03FFFFFF00
07FFFFFF80
0FFFFFFFC0
1FFFFFFFC0
3FFC00FFE0
3FE0003FE0
3F80001FF0
3F00001FF0
1E00000FF0
0000000FF0
00000007F0
00000007F0
00000007F0
0007FF07F0
007FFFE7F0
01FFFFF7F0
03FFFFFFF0
07FFFFFFF0
0FFFFFFFF0
1FFFFFFFF0
3FFFFFFFF0
3FFE01FFF0
7FF8003FF0
7FE0001FF0
7FC0000FF0
FF800007F0
FF000007F0
FF000007F0
FE000007F0
FE000007F0
FE000007F0
FE00000FF0
FE00000FF0
FE00000FF0
FF00001FF0
7F00001FF8
7F80003FF8
7FC000FFF8
3FE001FFF8
1FF80FF7F8
1FFFFFE7FC
0FFFFFC7FC
03FFFF03F8
01FFFC01F0
001FE000E0
ENDCHAR
STARTCHAR 00E2
ENCODING 226
SWIDTH 467 0
DWIDTH 43 0
BBX 38 67 3 0
BITMAP
0000780000
0000FC0000
0001FE0000
0003FF0000
0007FF0000
000FFF8000
001FFFC000
003FCFE000
003FC7F000
007F87F000
00FF03F800
01FE01FC00
01FC00FC00
01F800FE00
01F8007E00
00E0003800
0000000000
0000000000
0000000000
0007FFE000
003FFFF800
00FFFFFE00
03FFFFFF00
07FFFFFF80
0FFFFFFFC0
1FFFFFFFC0
3FFC00FFE0
3FE0003FE0
3F80001FF0
3F00001FF0
1E00000FF0
0000000FF0
00000007F0
00000007F0
00000007F0
0007FF07F0
007FFFE7F0
01FFFFF7F0
03FFFFFFF0
07FFFFFFF0
0FFFFFFFF0
1FFFFFFFF0
3FFFFFFFF0
3FFE01FFF0
7FF8003FF0
7FE0001FF0
7FC0000FF0
FF800007F0
FF000007F0
FF000007F0
FE000007F0
FE000007F0
FE000007F0
FE00000FF0
FE00000FF0
FE00000FF0
FF00001FF0
7F00001FF8
7F80003FF8
7FC000FFF8
3FE001FFF8
1FF80FF7F8
1FFFFFE7FC
0FFFFFC7FC
03FFFF03F8
01FFFC01F0
001FE000E0
ENDCHAR
STARTCHAR 00E3
ENCODING 227
SWIDTH 467 0
DWIDTH 43 0
BBX 38 65 3 -1
BITMAP
000C000000
00FF800000
01FFE00080
07FFF001C0
0FFFF803E0
1FFFFE0FE0
1FFFFFFFE0
1F81FFFFC0
1E00FFFF80
0C007FFF00
00001FFC00
00000FF800
0000000000
0000000000
0000000000
0000000000
0000000000
0007FFE000
003FFFF800
00FFFFFE00
03FFFFFF00
07FFFFFF80
0FFFFFFFC0
1FFFFFFFC0
3FFC00FFE0
3FE0003FE0
3F80001FF0
3F00001FF0
1E00000FF0
0000000FF0
00000007F0
00000007F0
00000007F0
0007FF07F0
007FFFE7F0
01FFFFF7F0
03FFFFFFF0
07FFFFFFF0
0FFFFFFFF0
1FFFFFFFF0
3FFFFFFFF0
3FFE01FFF0
7FF8003FF0
7FE0001FF0
7FC0000FF0
FF800007F0
FF000007F0
FF000007F0
FE000007F0
FE000007F0
FE000007F0
FE00000FF0
FE00000FF0
FE00000FF0
FF00001FF0
7F00001FF8
7F80003FF8
7FC000FFF8
3FE001FFF8
1FF80FF7F8
1FFFFFE7FC
0FFFFFC7FC
03FFFF03F8
01FFFC01F0
001FE000E0
ENDCHAR
STARTCHAR 00E4
ENCODING 228
SWIDTH 467 0
DWIDTH 43 0
BBX 38 63 3 0
BITMAP
0078007800
00FC00FC00
00FE01FC00
01FE01FE00
01FE01FE00
01FE03FE00
01FE01FE00
01FE01FC00
01FC01FC00
00F801F800
007000F000
0000000000
0000000000
0000000000
0000000000
0007FFE000
003FFFF800
00FFFFFE00
03FFFFFF00
07FFFFFF80
0FFFFFFFC0
1FFFFFFFC0
3FFC00FFE0
3FE0003FE0
3F80001FF0
3F00001FF0
1E00000FF0
0000000FF0
00000007F0
00000007F0
00000007F0
0007FF07F0
007FFFE7F0
01FFFFF7F0
03FFFFFFF0
07FFFFFFF0
0FFFFFFFF0
1FFFFFFFF0
3FFFFFFFF0
3FFE01FFF0
7FF8003FF0
7FE0001FF0
7FC0000FF0
FF800007F0
FF000007F0
FF000007F0
FE000007F0
FE000007F0
FE000007F0
FE00000FF0
FE00000FF0
FE00000FF0
FF00001FF0
7F00001FF8
7F80003FF8
7FC000FFF8
3FE001FFF8
1FF80FF7F8
1FFFFFE7FC
0FFFFFC7FC
03FFFF03F8
01FFFC01F0
001FE000E0
ENDCHAR
STARTCHAR 00E5
ENCODING 229
SWIDTH 467 0
DWIDTH 43 0
BBX 38 69 3 -1
BITMAP
0001FE0000
0007FF8000
001FFFE000
003FFFF000
007FFFF000
007FFFF800
00FF07FC00
00FC01FC00
01FC00FC00
01F800FC00
01F800FC00
01F800FC00
01F800FC00
01F800FC00
01FC01F800
00FF07F000
00FFFFF000
007FFFE000
003FFF8000
000FFF0000
0003F80000
0007FFE000
003FFFF800
00FFFFFE00
03FFFFFF00
07FFFFFF80
0FFFFFFFC0
1FFFFFFFC0
3FFC00FFE0
3FE0003FE0
3F80001FF0
3F00001FF0
1E00000FF0
0000000FF0
00000007F0
00000007F0
00000007F0
0007FF07F0
007FFFE7F0
01FFFFF7F0
03FFFFFFF0
07FFFFFFF0
0FFFFFFFF0
1FFFFFFFF0
3FFFFFFFF0
3FFE01FFF0
7FF8003FF0
7FE0001FF0
7FC0000FF0
FF800007F0
FF000007F0
FF000007F0
FE000007F0
FE000007F0
FE000007F0
FE00000FF0
FE00000FF0
FE00000FF0
FF00001FF0
7F00001FF8
7F80003FF8
7FC000FFF8
3FE001FFF8
1FF80FF7F8
1FFFFFE7FC
0FFFFFC7FC
03FFFF03F8
01FFFC01F0
001FE000E0
ENDCHAR
STARTCHAR 00E6
ENCODING 230
SWIDTH 826 0
DWIDTH 76 0
BBX 70 45 3 0
BITMAP
001FFFF00003FE0000
00FFFFFC003FFFC000
03FFFFFF00FFFFF000
07FFFFFF81FFFFF800
1FFFFFFFC7FFFFFC00
1FFF03FFCFFFFFFE00
3FF0007FFFFFFFFF00
3FC0003FFFFC0FFF00
3F00001FFFF003FF80
1E00000FFFC001FF80
0000000FFF8000FF80
00000007FF80007FC0
00000007FF00007FC0
00000007FE00007FC0
0007FE07FE00007F80
003FFFE7FC00007F80
01FFFFFFFC0000FF80
03FFFFFFFC0001FF00
07FFFFFFF80001FF00
0FFFFFFFF80003FE00
1FFFFFFFF8001FFC00
3FFE01FFF803FFF800
3FF8003FFFFFFFE000
7FE0001FFFFFFF8000
7FC0000FFFFFFC0000
7F800007FFFFC00000
FF000007FFF8000000
FF000007FC00000000
FE000007FC00000000
FE000007FC00000000
FE000007FC00000038
FE00000FFE0000007C
FE00000FFF000000FC
FE00000FFF000001FC
FF00001FFF800007FC
7F00001FFFC0000FF8
7F80003FFFF0003FF8
7FC000FFFFFE01FFF0
3FE001FF3FFFFFFFE0
3FF80FFE1FFFFFFFC0
1FFFFFFC0FFFFFFF80
0FFFFFF007FFFFFE00
07FFFFC001FFFFF800
01FFFE00007FFFC000
001FE000000FFE0000
ENDCHAR
STARTCHAR 00E7
ENCODING 231
SWIDTH 467 0
DWIDTH 43 0
BBX 37 68 3 -22
BITMAP
00007FC000
0003FFF000
000FFFFC00
001FFFFF00
007FFFFF80
00FFFFFF80
01FFFFFFC0
03FF81FFC0
03FE007FE0
07FC003FC0
0FF8001FC0
0FF0000F80
1FF0000F00
1FE0000000
3FC0000000
3FC0000000
7FC0000000
7F80000000
7F80000000
7F80000000
FF80000000
FF00000000
FF00000000
FF00000000
FF00000000
FF00000000
FF00000000
FF80000000
FF80000000
7F80000000
7F80000000
7FC0000000
7FC0000000
3FC0000000
3FE0000070
3FF00001F8
1FF80003F8
1FFC0007F8
0FFE001FF8
07FFC07FF0
07FFFFFFF0
03FFFFFFE0
01FFFFFFC0
007FFFFF80
003FFFFE00
000FFFFC00
0003FFE000
0001FF0000
0000FFC000
00007FF000
00001FF800
000007FE00
000001FF00
0000007F80
0000003FC0
0000001FE0
0000000FE0
0070000FF0
0070000FF0
00F0000FE0
00F8001FE0
00FC003FE0
00FF01FFC0
00FFFFFFC0
007FFFFF80
001FFFFE00
0007FFF800
00003F8000
ENDCHAR
STARTCHAR 00E8
ENCODING 232
SWIDTH 510 0
DWIDTH 47 0
BBX 42 68 3 1
BITMAP
000180000000
0003E0000000
0007F0000000
0007F8000000
0007FC000000
0007FE000000
0007FF000000
0003FF800000
0001FF800000
0000FFC00000
00007FC00000
00003FE00000
00001FE00000
00000FF00000
000003F00000
000000F00000
000000000000
000000000000
000000000000
000000000000
000000000000
000000000000
000000000000
00007FC00000
0003FFF80000
000FFFFE0000
003FFFFF8000
007FFFFFC000
00FFFFFFE000
01FFFFFFE000
03FF81FFF000
07FE003FF000
0FFC001FF800
0FF8000FF800
1FF0000FF800
1FE00007F800
3FE00007F800
3FC0000FF800
7FC0000FF800
7F80000FF000
7F80001FF000
7F80003FE000
7F00007FE000
FF0003FFC000
FF007FFF0000
FFFFFFFE0000
FFFFFFF00000
FFFFFF800000
FFFFFC000000
FFFF00000000
FF8000000000
7F8000000000
7FC000000000
7FC000000780
7FC000000F80
3FE000001FC0
3FF000003FC0
1FF800007F80
1FFC0000FF80
0FFF0003FF00
0FFFC01FFF00
07FFFFFFFE00
03FFFFFFF800
01FFFFFFF000
007FFFFFC000
003FFFFF0000
0007FFFC0000
0000FFC00000
ENDCHAR
STARTCHAR 00E9
ENCODING 233
SWIDTH 510 0
DWIDTH 47 0
BBX 42 68 3 1
BITMAP
000000C00000
000003E00000
000007F00000
00000FF80000
00001FF80000
00003FF00000
00007FF00000
00007FE00000
0000FFE00000
0001FFC00000
0001FF000000
0003FE000000
0003FC000000
0007F8000000
0007E0000000
000380000000
000000000000
000000000000
000000000000
000000000000
000000000000
000000000000
000000000000
00007FC00000
0003FFF80000
000FFFFE0000
003FFFFF8000
007FFFFFC000
00FFFFFFE000
01FFFFFFE000
03FF81FFF000
07FE003FF000
0FFC001FF800
0FF8000FF800
1FF0000FF800
1FE00007F800
3FE00007F800
3FC0000FF800
7FC0000FF800
7F80000FF000
7F80001FF000
7F80003FE000
7F00007FE000
FF0003FFC000
FF007FFF0000
FFFFFFFE0000
FFFFFFF00000
FFFFFF800000
FFFFFC000000
FFFF00000000
FF8000000000
7F8000000000
7FC000000000
7FC000000780
7FC000000F80
3FE000001FC0
3FF000003FC0
1FF800007F80
1FFC0000FF80
0FFF0003FF00
0FFFC01FFF00
07FFFFFFFE00
03FFFFFFF800
01FFFFFFF000
007FFFFFC000
003FFFFF0000
0007FFFC0000
0000FFC00000
ENDCHAR
STARTCHAR 00EA
ENCODING 234
SWIDTH 510 0
DWIDTH 47 0
BBX 42 67 3 1
BITMAP
00001E000000
00003F000000
00007F800000
0000FFC00000
0001FFC00000
0003FFE00000
0007FFF00000
000FF3F80000
001FE1F80000
001FE1FC0000
003FC0FE0000
007F807F0000
007F007F0000
007E003F8000
007E001F0000
0038000E0000
000000000000
000000000000
000000000000
000000000000
000000000000
000000000000
00007FC00000
0003FFF80000
000FFFFE0000
003FFFFF8000
007FFFFFC000
00FFFFFFE000
01FFFFFFE000
03FF81FFF000
07FE003FF000
0FFC001FF800
0FF8000FF800
1FF0000FF800
1FE00007F800
3FE00007F800
3FC0000FF800
7FC0000FF800
7F80000FF000
7F80001FF000
7F80003FE000
7F00007FE000
FF0003FFC000
FF007FFF0000
FFFFFFFE0000
FFFFFFF00000
FFFFFF800000
FFFFFC000000
FFFF00000000
FF8000000000
7F8000000000
7FC000000000
7FC000000780
7FC000000F80
3FE000001FC0
3FF000003FC0
1FF800007F80
1FFC0000FF80
0FFF0003FF00
0FFFC01FFF00
07FFFFFFFE00
03FFFFFFF800
01FFFFFFF000
007FFFFFC000
003FFFFF0000
0007FFFC0000
0000FFC00000
ENDCHAR
STARTCHAR 00EB
ENCODING 235
SWIDTH 510 0
DWIDTH 47 0
BBX 42 63 3 1
BITMAP
001E001E0000
003F003F0000
007F007F0000
007F807F8000
007F80FF8000
007F80FF8000
007F80FF8000
007F007F0000
007F007F0000
003E007E0000
003C003C0000
000000000000
000000000000
000000000000
000000000000
000000000000
000000000000
000000000000
00007FC00000
0003FFF80000
000FFFFE0000
003FFFFF8000
007FFFFFC000
00FFFFFFE000
01FFFFFFE000
03FF81FFF000
07FE003FF000
0FFC001FF800
0FF8000FF800
1FF0000FF800
1FE00007F800
3FE00007F800
3FC0000FF800
7FC0000FF800
7F80000FF000
7F80001FF000
7F80003FE000
7F00007FE000
FF0003FFC000
FF007FFF0000
FFFFFFFE0000
FFFFFFF00000
FFFFFF800000
FFFFFC000000
FFFF00000000
FF8000000000
7F8000000000
7FC000000000
7FC000000780
7FC000000F80
3FE000001FC0
3FF000003FC0
1FF800007F80
1FFC0000FF80
0FFF0003FF00
0FFFC01FFF00
07FFFFFFFE00
03FFFFFFF800
01FFFFFFF000
007FFFFFC000
003FFFFF0000
0007FFFC0000
0000FFC00000
ENDCHAR
STARTCHAR 00EC
ENCODING 236
SWIDTH 184 0
DWIDTH 17 0
BBX 15 68 1 1
BITMAP
1000
7C00
FF00
FF00
FF80
FFC0
FFE0
7FF0
3FF0
1FF8
0FFC
07FC
03FE
00FE
007E
001E
0000
0000
0000
0000
0000
0000
01E0
07F0
0FF0
0FF8
0FF8
0FF8
1FF8
1FF0
1FF0
1FF0
1FF0
1FF0
1FF0
1FF0
1FF0
1FF0
1FF0
1FF0
1FF0
1FF0
1FF0
1FF0
1FF0
1FF0
1FF0
1FF0
1FF0
1FF0
1FF0
1FF0
1FF0
1FF0
1FF0
1FF0
1FF0
1FF0
1FF0
1FF0
1FF0
1FF0
1FF0
1FF0
1FF0
0FE0
0FC0
0780
ENDCHAR
STARTCHAR 00ED
ENCODING 237
SWIDTH 184 0
DWIDTH 17 0
BBX 15 68 1 1
BITMAP
0030
00FC
01FE
03FE
07FE
07FE
0FFC
1FFC
3FF8
3FF0
7FE0
7FC0
FF00
FE00
FC00
F000
0000
0000
0000
0000
0000
0000
01C0
07E0
0FF0
1FF0
1FF0
1FF0
1FF0
1FF0
1FF0
1FF0
1FF0
3FF0
3FF0
3FF0
3FF0
3FE0
3FE0
3FE0
3FE0
3FE0
3FE0
3FE0
3FE0
3FE0
3FE0
3FE0
3FE0
3FE0
3FE0
3FE0
3FE0
3FE0
3FE0
3FE0
3FE0
3FE0
3FE0
3FE0
3FE0
3FE0
3FE0
3FE0
1FE0
1FC0
1FC0
0F00
ENDCHAR
STARTCHAR 00EE
ENCODING 238
SWIDTH 184 0
DWIDTH 17 0
BBX 24 67 -4 1
BITMAP
003E00
007F00
00FF80
01FFC0
03FFC0
07FFE0
07FFF0
0FF3F8
1FE1F8
3FC1FC
7F80FE
7F007F
FF007F
FE003F
7C001F
100000
000000
000000
000000
000000
000000
000E00
003F80
007F80
007F80
00FF80
00FF80
00FF80
00FF80
00FF80
00FF80
00FF80
00FF80
00FF80
00FF80
00FF80
00FF80
00FF80
00FF80
00FF80
00FF80
00FF80
00FF80
00FF00
00FF00
01FF00
01FF00
01FF00
01FF00
01FF00
01FF00
01FF00
01FF00
01FF00
01FF00
01FF80
01FF80
01FF80
01FF80
01FF80
01FF80
00FF80
00FF80
00FF00
00FF00
007E00
003800
ENDCHAR
STARTCHAR 00EF
ENCODING 239
SWIDTH 184 0
DWIDTH 17 0
BBX 24 63 -4 1
BITMAP
1E001C
3F003E
7F007F
7F00FF
FF80FF
FF80FF
FF00FF
7F00FF
7F007F
7E007E
3C003C
000000
000000
000000
000000
000000
000000
000E00
003F80
007F80
00FF80
00FF80
00FF80
00FF80
00FF80
00FF80
00FF80
00FF80
00FF80
00FF80
00FF80
00FF80
00FF80
00FF80
00FF80
00FF80
00FF80
00FF80
00FF80
00FF00
00FF00
01FF00
01FF00
01FF00
01FF00
01FF00
01FF00
01FF00
01FF00
01FF00
01FF00
01FF80
01FF80
01FF80
01FF80
01FF80
01FF80
00FF80
00FF80
00FF00
00FF00
007E00
003800
ENDCHAR
STARTCHAR 00F0
ENCODING 240
SWIDTH 510 0
DWIDTH 47 0
BBX 41 63 3 1
BITMAP
0003C0000000
0007F0000000
000FFE000000
000FFF000000
000FFFC00000
000FFFE00000
0007FFF00000
0001FFF80000
00007FFC0380
00001FFE7F80
000007FFFF80
000003FFFF00
00001FFFFF00
0001FFFFFF00
000FFFFFFE00
003FFFFFF800
003FFFFFE000
007FFFFFF000
007FFF8FF000
00FFF007F800
00FF0007F800
00700003F800
00000003FC00
00000003FC00
00000001FC00
0000FFC1FC00
000FFFFDFE00
003FFFFFFE00
00FFFFFFFE00
01FFFFFFFE00
03FFFFFFFE00
07FFFFFFFE00
0FFF007FFF00
1FF8001FFF00
3FF00007FF00
3FE00003FF00
3FC00003FF00
7F800001FF00
7F800001FF00
7F000000FF00
FF000000FF00
FF000000FF00
FF000000FF00
FF000000FF00
FF000000FF00
FF000000FF00
FF000000FF00
FF000000FF00
FF800001FF00
FF800001FE00
7FC00003FE00
7FC00003FE00
7FE00007FC00
3FF8001FFC00
3FFE00FFF800
1FFFFFFFF800
1FFFFFFFF000
0FFFFFFFE000
07FFFFFFC000
03FFFFFF0000
00FFFFFC0000
003FFFF00000
0003FF000000
ENDCHAR
STARTCHAR 00F1
ENCODING 241
SWIDTH 500 0
DWIDTH 46 0
BBX 41 65 3 -1
BITMAP
000600000000
003FC0000000
00FFF0006000
01FFF800F000
03FFFC01F000
07FFFF07F000
0FFFFFFFF000
0FC0FFFFE000
0F803FFFC000
07001FFF8000
00000FFF0000
000003FC0000
000000000000
000000000000
000000000000
000000000000
000000000000
000000000000
000000000000
000000700000
1F8007FF0000
3FC01FFF8000
7FC07FFFE000
7FC1FFFFF000
7FC3FFFFF800
7FC7FFFFF800
7FFFE01FFC00
7FFFC00FFC00
7FFF0007FE00
7FFE0003FE00
7FFC0003FE00
7FFC0001FF00
7FF80001FF00
FFF80001FF00
FFF00001FF00
FFF00001FF00
FFE00001FF00
FFE00001FF00
FFE00001FF00
FFC00001FF00
FFC00001FF00
FFC00001FF00
FFC00001FF00
FFC00001FF00
FFC00001FF00
FF800001FF00
FF800001FF00
FF800001FF00
FF800001FF00
FF800001FF00
FF800001FF00
FF800001FF00
FF800001FF00
FF800001FF00
FF800001FF00
FF800001FF00
FF800001FF00
FF800001FF80
FF800001FF80
FF800000FF80
FF800000FF80
7F800000FF80
7F000000FF80
7E0000007F00
3C0000003E00
ENDCHAR
STARTCHAR 00F2
ENCODING 242
SWIDTH 500 0
DWIDTH 46 0
BBX 40 68 3 1
BITMAP
0001800000
0007E00000
000FF00000
000FF80000
000FF80000
000FFC0000
000FFE0000
0007FF0000
0003FF0000
0001FF8000
0000FFC000
00007FC000
00003FE000
00000FE000
000007E000
000001E000
0000000000
0000000000
0000000000
0000000000
0000000000
0000000000
0000000000
00007FC000
0003FFF800
001FFFFC00
003FFFFF00
00FFFFFF80
01FFFFFFC0
03FFFFFFE0
07FF80FFF0
07FE003FF8
0FF8001FF8
1FF0000FFC
1FE00007FC
3FE00003FE
3FC00003FE
3FC00001FE
7F800001FE
7F800001FF
7F800001FF
FF000000FF
FF000000FF
FF000000FF
FF000000FF
FF000000FF
FF000000FF
FF000000FF
FF000000FF
FF000000FF
FF800001FE
FF800001FE
7F800001FE
7FC00003FC
7FC00003FC
3FE00007FC
3FF0000FF8
3FF8001FF8
1FFC007FF0
1FFF01FFE0
0FFFFFFFC0
07FFFFFFC0
03FFFFFF80
01FFFFFE00
00FFFFFC00
003FFFF000
001FFFC000
0003FE0000
ENDCHAR
STARTCHAR 00F3
ENCODING 243
SWIDTH 500 0
DWIDTH 46 0
BBX 40 68 3 1
BITMAP
0000018000
000007E000
00000FE000
00001FF000
00003FF000
00007FF000
00007FE000
0000FFE000
0001FFC000
0001FF8000
0003FF0000
0007FE0000
0007F80000
0007F00000
000FE00000
0007800000
0000000000
0000000000
0000000000
0000000000
0000000000
0000000000
0000000000
00007FC000
0003FFF800
001FFFFC00
003FFFFF00
00FFFFFF80
01FFFFFFC0
03FFFFFFE0
07FF80FFF0
07FE003FF8
0FF8001FF8
1FF0000FFC
1FE00007FC
3FE00003FE
3FC00003FE
3FC00001FE
7F800001FE
7F800001FF
7F800001FF
FF000000FF
FF000000FF
FF000000FF
FF000000FF
FF000000FF
FF000000FF
FF000000FF
FF000000FF
FF000000FF
FF800001FE
FF800001FE
7F800001FE
7FC00003FC
7FC00003FC
3FE00007FC
3FF0000FF8
3FF8001FF8
1FFC007FF0
1FFF01FFE0
0FFFFFFFC0
07FFFFFFC0
03FFFFFF80
01FFFFFE00
00FFFFFC00
003FFFF000
001FFFC000
0003FE0000
ENDCHAR
STARTCHAR 00F4
ENCODING 244
SWIDTH 500 0
DWIDTH 46 0
BBX 40 67 3 1
BITMAP
00003C0000
00007F0000
0000FF0000
0001FF8000
0003FFC000
0007FFC000
000FFFE000
000FF7F000
001FE3F800
003FC1FC00
007F81FC00
007F00FE00
00FF007F00
00FE003F00
00FC003F00
0078000C00
0000000000
0000000000
0000000000
0000000000
0000000000
0000000000
00007FC000
0003FFF800
001FFFFC00
003FFFFF00
00FFFFFF80
01FFFFFFC0
03FFFFFFE0
07FF80FFF0
07FE003FF8
0FF8001FF8
1FF0000FFC
1FE00007FC
3FE00003FE
3FC00003FE
3FC00001FE
7F800001FE
7F800001FF
7F800001FF
FF000000FF
FF000000FF
FF000000FF
FF000000FF
FF000000FF
FF000000FF
FF000000FF
FF000000FF
FF000000FF
FF800001FE
FF800001FE
7F800001FE
7FC00003FC
7FC00003FC
3FE00007FC
3FF0000FF8
3FF8001FF8
1FFC007FF0
1FFF01FFE0
0FFFFFFFC0
07FFFFFFC0
03FFFFFF80
01FFFFFE00
00FFFFFC00
003FFFF000
001FFFC000
0003FE0000
ENDCHAR
STARTCHAR 00F5
ENCODING 245
SWIDTH 500 0
DWIDTH 46 0
BBX 40 65 3 0
BITMAP
0006000000
007FC00000
00FFF00060
03FFF800F0
07FFFC01F0
07FFFF07F0
0FFFFFFFF0
0FC0FFFFE0
0F803FFFC0
06001FFF80
00000FFF00
000003FC00
0000000000
0000000000
0000000000
0000000000
0000000000
0000000000
0000000000
0000000000
00007FC000
0003FFF800
001FFFFC00
003FFFFF00
00FFFFFF80
01FFFFFFC0
03FFFFFFE0
07FF80FFF0
07FE003FF8
0FF8001FF8
1FF0000FFC
1FE00007FC
3FE00003FE
3FC00003FE
3FC00001FE
7F800001FE
7F800001FF
7F800001FF
FF000000FF
FF000000FF
FF000000FF
FF000000FF
FF000000FF
FF000000FF
FF000000FF
FF000000FF
FF000000FF
FF800001FE
FF800001FE
7F800001FE
7FC00003FC
7FC00003FC
3FE00007FC
3FF0000FF8
3FF8001FF8
1FFC007FF0
1FFF01FFE0
0FFFFFFFC0
07FFFFFFC0
03FFFFFF80
01FFFFFE00
00FFFFFC00
003FFFF000
001FFFC000
0003FE0000
ENDCHAR
STARTCHAR 00F6
ENCODING 246
SWIDTH 500 0
DWIDTH 46 0
BBX 40 63 3 1
BITMAP
001C003C00
007E007E00
007F00FF00
00FF00FF00
00FF00FF00
00FF00FF00
00FF00FF00
00FF00FF00
00FE00FE00
007E007C00
0038003800
0000000000
0000000000
0000000000
0000000000
0000000000
0000000000
0000000000
00007FC000
0003FFF800
001FFFFC00
003FFFFF00
00FFFFFF80
01FFFFFFC0
03FFFFFFE0
07FF80FFF0
07FE003FF8
0FF8001FF8
1FF0000FFC
1FE00007FC
3FE00003FE
3FC00003FE
3FC00001FE
7F800001FE
7F800001FF
7F800001FF
FF000000FF
FF000000FF
FF000000FF
FF000000FF
FF000000FF
FF000000FF
FF000000FF
FF000000FF
FF000000FF
FF800001FE
FF800001FE
7F800001FE
7FC00003FC
7FC00003FC
3FE00007FC
3FF0000FF8
3FF8001FF8
1FFC007FF0
1FFF01FFE0
0FFFFFFFC0
07FFFFFFC0
03FFFFFF80
01FFFFFE00
00FFFFFC00
003FFFF000
001FFFC000
0003FE0000
ENDCHAR
STARTCHAR 00F7
ENCODING 247
SWIDTH 576 0
DWIDTH 53 0
BBX 47 41 3 8
BITMAP
00000FC00000
00001FE00000
00003FF00000
00003FF00000
00007FF00000
00007FF80000
00007FF80000
00003FF80000
00003FF80000
00003FF80000
00001FF00000
00000FE00000
000003800000
000000000000
000000000000
000000000000
0FFFFFFFFFFC
1FFFFFFFFFFE
7FFFFFFFFFFE
7FFFFFFFFFFE
FFFFFFFFFFFE
FFFFFFFFFFFC
7FFFFFFFFFF8
3FFFFFFFFFE0
000000000000
000000000000
000000000000
000000000000
00000F800000
00003FE00000
00003FE00000
00007FF00000
00007FF00000
00007FF00000
00007FF00000
00007FF00000
00007FF00000
00003FF00000
00003FF00000
00001FE00000
00000F800000
ENDCHAR
STARTCHAR 00F8
ENCODING 248
SWIDTH 500 0
DWIDTH 46 0
BBX 40 58 3 -5
BITMAP
00000001E0
00000007F0
0000000FF0
0000000FF0
0000001FE0
0000003FE0
0000003FC0
00007FFFC0
0003FFFF80
000FFFFF00
003FFFFF00
007FFFFF80
00FFFFFFC0
01FFFFFFE0
03FF03FFF0
07FC03FFF0
0FF803FFF8
0FF007FFFC
1FE007F7FC
1FE00FF3FC
3FC00FF3FE
3F801FE1FE
7F801FE1FE
7F803FC1FE
7F803FC1FF
7F003FC0FF
FF007F80FF
FF007F80FF
FF007F00FF
FF00FF00FF
FF00FF00FF
FF01FE00FF
FF01FE00FF
FF01FC00FE
FF03FC01FE
FF83F801FE
FF83F801FE
7F87F801FC
7FC7F003FC
7FCFF003F8
7FEFE007F8
3FFFE00FF0
3FFFE01FF0
1FFFC03FE0
1FFFC0FFC0
0FFFEFFF80
0FFFFFFF00
07FFFFFE00
03FFFFFC00
01FFFFF000
00FFFFC000
01FFFE0000
01FC000000
03F8000000
03F8000000
03F0000000
03E0000000
01C0000000
ENDCHAR
STARTCHAR 00F9
ENCODING 249
SWIDTH 478 0
DWIDTH 44 0
BBX 38 68 3 0
BITMAP
0003000000
000FC00000
001FE00000
001FF00000
001FF00000
001FF80000
001FFC0000
000FFE0000
0007FE0000
0003FF0000
0001FF8000
0000FF8000
00007FC000
00001FC000
00000FC000
000003C000
0000000000
0000000000
0000000000
0000000000
0000000000
0000000000
0000000000
0F00000078
3F800001FC
7FC00003FC
7FC00007FC
7FC00007FC
7FC00007FC
7FC00007FC
7FC00007FC
7FC00007FC
7FC00007FC
7FC00007FC
7FC00007FC
FFC00007FC
FFC00007FC
FFC00007FC
FFC00007FC
FF800007FC
FF80000FF8
FF80000FF8
FF80000FF8
FF80000FF8
FF80000FF8
FF80000FF8
FF80000FF8
FF80000FF8
FF80000FF8
FF80000FF8
FF80000FF8
FF80000FF8
FFC0000FF8
7FC0001FF8
7FC0001FF8
7FC0001FF8
7FE0003FF8
3FE0007FF8
3FF000FFF8
3FF803FFFC
1FFFFFFFFC
1FFFFFFFFC
0FFFFFFFFC
07FFFFFBFC
03FFFFFBFC
01FFFFF3FC
00FFFFC1FC
001FFE00F8
ENDCHAR
STARTCHAR 00FA
ENCODING 250
SWIDTH 478 0
DWIDTH 44 0
BBX 38 68 3 0
BITMAP
0000030000
00000FC000
00001FC000
00003FE000
00007FE000
0000FFE000
0000FFC000
0001FFC000
0003FF8000
0007FF0000
0007FE0000
000FFC0000
000FF00000
000FE00000
001FC00000
000F000000
0000000000
0000000000
0000000000
0000000000
0000000000
0000000000
0000000000
0F00000078
3F800001FC
7FC00003FC
7FC00007FC
7FC00007FC
7FC00007FC
7FC00007FC
7FC00007FC
7FC00007FC
7FC00007FC
7FC00007FC
7FC00007FC
FFC00007FC
FFC00007FC
FFC00007FC
FFC00007FC
FF800007FC
FF80000FF8
FF80000FF8
FF80000FF8
FF80000FF8
FF80000FF8
FF80000FF8
FF80000FF8
FF80000FF8
FF80000FF8
FF80000FF8
FF80000FF8
FF80000FF8
FFC0000FF8
7FC0001FF8
7FC0001FF8
7FC0001FF8
7FE0003FF8
3FE0007FF8
3FF000FFF8
3FF803FFFC
1FFFFFFFFC
1FFFFFFFFC
0FFFFFFFFC
07FFFFFBFC
03FFFFFBFC
01FFFFF3FC
00FFFFC1FC
001FFE00F8
ENDCHAR
STARTCHAR 00FB
ENCODING 251
SWIDTH 478 0
DWIDTH 44 0
BBX 38 67 3 0
BITMAP
0000780000
0000FC0000
0001FE0000
0003FF0000
0007FF8000
000FFF8000
001FFFC000
003FEFE000
003FC7F000
007F83F000
00FF03F800
00FE01FC00
01FC00FC00
01FC007E00
01F8007E00
00F0001800
0000000000
0000000000
0000000000
0000000000
0000000000
0000000000
0F00000078
3F800001FC
7FC00003FC
7FC00007FC
7FC00007FC
7FC00007FC
7FC00007FC
7FC00007FC
7FC00007FC
7FC00007FC
7FC00007FC
7FC00007FC
FFC00007FC
FFC00007FC
FFC00007FC
FFC00007FC
FF800007FC
FF80000FF8
FF80000FF8
FF80000FF8
FF80000FF8
FF80000FF8
FF80000FF8
FF80000FF8
FF80000FF8
FF80000FF8
FF80000FF8
FF80000FF8
FF80000FF8
FFC0000FF8
7FC0001FF8
7FC0001FF8
7FC0001FF8
7FE0003FF8
3FE0007FF8
3FF000FFF8
3FF803FFFC
1FFFFFFFFC
1FFFFFFFFC
0FFFFFFFFC
07FFFFFBFC
03FFFFFBFC
01FFFFF3FC
00FFFFC1FC
001FFE00F8
ENDCHAR
STARTCHAR 00FC
ENCODING 252
SWIDTH 478 0
DWIDTH 44 0
BBX 38 63 3 0
BITMAP
0038007800
00FC00FC00
00FE01FC00
01FE01FE00
01FE01FE00
01FE01FE00
01FE01FE00
01FE01FC00
01FC01FC00
00FC00F800
007000F000
0000000000
0000000000
0000000000
0000000000
0000000000
0000000000
0000000000
0F00000078
3F800001FC
7FC00003FC
7FC00007FC
7FC00007FC
7FC00007FC
7FC00007FC
7FC00007FC
7FC00007FC
7FC00007FC
7FC00007FC
7FC00007FC
FFC00007FC
FFC00007FC
FFC00007FC
FFC00007FC
FF800007FC
FF80000FF8
FF80000FF8
FF80000FF8
FF80000FF8
FF80000FF8
FF80000FF8
FF80000FF8
FF80000FF8
FF80000FF8
FF80000FF8
FF80000FF8
FF80000FF8
FFC0000FF8
7FC0001FF8
7FC0001FF8
7FC0001FF8
7FE0003FF8
3FE0007FF8
3FF000FFF8
3FF803FFFC
1FFFFFFFFC
1FFFFFFFFC
0FFFFFFFFC
07FFFFFBFC
03FFFFFBFC
01FFFFF3FC
00FFFFC1FC
001FFE00F8
ENDCHAR
STARTCHAR 00FD
ENCODING 253
SWIDTH 521 0
DWIDTH 48 0
BBX 42 92 3 -24
BITMAP
000000C00000
000003F00000
000007F00000
00000FF80000
00001FF80000
00001FF80000
00003FF00000
00007FF00000
0000FFE00000
0000FFC00000
0001FF800000
0001FF000000
0003FC000000
0003F8000000
0003F0000000
0003C0000000
000000000000
000000000000
000000000000
000000000000
000000000000
000000000000
000000000000
1C0000000F00
3E0000001FC0
7F0000003FC0
FF8000007FC0
FF8000007FC0
FFC00000FF80
7FC00000FF80
7FE00001FF00
7FE00001FF00
3FF00001FF00
3FF00003FE00
1FF00003FE00
1FF80003FC00
0FF80007FC00
0FF80007FC00
07FC0007F800
07FC000FF800
07FE000FF800
03FE001FF000
03FE001FF000
01FF001FE000
01FF003FE000
00FF803FE000
00FF803FC000
007F807FC000
007FC07F8000
003FC0FF8000
003FE0FF8000
003FE0FF0000
001FF1FF0000
001FF1FE0000
000FFBFE0000
000FFBFE0000
0007FFFC0000
0007FFFC0000
0003FFF80000
0003FFF80000
0001FFF80000
0001FFF00000
0000FFF00000
0000FFE00000
00007FE00000
00007FE00000
00007FC00000
00007FC00000
00007FC00000
0000FF800000
0000FF800000
0000FF000000
0001FF000000
0001FF000000
0003FE000000
0003FE000000
0007FC000000
0007FC000000
0007FC000000
000FF8000000
000FF8000000
000FF8000000
000FF0000000
001FF0000000
001FF0000000
001FF0000000
001FF0000000
001FF0000000
001FE0000000
000FE0000000
000FE0000000
000780000000
ENDCHAR
STARTCHAR 00FE
ENCODING 254
SWIDTH 500 0
DWIDTH 46 0
BBX 40 82 3 -22
BITMAP
0F00000000
3F80000000
7F80000000
FF80000000
FF80000000
FFC0000000
FFC0000000
FFC0000000
FFC0000000
FFC0000000
FFC0000000
FFC0000000
FFC0000000
FFC0000000
FFC00FC000
FFC0FFF800
FFC3FFFE00
FFC7FFFF00
FFDFFFFF80
FFFFFFFFC0
FFFFFFFFE0
FFFFC1FFF0
FFFF007FF8
FFFC001FF8
FFF8000FFC
FFF00007FC
FFF00007FE
FFE00003FE
FFE00003FE
FFC00001FF
FFC00001FF
FFC00001FF
FF800001FF
FF800000FF
FF800000FF
FF800000FF
FF800000FF
FF800000FF
FF800000FF
FF800000FF
FF800000FF
FF800001FF
FF800001FF
FF800001FE
FFC00001FE
FFC00003FE
FFC00003FC
FFC00007FC
FFE00007F8
FFF0000FF8
FFF8001FF0
FFFE003FF0
FFFF81FFE0
FFFFFFFFC0
FFFFFFFF80
FFFFFFFF00
FFBFFFFE00
FF8FFFF800
FF83FFE000
FF80FF0000
FF80000000
FF80000000
FF80000000
FF80000000
FF80000000
FF80000000
FF80000000
FF80000000
FF80000000
FF80000000
FF80000000
FF80000000
FF80000000
FF80000000
FF80000000
FF80000000
FF80000000
FF80000000
FF80000000
7F80000000
7F00000000
3C00000000
ENDCHAR
STARTCHAR 00FF
ENCODING 255
SWIDTH 521 0
DWIDTH 48 0
BBX 42 87 3 -24
BITMAP
000E001E0000
003F003F0000
003F803F8000
007F807F8000
007F807F8000
007F807F8000
007F807F8000
007F807F8000
003F007F0000
003F003E0000
001C001C0000
000000000000
000000000000
000000000000
000000000000
000000000000
000000000000
000000000000
1C0000000F00
3E0000001FC0
7F0000003FC0
FF8000007FC0
FF8000007FC0
FFC00000FF80
7FC00000FF80
7FE00001FF00
7FE00001FF00
3FF00001FF00
3FF00003FE00
1FF00003FE00
1FF80003FC00
0FF80007FC00
0FF80007FC00
07FC0007F800
07FC000FF800
07FE000FF800
03FE001FF000
03FE001FF000
01FF001FE000
01FF003FE000
00FF803FE000
00FF803FC000
007F807FC000
007FC07F8000
003FC0FF8000
003FE0FF8000
003FE0FF0000
001FF1FF0000
001FF1FE0000
000FFBFE0000
000FFBFE0000
0007FFFC0000
0007FFFC0000
0003FFF80000
0003FFF80000
0001FFF80000
0001FFF00000
0000FFF00000
0000FFE00000
00007FE00000
00007FE00000
00007FC00000
00007FC00000
00007FC00000
0000FF800000
0000FF800000
0000FF000000
0001FF000000
0001FF000000
0003FE000000
0003FE000000
0007FC000000
0007FC000000
0007FC000000
000FF8000000
000FF8000000
000FF8000000
000FF0000000
001FF0000000
001FF0000000
001FF0000000
001FF0000000
001FF0000000
001FE0000000
000FE0000000
000FE0000000
000780000000
ENDCHAR
STARTCHAR 0152
ENCODING 338
SWIDTH 913 0
DWIDTH 84 0
BBX 78 66 3 0
BITMAP
0000000001FFFFFFFF00
000001FFFFFFFFFFFFC0
00000FFFFFFFFFFFFFE0
00003FFFFFFFFFFFFFE0
0000FFFFFFFFFFFFFFE0
0003FFFFFFFFFFFFFFE0
0007FFFFFFFFFFFFFFC0
000FFFE01FFFFFFFFF00
001FFC000FFFE0000000
003FE00007FF00000000
007FC00007FE00000000
00FF000007FE00000000
01FE000003FE00000000
03FC000003FE00000000
03FC000003FC00000000
07F8000003FC00000000
07F0000003FC00000000
0FF0000003FC00000000
0FE0000007FC00000000
1FE0000007FC00000000
1FC0000007FC00000000
3FC0000007FC00000000
3FC0000007FC00000000
3F80000007FC00000000
7F80000007FC00000000
7F80000007FC00000000
7F80000007FE00000000
7F00000007FE00FFFF80
7F00000007FFFFFFFFC0
FF00000007FFFFFFFFC0
FF00000007FFFFFFFF80
FF00000007FFFFFFFF80
FF00000007FFFFFFFF00
FF00000007FFFFFFFC00
FF00000007FFFFF80000
FF00000007FF80000000
FF00000007FE00000000
FF00000007FC00000000
FF00000007FC00000000
FF80000007FC00000000
FF80000007FC00000000
FF80000007FC00000000
7F80000007FC00000000
7FC0000007FC00000000
7FC0000007FC00000000
7FC0000007FC00000000
3FE0000007FC00000000
3FE0000007FC00000000
3FF0000007FC00000000
1FF0000007FC00000000
1FF8000007FE00000000
0FFC000007FE00000000
0FFE000007FE00000000
07FF000007FE00000000
03FF800007FE00000000
03FFC00007FE00000000
01FFF00003FF000001FC
00FFFE0003FFC000FFFC
007FFFFFFFFFFFFFFFFC
003FFFFFFFFFFFFFFFFC
001FFFFFFFFFFFFFFFFC
000FFFFFFFFFFFFFFFFC
0003FFFFFFFFFFFFFFF0
0000FFFFFFFFFFFFFFE0
00003FFFFFFFFFFFFE00
000003FFFFFFFFFFC000
ENDCHAR
STARTCHAR 0153
ENCODING 339
SWIDTH 858 0
DWIDTH 79 0
BBX 73 45 3 0
BITMAP
00007F800000FFC00000
0007FFF00007FFF80000
001FFFFC001FFFFE0000
003FFFFF007FFFFF0000
00FFFFFF80FFFFFF8000
01FFFFFFC1FF81FFC000
03FFFFFFE3FE007FE000
07FF81FFF7F8003FE000
07FE003FFFF0001FF000
0FF8001FFFE0000FF000
1FF0000FFFE0000FF000
1FE00007FFC0000FF000
3FE00007FFC0000FF800
3FC00003FF80000FF000
3F800003FF80001FF000
7F800001FF00003FF000
7F800001FF00007FF000
7F800001FF0000FFE000
FF000001FF0007FFE000
FF000001FF00FFFFC000
FF000000FFFFFFFF8000
FF000000FFFFFFFF0000
FF000000FFFFFFFC0000
FF000000FFFFFFF00000
FF000000FFFFFF800000
FF000001FFFFF8000000
FF000001FFFF00000000
FF800001FF8000000000
FF800001FF8000000000
7F800003FF8000000000
7FC00003FF8000000700
7FC00007FFC000000F80
7FE00007FFC000001F80
3FF0000FFFE000003F80
3FF8001FFFF00000FF80
1FFC007FFFF80001FF00
1FFF01FFFFFE0007FF00
0FFFFFFFEFFFC03FFE00
07FFFFFFC7FFFFFFFC00
03FFFFFF83FFFFFFF800
01FFFFFF01FFFFFFE000
00FFFFFE00FFFFFFC000
007FFFF8003FFFFF0000
001FFFE0000FFFF80000
0003FF000000FFC00000
ENDCHAR
STARTCHAR 0160
ENCODING 352
SWIDTH 586 0
DWIDTH 54 0
BBX 48 89 3 -2
BITMAP
000380008000
000FC001F000
000FE003F000
000FF007F000
0007F00FE000
0007F80FC000
0003FC1FC000
0001FE3F8000
0000FF7F0000
00007FFE0000
00007FFE0000
00003FFC0000
00001FF80000
00000FF00000
000007F00000
000003E00000
000000000000
000000000000
000000000000
000000000000
000000000000
000000000000
000000000000
000000000000
000007FF0000
00007FFFE000
0003FFFFF800
000FFFFFFE00
003FFFFFFE00
00FFFFFFFF00
01FFFFFFFF80
03FFE00FFF80
07FF0001FF80
0FFC00007F80
1FF800003F80
1FF000003F00
3FE000003F00
3FE000003C00
7FC000003800
7FC000000000
7FC000000000
7FC000000000
7FC000000000
7FE000000000
7FE000000000
7FF000000000
3FFC00000000
3FFE00000000
1FFFC0000000
1FFFFC000000
0FFFFFC00000
07FFFFFE0000
03FFFFFFE000
00FFFFFFFC00
007FFFFFFF00
000FFFFFFF80
0001FFFFFFE0
00003FFFFFF0
000001FFFFF8
0000000FFFFC
00000001FFFC
000000007FFE
000000001FFE
000000000FFF
0000000007FF
0000000003FF
0000000001FF
0000000001FF
0000000001FF
0000000001FF
0000000001FF
0000000001FE
3C00000001FE
7E00000003FE
7E00000003FE
FF00000007FC
FF8000000FFC
FFC000003FF8
FFE00000FFF8
7FF80003FFF0
7FFF003FFFE0
3FFFFFFFFFC0
1FFFFFFFFF80
0FFFFFFFFF00
07FFFFFFFC00
01FFFFFFF000
007FFFFFC000
001FFFFE0000
00007E000000
ENDCHAR
STARTCHAR 0161
ENCODING 353
SWIDTH 445 0
DWIDTH 41 0
BBX 36 67 3 1
BITMAP
01F0003C00
01F8007E00
01FC00FC00
01FE01FC00
00FF03F800
00FF03F000
007F87F000
003FCFE000
001FFFC000
000FFF8000
0007FF8000
0007FF0000
0003FE0000
0001FE0000
0000FC0000
0000000000
0000000000
0000000000
0000000000
000000C000
00007FFC00
0003FFFF00
001FFFFF80
007FFFFF80
00FFFFFFC0
01FFFFFFC0
03FFFFFFC0
07FF803FC0
0FFC001FC0
1FF0001FC0
1FE0000F80
3FC0000700
3FC0000000
3FC0000000
3FC0000000
3FE0000000
3FF0000000
3FFE000000
3FFFC00000
1FFFF80000
1FFFFF0000
0FFFFFC000
03FFFFF800
01FFFFFC00
003FFFFF00
000FFFFF80
0000FFFFC0
00000FFFE0
000001FFE0
0000007FF0
0000003FF0
0000001FF0
0000001FF0
0000001FF0
0000001FF0
1C00001FF0
3E00001FE0
7F00003FE0
FFC000FFC0
FFF803FFC0
FFFFFFFF80
7FFFFFFF00
3FFFFFFE00
1FFFFFF800
07FFFFF000
01FFFF8000
001FFC0000
ENDCHAR
STARTCHAR 0178
ENCODING 376
SWIDTH 619 0
DWIDTH 57 0
BBX 52 86 3 -2
BITMAP
0000F000F00000
0001F801F80000
0003F803F80000
0003FC03FC0000
0003FC07FC0000
0003FC07FC0000
0003FC07FC0000
0003FC03F80000
0003F803F80000
0001F003F00000
0000E001E00000
00000000000000
00000000000000
00000000000000
00000000000000
00000000000000
00000000000000
00000000000000
000000000003C0
000000000007E0
00000000000FE0
1E000000001FF0
3F000000003FF0
7F800000003FE0
7F800000007FE0
FFC0000000FFC0
7FE0000000FFC0
7FE0000000FF80
3FF0000001FF80
3FF0000001FF00
1FF8000003FE00
1FFC000003FE00
0FFC000007FC00
0FFE000007FC00
07FE00000FF800
03FF00000FF000
03FF80001FF000
01FF80003FE000
01FFC0003FE000
00FFE0007FC000
007FE0007FC000
007FF000FF8000
003FF001FF0000
001FF801FF0000
001FFC03FE0000
000FFC03FE0000
0007FE07FC0000
0007FF0FF80000
0003FF9FF80000
0001FF9FF00000
0000FFFFF00000
00007FFFE00000
00003FFFE00000
00001FFFC00000
00000FFFC00000
00000FFF800000
000007FF800000
000003FF800000
000003FF000000
000003FF000000
000003FF000000
000003FF000000
000003FF000000
000003FF000000
000003FE000000
000003FE000000
000003FE000000
000003FE000000
000003FE000000
000003FE000000
000003FE000000
000003FE000000
000003FE000000
000003FF000000
000003FF000000
000003FF000000
000003FF000000
000003FF000000
000003FF000000
000003FF000000
000003FE000000
000003FE000000
000003FC000000
000003F8000000
000003F0000000
000001E0000000
ENDCHAR
STARTCHAR 0192
ENCODING 402
SWIDTH 652 0
DWIDTH 60 0
BBX 54 85 3 -19
BITMAP
00000000007FE0
0000000003FFF0
0000000007FFF8
000000001FFFFC
000000003FFFFC
000000007FFFFC
00000000FFFFFC
00000000FFC0F8
00000001FF8078
00000001FF0078
00000003FE0078
00000003FC0060
00000007FC0000
00000007F80000
00000007F80000
0000000FF80000
0000000FF00000
0000000FF00000
0000001FF00000
0000001FF00000
0000001FE00000
0000001FE00000
00001FFFFFFC00
00003FFFFFFE00
00007FFFFFFE00
00007FFFFFFC00
0000FFFFFFFC00
0000FFFFFFFC00
00007FFFFFF000
000000FFF00000
000000FFC00000
000000FFC00000
000000FF800000
000000FF800000
000000FF800000
000000FF800000
000000FF000000
000001FF000000
000001FF000000
000001FF000000
000001FF000000
000001FE000000
000003FE000000
000003FE000000
000003FE000000
000003FE000000
000003FE000000
000003FC000000
000007FC000000
000007FC000000
000007FC000000
000007FC000000
000007FC000000
000007F8000000
00000FF8000000
00000FF8000000
00000FF8000000
00000FF8000000
00000FF0000000
00000FF0000000
00001FF0000000
00001FF0000000
00001FF0000000
00001FF0000000
00001FE0000000
00003FE0000000
00003FE0000000
00003FE0000000
00003FC0000000
00007FC0000000
00007FC0000000
00007F80000000
0000FF80000000
1800FF80000000
3801FF00000000
7C03FF00000000
7C07FE00000000
7E0FFC00000000
7FFFFC00000000
7FFFF800000000
FFFFF000000000
7FFFE000000000
7FFF8000000000
3FFF0000000000
0FF80000000000
ENDCHAR
STARTCHAR 02C6
ENCODING 710
SWIDTH 326 0
DWIDTH 30 0
BBX 24 16 3 53
BITMAP
001E00
007F00
00FF80
01FF80
03FFC0
03FFE0
07FFE0
0FF7F0
1FE3F8
3FC1FC
3F80FC
7F80FE
FF007F
FE003F
FC001F
38000C
ENDCHAR
STARTCHAR 02DC
ENCODING 732
SWIDTH 402 0
DWIDTH 37 0
BBX 32 12 3 55
BITMAP
00F00000
07FE0000
1FFF0006
3FFF800F
7FFFC03F
FFFFF0FF
FFBFFFFE
FC07FFFE
F003FFFC
6001FFF8
0000FFE0
00003F80
ENDCHAR
STARTCHAR 2013
ENCODING 8211
SWIDTH 586 0
DWIDTH 54 0
BBX 49 8 3 20
BITMAP
07FFF800000000
3FFFFFFFFFFF00
7FFFFFFFFFFF80
FFFFFFFFFFFF80
FFFFFFFFFFFF00
FFFFFFFFFFFE00
7FFFFFFFFFFC00
3FFFFFFFFFF800
ENDCHAR
STARTCHAR 2014
ENCODING 8212
SWIDTH 967 0
DWIDTH 89 0
BBX 83 9 3 19
BITMAP
07C003FFFF000000000FC0
3FFFFFFFFFFC000000FFE0
7FFFFFFFFFFFFFFFFFFFE0
FFFFFFFFFFFFFFFFFFFFE0
FFFFFFFFFFFFFFFFFFFFE0
FFFFFFFFFFFFFFFFFFFFC0
7FFFFFFFFFFFFFFFFFFF80
3FFFFFFFFFFFFFFFFFFF00
0000000000000FFFFFFC00
ENDCHAR
STARTCHAR 2018
ENCODING 8216
SWIDTH 195 0
DWIDTH 18 0
BBX 13 24 3 43
BITMAP
0060
03F8
07F8
07F8
0FF0
0FF0
1FF0
1FF0
1FE0
3FE0
3FE0
3FC0
7FC0
7FC0
7FE0
FFF0
FFF0
FFF0
FFF0
7FF0
7FF0
3FF0
1FE0
0F80
ENDCHAR
STARTCHAR 2019
ENCODING 8217
SWIDTH 195 0
DWIDTH 18 0
BBX 13 24 3 43
BITMAP
0F80
3FC0
3FE0
7FF0
7FF8
7FF8
7FF8
7FF8
3FF8
3FF0
1FF0
1FF0
1FF0
3FE0
3FE0
3FC0
3FC0
7FC0
7F80
7F80
FF00
FF00
7E00
3800
ENDCHAR
STARTCHAR 201A
ENCODING 8218
SWIDTH 195 0
DWIDTH 18 0
BBX 13 24 3 -12
BITMAP
0F80
3FC0
3FE0
7FF0
7FF8
7FF8
7FF8
7FF8
3FF8
3FF0
1FF0
1FF0
1FF0
3FE0
3FE0
3FC0
3FC0
7FC0
7F80
7F80
FF00
FF00
7E00
3800
ENDCHAR
STARTCHAR 201C
ENCODING 8220
SWIDTH 391 0
DWIDTH 36 0
BBX 30 24 3 43
BITMAP
00F00038
03F800FC
07F801FC
07F803FC
0FF003FC
0FF007FC
1FF007F8
1FF007F8
1FE00FF8
3FE00FF8
3FE00FF0
3FC01FF0
7FC01FF0
7FC01FF0
7FE03FF8
FFF03FF8
FFF03FFC
FFF03FFC
FFF03FFC
7FF03FFC
7FF01FFC
3FE01FF8
1FE00FF0
078003E0
ENDCHAR
STARTCHAR 201D
ENCODING 8221
SWIDTH 391 0
DWIDTH 36 0
BBX 30 24 3 42
BITMAP
0F8003C0
3FC00FF0
3FE01FF8
7FF01FFC
7FF83FFC
7FF83FFC
7FF83FFC
7FF81FFC
3FF81FFC
3FF00FFC
1FF00FFC
1FF007F8
1FF00FF8
3FE00FF8
3FE00FF0
3FC01FF0
3FC01FF0
7FC01FE0
7F801FE0
7F803FE0
FF003FC0
FF003F80
7E003F80
38001E00
ENDCHAR
STARTCHAR 201E
ENCODING 8222
SWIDTH 402 0
DWIDTH 37 0
BBX 31 24 3 -12
BITMAP
0F8001E0
3FC007F8
3FE00FFC
7FF01FFC
7FF81FFE
7FF81FFE
7FF81FFE
7FF81FFE
3FF80FFE
3FF00FFE
1FF007FC
1FF007FC
1FF007FC
3FE007FC
3FE00FF8
3FC00FF8
3FC00FF0
7FC00FF0
7F801FF0
7F801FE0
FF001FE0
FF003FC0
7E001F80
38000E00
ENDCHAR
STARTCHAR 2020
ENCODING 8224
SWIDTH 423 0
DWIDTH 39 0
BBX 33 70 3 -11
BITMAP
0000E00000
0001F00000
0003F80000
0003F80000
0007F80000
0007F80000
0007F80000
0007F80000
0007F80000
0007F80000
000FF80000
000FF80000
000FF80000
000FF80000
1FFFFFFF00
3FFFFFFF80
7FFFFFFF80
7FFFFFFF00
FFFFFFFF00
FFFFFFFE00
7FFFFFF800
000FF80000
000FF80000
000FF80000
000FF80000
000FF80000
000FF80000
000FF80000
000FF80000
000FF80000
000FF80000
000FF80000
000FF80000
000FF80000
000FF80000
000FF00000
000FF00000
000FF00000
000FF00000
000FF00000
000FF00000
000FF00000
000FF00000
000FF00000
000FF00000
000FF00000
000FF00000
000FF00000
000FF00000
000FF00000
000FF00000
000FF80000
000FF80000
000FF80000
000FF80000
000FF80000
000FF80000
000FF80000
000FF80000
000FF80000
000FF80000
000FF80000
000FF80000
000FF80000
000FF80000
000FF00000
0007F00000
0007E00000
0007C00000
0003800000
ENDCHAR
STARTCHAR 2021
ENCODING 8225
SWIDTH 423 0
DWIDTH 39 0
BBX 33 70 3 -11
BITMAP
0000E00000
0001F00000
0003F80000
0003F80000
0007F80000
0007F80000
0007F80000
0007F80000
0007F80000
0007F80000
000FF80000
000FF80000
000FF80000
000FF80000
1FFFFFFF00
3FFFFFFF80
7FFFFFFF80
7FFFFFFF00
FFFFFFFF00
FFFFFFFE00
7FFFFFF800
000FF80000
000FF80000
000FF80000
000FF80000
000FF80000
000FF80000
000FF80000
000FF80000
000FF80000
000FF80000
000FF80000
000FF80000
000FF80000
000FF00000
000FF00000
000FF00000
000FF00000
000FF00000
000FF00000
000FF00000
000FF00000
000FF00000
000FF00000
000FF00000
000FF00000
000FF00000
000FF00000
000FF00000
1FFFFFFF00
3FFFFFFF80
7FFFFFFF80
7FFFFFFF00
FFFFFFFF00
FFFFFFFE00
7FFFFFF800
080FF80000
000FF80000
000FF80000
000FF80000
000FF80000
000FF80000
000FF80000
000FF80000
000FF00000
000FF00000
0007F00000
0007E00000
0007C00000
0003800000
ENDCHAR
STARTCHAR 2022
ENCODING 8226
SWIDTH 336 0
DWIDTH 31 0
BBX 26 24 3 20
BITMAP
007F8000
01FFE000
07FFF800
0FFFFC00
1FFFFE00
3FFFFF00
3FFFFF00
7FFFFF80
7FFFFF80
7FFFFFC0
FFFFFFC0
FFFFFFC0
FFFFFFC0
FFFFFFC0
FFFFFFC0
7FFFFF80
7FFFFF80
3FFFFF00
3FFFFF00
1FFFFE00
0FFFFC00
07FFF000
01FFC000
000C0000
ENDCHAR
STARTCHAR 2026
ENCODING 8230
SWIDTH 652 0
DWIDTH 60 0
BBX 54 12 3 0
BITMAP
1F00007C0003C0
3F8001FE000FF0
7FC003FF001FF8
7FE003FF801FFC
FFE003FF801FFC
FFF003FF801FFC
FFF003FF801FFC
FFF003FF801FFC
7FE003FF801FFC
7FE001FF800FF8
3FC000FF0007F8
0F80007C0003E0
ENDCHAR
STARTCHAR 2030
ENCODING 8240
SWIDTH 1108 0
DWIDTH 102 0
BBX 97 63 3 0
BITMAP
001FE0000001E0000000000000
007FFC000003F0000000000000
01FFFE00000FF0000000000000
07FFFF80001FF0000000000000
0FFFFFC0003FE0000000000000
0FFFFFC0003FC0000000000000
1FF07FE0007F80000000000000
3FC01FF0007F80000000000000
3F800FF000FF00000000000000
7F8007F000FF00000000000000
7F0007F801FE00000000000000
7F0007F801FE00000000000000
FE0003F803FC00000000000000
FE0003F803FC00000000000000
FE0003F807F800000000000000
FE0003F807F000000000000000
FE0003F80FF000000000000000
FE0003F80FE000000000000000
FF0003F81FE000000000000000
FF0007F01FC000000000000000
7F0007F03FC000000000000000
7F800FE03F8000000000000000
7FC01FE07F8000000000000000
3FF07FC07F0000000000000000
1FFFFF80FF0000000000000000
1FFFFF80FE0000000000000000
0FFFFF01FC0000000000000000
03FFFC01FC0000000000000000
01FFF003F80000000000000000
003FC003F80000000000000000
00000007F00000000000000000
00000007F00000000000000000
0000000FE001FE000000FE0000
0000000FE00FFF800007FFC000
0000001FC03FFFE0001FFFE000
0000001FC07FFFF0003FFFF800
0000003F80FFFFF8007FFFF800
0000003F81FFFFFC00FFFFFC00
0000007F03FE07FE01FF07FE00
0000007F07FC01FE03FC01FE00
000000FE07F800FF03F800FF00
000000FE0FF000FF07F8007F00
000001FC0FE0007F87F0007F80
000001FC0FE0007F87F0007F80
000003F81FC0003F8FE0003F80
000003F81FC0003F8FE0003F80
000007F01FC0003F8FE0003F80
000007F01FC0003F8FE0003F80
00000FE01FC0003F8FE0003F80
00000FE01FC0003F8FE0003F80
00001FE01FC0003F8FE0003F80
00001FC01FE0007F0FF0007F00
00003FC00FE0007F0FF0007F00
00003F800FF000FF07F000FF00
00007F800FF000FE07F800FE00
00007F0007F803FE03FC01FE00
0000FF0007FE07FC03FF07FC00
0000FE0003FFFFF801FFFFF800
0001FE0001FFFFF000FFFFF000
0003FC0000FFFFE000FFFFE000
0003F800007FFFC0003FFFC000
0003F000001FFF00001FFF0000
0001E0000007F8000003F80000
ENDCHAR
STARTCHAR 2039
ENCODING 8249
SWIDTH 271 0
DWIDTH 25 0
BBX 19 34 3 7
BITMAP
0001C0
0007E0
000FE0
001FE0
003FE0
007FC0
00FF80
01FF80
03FF00
07FE00
07FC00
0FF800
1FF000
3FE000
7FC000
7FC000
FF8000
FF8000
7FC000
3FE000
3FF000
1FF800
0FFC00
07FE00
03FF00
03FF80
01FF80
00FFC0
007FE0
003FE0
001FE0
000FE0
0007C0
000380
ENDCHAR
STARTCHAR 203A
ENCODING 8250
SWIDTH 271 0
DWIDTH 25 0
BBX 19 34 3 7
BITMAP
380000
7E0000
FF0000
FF8000
7FC000
3FE000
3FF000
1FF800
0FFC00
07FC00
03FE00
01FF00
00FF80
007F80
007FC0
003FE0
001FE0
001FE0
003FE0
007FC0
00FF80
01FF00
03FF00
07FE00
0FFC00
1FF800
3FF000
3FF000
7FE000
FFC000
FF8000
7F0000
3E0000
1C0000
ENDCHAR
STARTCHAR 2122
ENCODING 8482
SWIDTH 771 0
DWIDTH 71 0
BBX 65 37 3 27
BITMAP
3FFFFFF03C0000F000
7FFFFFF0FE0001F800
7FFFFFF1FF0003FC00
FFFFFFF1FF0003FC00
FFFFFFE1FF0007FC00
7FFFFF81FF8007FC00
001F8001FF8007FE00
001F8001FF8007FE00
001F8001FFC00FFE00
001F8001FFC00FFE00
001F8001FFC00FFE00
001F8003FFE01FBE00
001F8003F7E01FBF00
001F8003F7E01F3F00
001F8003F7E01F3F00
001F8003F3F03F3F00
001F8003E3F03E3F00
001F8003E3F03E3F00
001F8003E1F87E1F00
001F8003E1F87C1F00
001F8003E1F87C1F80
001F8003E0FCFC1F80
001F8003E0FCFC1F80
001F8003E0FCF81F80
001F8003E07FF81F80
001F8003E07FF81F80
001F8007E07FF01F80
001F8007E03FF01F80
001F8007E03FF01F80
001F8007E03FE01F80
001F8007E01FE01F80
001F8007E01FE01F80
001F8007E01FC01F80
001F8007E00FC01F00
000F8007C00F800F00
000F00078007000F00
000400000000000000
ENDCHAR
STARTCHAR 2219
ENCODING 8729
SWIDTH 184 0
DWIDTH 17 0
BBX 12 13 3 25
BITMAP
1F00
3FC0
7FE0
7FE0
FFE0
FFF0
FFF0
FFF0
7FF0
7FF0
3FE0
1FC0
0F80
ENDCHAR
STARTCHAR E000
ENCODING 57344
SWIDTH 630 0
DWIDTH 58 0
BBX 54 65 1 0
BITMAP
0000000FFC0000
0000007FFFC000
000001FFFFF800
000007FFFFFE00
00000FFFFFFF80
00001FFFFFFFE0
00003FFFFFFFF0
00007FFFFFFFF8
0000FFF00FFFF8
0000FFC000FFFC
0001FF00001FFC
0003FE00000FFC
0003FE00000FFC
0007FC000007FC
0007F8000007FC
000FF8000003FC
000FF0000003F8
000FF0000003F8
001FF0000003F0
001FF0000001E0
001FE000000000
001FE000000000
03FFFFFFFFE000
0FFFFFFFFFE000
1FFFFFFFFFE000
3FFFFFFFFFE000
3FFFFFFFFFE000
1FFFFFFFFFC000
0FFFFFFFFF8000
003FE000000000
007FE000000000
007FE000000000
007FE000000000
007FE000000000
007FE000000000
007FE000000000
007FE000000000
0FFFFFFFFE0000
3FFFFFFFFE0000
7FFFFFFFFE0000
7FFFFFFFFE0000
FFFFFFFFFC0000
7FFFFFFFF80000
7FFFFFFFF00000
003FF000000000
003FF000000078
001FF0000000FC
001FF8000001FC
001FF8000003FC
001FFC000003FC
000FFC000007F8
000FFE00000FF8
0007FF00001FF8
0007FF80003FF0
0003FFC000FFF0
0003FFF003FFE0
0001FFFFFFFFC0
0000FFFFFFFF80
00007FFFFFFF00
00003FFFFFFE00
00001FFFFFFC00
00000FFFFFF000
000003FFFFC000
000000FFFE0000
0000000FE00000
ENDCHAR
STARTCHAR E001
ENCODING 57345
SWIDTH 576 0
DWIDTH 53 0
BBX 47 8 3 25
BITMAP
0FFFFFFFFFFC
1FFFFFFFFFFE
7FFFFFFFFFFE
7FFFFFFFFFFE
FFFFFFFFFFFE
FFFFFFFFFFFC
7FFFFFFFFFF8
3FFFFFFFFFE0
ENDCHAR
STARTCHAR E002
ENCODING 57346
SWIDTH 489 0
DWIDTH 45 0
BBX 39 67 3 -21
BITMAP
0780000078
1FC00000FC
3FE00001FE
3FE00003FE
7FE00003FE
7FE00007FE
7FE00007FE
7FE00007FE
7FE00007FC
7FE00007FC
7FE00007FC
7FC00007FC
7FC00007FC
7FC00007FC
7FC00007FC
7FC00003FC
7FC00003FC
7FC00003FC
7FC00003FC
7FC00003FC
7FC00003FC
7FC00003FC
7FC00003FC
7FC00003FC
7FC00007FC
7FC00007FC
7FC00007FC
7FC00007FC
7FC00007FC
7FC00007FC
7FC00007FC
7FE0000FFC
FFE0000FF8
FFE0001FF8
FFF0003FF8
FFF8007FF0
FFFC01FFF0
FFFFFFFFE0
FFFFFFFFE0
FFFFFFFFC0
FFFFFFFFC0
FFFFFFFFE0
FFFFFFFFE0
FFBFFFFFF0
FF83FFBFF8
FF80000FF8
FF800007FC
FF800003FC
FF800001FE
FF8000007E
FF8000001E
FF80000000
FF80000000
FF80000000
FF80000000
FF80000000
FF80000000
FF80000000
FF80000000
FF80000000
FF80000000
FF80000000
FF80000000
7F80000000
7F00000000
7F00000000
3C00000000
ENDCHAR
STARTCHAR E003
ENCODING 57347
SWIDTH 467 0
DWIDTH 43 0
BBX 0 0 0 0
BITMAP
ENDCHAR
ENDFONT
